<?xml version="1.0" encoding="utf-8"?>
<!-- Generator: Adobe Illustrator 25.4.1, SVG Export Plug-In . SVG Version: 6.00 Build 0)  -->
<svg version="1.1" id="Capa_1" xmlns="http://www.w3.org/2000/svg" xmlns:xlink="http://www.w3.org/1999/xlink" x="0px" y="0px"
	 viewBox="0 0 795 795" style="enable-background:new 0 0 795 795;" xml:space="preserve">
<style type="text/css">
	.st0{opacity:0.25;}
	.st1{fill:#D6D6D6;}
</style>
<g class="st0">
	<path class="st1" d="M0.8,394.4c0-9.4-0.1-18.8,0.1-28.2c0.1-5.2,0.5-10.4,1.3-15.5c1.9-11.9,5.2-23.8,6.1-35.8
		c1.1-14.8,6.5-28.3,11.3-41.9c4.6-13.1,10.3-25.7,15.6-38.5c3.2-7.6,6.6-15.1,9.9-22.6c3.9-8.8,9.1-16.7,14.9-24.5
		c7.1-9.6,13.6-19.7,20.6-29.4c4.3-6,8.9-11.9,13.7-17.4c7.6-8.7,15.5-17.1,23.5-25.4c4.5-4.7,9.4-9.1,14.3-13.4
		c13.2-11.7,27.2-22.5,41.7-32.5c7.5-5.2,15.6-9.5,23.5-14.1c9-5.3,18.5-9.6,28.2-13.5c5-2,9.8-4.7,14.5-7.4
		c16.2-9.1,33.7-14.6,51.7-18.7c5.1-1.1,10-2.9,15-4c13.1-3,26.1-5.9,39.2-8.7c4.2-0.9,8.6-1.2,12.9-1.5c8.5-0.6,17-1.9,25.4-1.2
		c12,0.9,24,0.6,35.9,1.3c12.1,0.8,24.2,2.1,36.2,3.9c6.6,1,12.9,3.4,19.5,4.9c9.7,2.3,19.4,4.3,29.1,6.6c2.7,0.6,5.3,1.8,8,2.6
		c8.7,2.6,17.4,5.2,26,7.9c3.5,1.1,6.9,2.5,10.3,4c13,6,26.1,11.9,38.8,18.4c7.3,3.7,14.2,8.4,21.1,13c12.7,8.3,25.7,16.3,37.4,26
		c6.5,5.4,12.8,11.1,19.2,16.7c4.3,3.7,8.6,7.4,12.8,11.1c1.8,1.6,3.8,3,5.3,4.8c7.5,9,16.4,16.9,23.1,26.6
		c4.9,7.1,11.2,13.3,16.1,20.4c9.7,13.9,19.4,27.8,26.6,43.3c2,4.3,4.2,8.6,5.9,13c6.1,16,12.2,32,17.8,48.1
		c3.4,9.6,6.4,19.3,8.8,29.2c2.3,9.6,3.5,19.5,5.2,29.3c0.8,4.9,1.6,9.8,2.6,14.7c1.7,7.6,1.7,15.3,2.6,22.9c2.6,22,1,44,1,66
		c0,7.5-2,15-3.2,22.5c-1.5,9.2-2.7,18.4-4.6,27.5c-2.2,10.1-4.7,20.3-7.9,30.1c-2.7,8.2-7.1,15.9-9.7,24.1
		c-3.8,12.3-9.8,23.6-14.6,35.5c-5.2,12.8-12.4,24.4-20.2,35.6c-4.3,6.2-8.1,12.8-12.6,19c-5.3,7.4-10.4,15.1-16.6,21.8
		c-15.3,16.4-31.2,32.3-47,48.3c-9.9,10-21.8,17.4-33.3,25.1c-9.4,6.3-18.8,12.6-28.5,18.4c-7.2,4.4-15.1,7.8-22.3,12.3
		c-15.7,9.8-33.3,14.4-50.8,19.6c-8.3,2.4-16.6,5-24.7,7.9c-9,3.2-18.4,5-27.8,6.5c-5.8,0.9-11.6,1.6-17.4,2.4
		c-0.4,0.1-0.9,0.2-1.3,0.1c-25.3-3.2-50.5,4.1-75.7,2.9c-2-0.1-3.9-0.1-5.9-0.1c-11.9-0.3-23.8-1.2-35.5-3.7
		c-10.1-2.2-20.4-3.6-30.6-5.7c-3.8-0.8-7.4-2.5-11.2-3.5c-24.2-6.4-46.9-17-69.7-27c-15.8-6.9-30.3-16.2-44.7-25.4
		c-10-6.4-19.4-13.9-29.1-20.9c-0.9-0.6-1.6-1.4-2.4-2.2c-11.8-11-23.9-21.7-35.2-33.2c-10.8-11-21.3-22.4-30.2-35.1
		c-3.1-4.4-6.5-8.7-10.1-12.8c-7.6-8.5-13.2-18.4-18.7-28.2C43,580.1,34.1,563.3,27.9,545c-3.2-9.4-6.2-18.9-8.9-28.5
		c-1.3-4.8-3.2-9.4-5.1-14c-3.8-9.3-4.8-19.3-6.5-29.1c-1.7-9.6-3.4-19.1-4.9-28.8c-0.8-5.1-1.5-10.4-1.6-15.5
		C0.6,417.5,0.8,406,0.8,394.4z M5.2,425.8c0.8,6.3,1.6,13.4,2.7,20.5c1.5,9.8,3.5,19.6,4.8,29.5c1.2,8.6,2.8,16.9,6.4,25
		c3,6.6,4.1,14.1,5.9,21.2c3.7,14.3,9.5,27.9,16,41.1c6.7,13.6,14.3,26.9,21.3,40.4c2.8,5.5,6.4,10.3,10.2,15.1
		c7.3,9.2,14.4,18.6,21.6,27.9c7.3,9.5,15.3,18.4,24.1,26.6c2.4,2.2,4.9,4.3,7.4,6.5c9.6,8.6,19,17.4,28.7,25.8
		c6.1,5.3,12.5,10.2,19.1,14.8c6.1,4.2,12.6,7.8,19,11.4c8.3,4.7,15.6,11.1,24.6,14.8c5,2,9.9,4.5,14.8,6.7
		c19.6,8.7,39.1,17.8,60,23.3c8.2,2.1,16.3,4.5,24.5,6.4c6.9,1.6,14,2.7,21.1,3.8c8.5,1.3,17.1,3.3,25.7,3.5
		c10.4,0.2,20.7,1.7,31.2,0.4c10.8-1.3,21.6-1.7,32.5-2.5c11-0.9,22-1.9,33.1-2.8c10.6-0.9,21-2.9,31.3-5.7
		c6.9-1.9,13.7-4.1,20.5-6.2c14.3-4.4,28.7-8.4,42.8-13.4c6.7-2.4,12.8-6.4,19-9.9c8.4-4.6,16.8-9.2,24.9-14.3
		c10.8-6.9,21.5-14.1,32-21.4c8-5.6,16.3-10.9,23-18.2c2.5-2.7,5.6-4.9,8.3-7.3c4.5-4.1,9.2-8,13.5-12.3c3.7-3.7,7.1-7.7,10.6-11.5
		c5.7-6.3,11.7-12.3,17.2-18.8c4.9-5.8,9.3-12,13.8-18.2c3-4.2,5.5-8.9,8.5-13.1c8.2-11.3,15.6-23,21.4-35.7
		c6.1-13.4,11.5-27.2,17.5-40.7c5.5-12.3,10.4-24.8,13.3-38c1.8-8.4,3-17,6.1-25.2c0.7-2,0.9-4.2,1.3-6.3c1.3-7.5,2.7-14.9,3.7-22.4
		c0.8-5.8,1.2-11.7,1.5-17.5c0.8-14.4-0.8-28.8,1.2-43.1c0.1-0.6-0.1-1.3-0.1-1.9c-0.3-3-0.7-6-1-9c-0.6-5.8-0.9-11.7-1.7-17.4
		c-1-6.8-2.2-13.6-3.5-20.4c-2.4-12.7-4.2-25.7-7.4-38.2c-4.7-18-10.3-35.8-17.9-52.8c-5.9-13.3-9.9-27.4-17.8-39.7
		c-6.1-9.5-11.4-19.5-17.9-28.8c-7.8-11.2-16.4-21.9-24.8-32.8c-1.7-2.2-3.4-4.6-5.4-6.5c-11.3-10.9-22.5-21.9-34-32.6
		c-5.9-5.5-12-10.7-18.5-15.5c-9.4-7-19.1-13.6-28.9-20.1c-8-5.3-16-10.6-24.5-15c-10.8-5.5-22.3-9.6-33.1-15.1
		c-16.2-8.2-33.5-13-50.7-18.1c-14.9-4.4-30.2-7.2-45.4-10.5c-7.2-1.6-14.4-3.2-21.7-3.8c-10.4-1-20.9-1.1-31.3-1.6
		c-2-0.1-3.9-0.3-5.9-0.3c-9.1-0.3-18.3-0.9-27.4-0.6c-7.1,0.2-14.2,1.4-21.3,2.4c-7.7,1.1-15.4,2.2-23,4c-12,2.8-23.9,6-35.8,9.2
		c-7.3,1.9-14.7,3.6-21.8,6.1c-10,3.5-19.9,6.8-28.9,13c-7.4,5.1-16.1,8.5-24.6,11.9c-15,6.1-29,14.1-42.1,23.3
		c-13.1,9.3-25.4,19.8-37.9,29.9c-4.9,4-9.6,8.3-14.1,12.7c-4.3,4.3-8.4,8.9-12.5,13.4c-10.7,11.7-22.2,22.8-30.4,36.6
		c-5.2,8.8-10.7,17.4-17.3,25.3c-6.5,7.7-11.4,16.4-15.4,25.6c-3.8,8.7-7.6,17.5-11.5,26.2c-1.3,3-2.7,5.9-3.9,8.9
		c-3.7,10.2-7,20.5-11.1,30.5c-3.9,9.6-5.4,19.6-7.2,29.6c-2.2,11.9-3.7,23.9-5.5,35.9c-0.5,3.4-1.1,6.9-1.2,10.3
		C5.8,381.4,7.6,403.3,5.2,425.8z"/>
	<path class="st1" d="M17.9,398.2c0-6.6,0-13.1,0-19.7c0.1-10.4,1.9-20.7,3.2-31c1.1-8.6,2.1-17.2,3-25.8c0.8-7.4,2.3-14.6,4.6-21.5
		c5.5-16.2,12.5-31.9,18-48.1c4.8-14.2,12.8-26.5,19.5-39.5c3-5.8,5.9-11.7,9.1-17.4c4.9-8.8,11.3-16.5,17.3-24.5
		c6.2-8.2,11.9-16.6,19-24.1c8-8.5,14.6-18.2,24.7-24.9c7.2-4.8,13.1-11.4,19.9-16.9c9.3-7.5,18.8-14.8,28.5-21.8
		c5.3-3.8,11.1-6.7,16.8-10c8.8-5.1,17.7-10.3,26.6-15.3c7.2-4.1,15.1-6.5,22.8-9.4c10.4-3.8,20.5-8.4,30.8-12.3
		c11.6-4.4,23.2-8.1,35.9-8.7c9-0.5,17.7-3.7,26.7-5.3c5.9-1.1,12-1.9,18-2.2c13.9-0.6,27.9-1.2,41.8-1.2c6.9,0,13.8,1.3,20.7,2.1
		c4.5,0.5,9.1,0.9,13.6,1.6c17,2.6,34.4,3.8,51.1,7.8c20.8,5,40.4,13,60,21.2c12.8,5.4,25.4,11.4,37.4,18.4
		c12.3,7.3,23.8,16,35.6,24.2c6.4,4.4,12.8,8.9,19.2,13.5c2.1,1.5,4.1,3.2,6,5c6.5,6.4,13.1,12.9,19.4,19.5c8,8.3,16,16.7,23.7,25.3
		c3.5,3.9,6.3,8.4,9.2,12.6c7.8,11.3,15.8,22.4,23.2,34c3.7,5.8,6.4,12.3,9.4,18.6c2.3,4.9,3.9,9.9,7.3,14.4
		c2.9,3.9,4.4,8.9,6.4,13.5c8.2,18.5,14.4,37.6,19.7,57.1c1.7,6.2,2.2,12.8,3.4,19.1c0.7,3.4,1.5,6.8,2.6,10
		c2.6,7.7,3.2,15.6,4.1,23.6c1.4,11.8,1,23.5,0.9,35.3c-0.1,10.7-0.5,21.3-1.2,31.9c-0.4,6.5-1.5,12.9-2.3,19.3
		c-0.1,0.6-0.2,1.3-0.1,2c0.7,8.2-2.5,15.8-3.4,23.7c-1.1,9.8-4.2,19-7.1,28.3c-4.2,13.2-8.8,26.3-13.8,39.2
		c-3.4,8.9-7.6,17.5-11.6,26.1c-5.8,12.5-13.8,23.6-20.6,35.5c-5.1,8.9-10.4,17.6-17,25.4c-5.2,6.2-10,12.7-15.4,18.5
		c-10.7,11.5-21.2,23.3-32.8,33.8c-11.5,10.5-22.8,21.6-36.6,29.4c-1.8,1-3.3,2.8-5,4c-4.1,2.9-8.1,5.9-12.4,8.4
		c-10.1,5.9-20.4,11.6-30.7,17.3c-3.2,1.8-6.6,3.4-10,4.8c-9.5,3.8-18.9,7.7-28.5,11.1c-9,3.2-18.1,6-27.3,8.5
		c-13.6,3.6-27.2,7.1-41,10c-8.9,1.8-18,2.2-27,3.7c-7.4,1.3-14.7,1.1-22.1,0.9c-11.5-0.3-23.1-0.6-34.6-1.2
		c-10.7-0.6-21.5-0.5-32.1-2.5c-11.7-2.3-23.5-3.2-35-6.9c-12.5-4.1-25.5-6.6-38.2-10.1c-10.2-2.8-20.3-6.4-29.8-11.1
		c-13.7-6.8-27.7-13.2-41.5-19.9c-12.8-6.3-21.9-16.7-33.2-25.1c-16.4-12.3-31.7-26-46.4-40.2c-1.7-1.7-3.4-3.4-4.7-5.4
		c-9.7-14.4-21.2-27.6-29.6-42.9c-2.7-4.9-6.9-8.9-10.4-13.4c-8.3-10.5-14-22.5-19.4-34.6c-0.5-1.2-0.8-2.5-1.6-3.6
		c-4.8-6.4-7-14-9.7-21.2c-5.3-14.2-10.9-28.3-14.1-43.2c-2.1-10.1-5-20.1-7-30.3c-1.4-7.2-1.8-14.6-3-21.8
		C17.9,428.6,17.6,413.4,17.9,398.2z M409.3,771.9c10-0.1,20-0.5,30-1.3c5.8-0.4,11.7-0.7,17.5-1.8c10.8-2.2,21.6-4.6,32.2-7.5
		c12.5-3.5,25.2-6.5,37.2-11.5c8.8-3.7,17.6-7.3,26.4-11c4.4-1.8,9.2-3.1,13.1-5.7c13.2-8.8,28.3-14.2,40.7-24.3
		c6.4-5.2,13.9-9,20.2-14.2c10-8.1,19.6-16.5,29-25.3c7.5-7,14.5-14.5,21.3-22.1c4.3-4.8,7.4-10.8,11.7-15.6
		c7.4-8.3,14-17.2,19.9-26.6c5.5-8.8,11.4-17.5,16.8-26.4c6.9-11.4,12-23.6,17.4-35.7c9.5-21.3,15.7-43.6,21.9-65.8
		c4-14.5,4.3-29.5,5.3-44.4c0.3-5.3,1.3-10.7,0.2-16.1c-0.1-0.6,0-1.3,0.1-2c0.4-5.4,0.8-10.8,1.2-16.2c0.3-4.1,1.1-8.2,1.1-12.3
		c-0.1-6.4-0.7-12.9-1-19.3c-0.4-11.1-1-22.1-5.9-32.4c-0.5-1.1-0.6-2.5-0.8-3.8c-1.1-7.5-1.7-15.1-3.5-22.4
		c-5-20.2-12.5-39.6-21.3-58.6c-3.8-8.3-8.2-16.3-11.5-24.8c-2.8-7.1-6.2-13.9-10.5-20.1c-4.7-6.8-9.5-13.5-14-20.5
		c-12.5-19.4-28.4-35.8-44.4-52.1c-4.4-4.5-10.2-8-13.6-13.1c-3.8-5.7-9.4-8.7-14.4-12.8c-1.9-1.5-3.9-2.8-5.8-4.2
		c-5.4-4-10.6-8.3-16.2-12c-11.9-7.6-24-14.8-36.1-22.1c-0.9-0.6-1.9-1-2.9-1.4c-4.7-2.1-9.7-3.8-14.2-6.4
		c-9.5-5.4-20.1-8.1-30.2-12.1c-9-3.6-17.9-7.7-27.4-10c-8-1.9-15.9-4.4-24-5.7c-14.3-2.2-28.8-3.6-43.1-5.6
		c-9.5-1.3-18.9-2.6-28.5-2.5c-2.8,0-5.7,0.2-8.5-0.2c-12.4-1.9-24.7,1.2-37.1,0.9c-3.6-0.1-7.3,0.8-10.9,1.5
		c-7.6,1.5-15.3,2.9-22.8,4.7c-5.9,1.4-11.7,2.3-17.7,2.9c-6.5,0.7-12.9,3.5-19.1,5.8c-14.2,5.3-28.4,10.7-42.6,16.3
		c-4.2,1.7-8.3,3.8-12.3,6c-6.3,3.5-12.5,7.1-18.6,10.8c-9.6,5.6-19.3,11-28.6,17c-6,3.9-11.5,8.5-17.2,13
		c-15.9,12.5-32.2,24.4-45.9,39.7c-13,14.5-24.6,29.9-35.6,45.9c-3.6,5.2-7.2,10.4-10.3,15.8c-5.6,9.8-10.9,19.8-16.2,29.8
		c-2,3.8-4.5,7.6-5.5,11.8c-2.3,9.1-6.3,17.6-9.8,26.2c-4.4,10.8-9.3,21.5-12,32.9c-1,4.2-1.2,8.5-2,12.8
		c-1.6,9.4-5.1,18.4-4.4,28.2c0.1,1-0.4,2.1-0.6,3.2c-1.8,9.6-3,19.3-3.2,29c-0.2,10.5-0.1,21-0.1,31.4c0,1.5,0,3.1,0.1,4.6
		c0.8,9.1,2.3,18.1,2.3,27.2c0,8.8,2.3,17.1,3.8,25.6c1.2,6.6,3,13.1,4.6,19.6c2.1,8.6,3.8,17.4,6.7,25.7
		c3.8,11.1,8.4,21.8,12.7,32.7c1,2.6,2,5.2,3.1,7.8c1.9,4.1,3.9,8.3,6,12.3c4.6,8.9,8.3,18.4,14.2,26.4c7.4,9.9,14.7,19.9,21.7,30.1
		c6.8,10.1,14,19.9,21,29.9c0.4,0.5,0.8,1,1.3,1.5c11.3,10.6,22.2,21.6,33.9,31.7c11.5,9.9,23.9,18.9,35.9,28.2c2,1.6,4,3.4,6.3,4.6
		c11,5.7,22,11.3,33.1,16.9c14.7,7.4,29.4,15,45.6,18.8c15.1,3.6,30.2,7.7,45.3,11.3c5.7,1.3,11.5,1.9,17.3,2.7c9,1.3,18,3,27,3.7
		C379.2,771.6,394.2,772.1,409.3,771.9z"/>
	<path class="st1" d="M759.1,382.3c-0.9,7.1-1.9,14.8-2.8,22.5c-0.2,1.9-0.3,3.9-0.1,5.9c0.2,3.2,1,6.4,1,9.6
		c0.1,5.4-0.4,10.8-0.3,16.2c0.1,5.8-1.4,11.6-2.6,17.3c-2.4,11.6-4.6,23.4-7.8,34.8c-3.1,11-7.2,21.8-11.3,32.5
		c-4,10.7-8.3,21.4-12.9,32c-6.2,14.4-13.7,28.1-23.1,40.7c-2.3,3.1-3.9,6.7-6.2,9.9c-4.8,6.7-9.7,13.4-14.8,19.9
		c-4.5,5.8-8.9,11.9-14.1,17.1c-9.5,9.6-19.4,18.8-29.2,28.1c-4.1,3.9-8.6,7.3-12.7,11.3c-8.8,8.6-19.3,14.8-29.5,21.4
		c-10.8,6.9-21.3,14.4-32.9,19.8c-12.8,5.9-25.8,11.5-38.8,16.8c-15.7,6.4-32.1,10.4-48.8,13c-12.2,1.9-24.4,3.7-36.7,4.9
		c-3.8,0.4-7.6-0.1-11.5,0.2c-14.3,1.1-28.5,4.1-42.9,2.9c-7.1-0.6-14.2-1.5-21.4-2.2c-5.8-0.6-11.7-1.1-17.5-1.7
		c-3.2-0.3-6.4-0.8-9.7-1.3c-10-1.7-20-3.6-30-5.1c-9.4-1.4-17.8-5.4-26.4-8.9c-2.4-1-4.8-2.1-7.2-3.1c-7.2-3.1-14.4-6.1-21.5-9.2
		c-20.6-9-39.3-21.3-57.5-34.4c-7.6-5.5-15.4-10.6-22.9-16.1c-6.7-4.9-12.5-10.7-18.2-16.8c-7.7-8.3-15.9-16.1-24-24.1
		c-9.3-9.2-17.8-19.1-24.4-30.5c-1.7-2.8-3.4-5.6-5.3-8.3c-13-18.6-22.4-39.2-32.4-59.5c-2.7-5.6-4-11.9-5.8-17.9
		c-3.1-10.8-6.3-21.6-9.1-32.4c-3.1-12.1-6.3-24.3-8.7-36.6c-1.3-6.6-1.4-13.4-1.6-20.1c-0.3-8.3,0.6-16.7-0.4-24.9
		c-1.1-9.4-0.8-18.7-0.8-28c0-8,1.1-16,1.5-24.1c0.9-15.3,6.3-29.6,9.5-44.3c5.6-25.5,15.4-49.6,26.5-73.1
		c9.8-20.8,22-39.9,35.8-58.2c2.9-3.8,6.2-7.3,9.2-11c3.9-4.7,7.7-9.4,11.8-13.9c3.6-4.1,7.2-8.3,11.3-11.8
		c9.7-8.1,19.7-15.8,29.5-23.7c5.1-4.1,10-8.4,15.2-12.3c7.9-5.8,15.7-11.8,24-16.9c10.2-6.3,20.7-12.1,31.2-17.7
		c4.1-2.2,8.9-3.2,13.2-5c11.9-4.8,23.2-10.8,35.6-14.2c8.6-2.3,17-5.1,25.6-6.9c7.2-1.5,14.6-2,21.9-3.1c12.3-1.8,24.6-2.5,37-2.6
		c9-0.1,18.1-0.8,27.1-1.2c8.2-0.4,16.4-0.8,24.6-1.1c8.7-0.3,17.3,1,25.7,3.1c14.3,3.5,28.4,7.6,42.7,11.3c5.4,1.4,11.1,2,16.4,3.8
		c7.8,2.6,15.5,5.7,23,8.9c9,3.9,17.4,8.8,25.8,13.8c8.2,4.9,16.9,9,25.5,13.1c8.3,3.9,16.1,8.4,23.7,13.5
		c9.2,6.2,17,13.6,24.6,21.4c7.2,7.5,14.2,15.4,21.8,22.5c9.5,8.8,16.8,19.3,25,29.1c9.7,11.5,17.3,24.4,25.8,36.7
		c8.5,12.3,15.3,25.2,20.3,39.2c4.3,12.3,10,24,14.5,36.3c4.4,12.2,6.9,25,8.9,37.8c0.8,4.9,2.2,9.7,2.9,14.6
		c1.2,8.6,3.7,16.9,3.7,25.7C757.5,372.4,758.5,377,759.1,382.3z M380.5,43.7c0-0.1,0-0.1,0-0.2c-8.3,0.5-16.5,1.1-24.8,1.3
		c-9.2,0.2-18.2,1.3-27.2,2.9c-11.3,2-22.5,4.4-33.4,7.9c-19.5,6.2-41.6,14.6-59.2,25c-3,1.8-5.8,3.9-9,5.2
		c-13.1,5.4-23.6,14.6-35.1,22.3c-4.5,3-8.5,6.8-13,9.9c-12.9,8.7-24.1,19.3-35.6,29.7c-5.8,5.2-10,12-15.5,17.7
		c-12.3,12.8-23,26.8-32,42c-8.1,13.6-15.8,27.5-22.7,41.8c-5,10.3-8.5,21.3-12.7,32c-4.8,12.3-8.1,25.1-10.4,38.1
		c-3.9,21.7-9.1,41.6-8.1,63.8c0.8,18.1-0.4,36.2,1.3,54.2c0.6,6.5,1.1,13,2.8,19.3c0.6,2.1,0.9,4.2,1.4,6.3
		c1.5,7.4,2.7,14.9,4.6,22.2c3.3,12.5,7.1,24.9,10.8,37.4c4.1,13.6,10.6,26.1,16.9,38.7c6.9,13.6,15.6,26.1,23.4,39.2
		c4.1,7,8.8,13.5,13.8,19.8c3.4,4.3,7.1,8.3,10.8,12.3c3.9,4.1,8,8,11.9,12.1c11.1,11.4,21.9,23.1,35.2,32.1
		c11.7,8,23.5,15.8,34.9,24.2c10.4,7.7,22,13.3,33.3,19.2c12.5,6.5,25.7,11.6,38.7,17c7,2.9,14.1,5.6,21.5,7.2
		c10.3,2.3,20.9,3.6,31.3,5.4c2.8,0.5,5.5,1,8.3,1.3c5.8,0.6,11.7,1.2,17.5,1.7c7.8,0.7,15.5,1.8,23.3,2.1c6,0.2,12.2-0.5,18.2-1.3
		c11.9-1.6,23.7-2.7,35.7-2.6c2.6,0,5.1-0.5,7.7-0.9c5.8-0.9,11.5-2,17.3-2.9c9.2-1.5,18.5-2.3,27.6-4.4c24.2-5.6,47-15.1,69.3-26.1
		c11.8-5.8,22.3-13.6,33.4-20.4c5.9-3.6,11.8-7.4,17.1-11.9c9-7.5,17.5-15.7,26.4-23.4c17.5-15.2,33.3-32,46.8-50.8
		c3.9-5.4,7.2-11.3,11.2-16.7c9.7-13.2,18.2-27.1,24.4-42.3c2.9-7,5.9-14,8.5-21.1c5-13.6,10.2-27.2,14.3-41.1
		c3.7-12.6,6.2-25.6,9-38.5c2-9.2,2.1-18.6,1.3-27.9c-0.5-5.5,0.3-10.8,0.6-16.1c0.4-6.7,2.2-13.4,2.1-20
		c-0.3-10.8-1.3-21.7-2.8-32.4c-1.6-11.3-3.9-22.6-6.4-33.8c-4.4-19.2-9.8-38.2-18.5-56.1c-2.1-4.3-3.5-8.9-5.4-13.2
		c-3.5-7.7-6.4-15.8-10.9-22.9c-10.4-16.3-20.7-32.7-32.9-47.8c-7.4-9.2-14.6-18.4-23.2-26.6c-6.2-5.8-12.3-11.7-17.8-18.2
		c-14.2-16.8-31.2-29.6-50.8-39.2c-8-3.9-16.2-7.5-23.8-12.1c-8.9-5.4-17.8-10.8-27.5-14.8c-7.6-3.1-14.7-7.6-23-9.1
		c-2.8-0.5-5.6-0.8-8.3-1.5c-12.5-3.4-25-6.9-37.5-10.3c-14.5-3.9-29.2-6.6-44.3-5.9C407.5,43,394,43.3,380.5,43.7z"/>
	<path class="st1" d="M53.7,405.9c-0.5-14.9,0-30,1-45c0.8-12.3,3.5-24.4,7-36.3c1.9-6.4,3.7-12.8,4.9-19.5c1-5.7,4.1-11,5.6-16.6
		c3.6-13.1,10-25,15.5-37.3c4.4-9.9,8.1-20.1,13.6-29.6c6.7-11.6,14.6-22.2,23.3-32.3c2.5-3,5.1-6,7.5-9
		c8.9-11.1,18.4-21.5,29.2-30.8c12.7-11,25.5-21.8,39.4-31.2c7.7-5.3,16-9.8,23.8-14.9c5.1-3.3,9.9-7.1,14.8-10.7
		c0.9-0.6,1.7-1.5,2.6-1.9c11.1-5,22-10.7,33.4-14.6c14.1-4.8,28.2-9.9,43.1-12.1c8.8-1.3,17.4-3.5,26.1-4.8
		c5.8-0.9,11.7-1.1,17.5-1.6c5-0.4,9.9-1,14.9-1.2c3.5-0.1,6.9,0.5,10.4,0.6c2.3,0,4.7-0.7,7-0.6c8.7,0.3,17.4,0.6,26.1,1.1
		c6.1,0.3,12.1,0.7,18.2,1.5c9.2,1.1,18.5,2.5,27.7,3.8c0.9,0.1,1.7,0.2,2.6,0.1c11-0.4,20.8,3.5,30.7,7.6c4.8,2,9.9,3.3,14.6,5.4
		c10.9,4.9,21.5,10.5,32.4,15.3c16.2,7.1,31,16.7,46.5,24.9c6.6,3.5,12.5,8.8,18.1,13.9c10.5,9.5,20.6,19.5,30.8,29.3
		c0.8,0.8,1.5,1.6,2.4,2.2c11.7,8,20.2,19.1,28.3,30.4c12.5,17.2,21.8,36.1,30.8,55.2c0.3,0.6,0.3,1.3,0.7,1.8
		c7.3,12.7,11.5,26.7,16.7,40.3c2.8,7.2,4,15,6,22.5c1.4,5.4,2.6,11,4.4,16.3c2.1,6.2,3,12.6,3.8,19.1c2.6,21.1,5.1,41.5,5,62.8
		c-0.1,20.7-2.6,41.1-8.1,61.1c-4.3,15.7-8.4,31.3-12.6,47c-0.6,2.3-1.3,4.6-2.2,6.8c-8.7,20.7-19,40.5-31.8,59
		c-11.1,16.2-23.6,31.3-36.1,46.3c-5.3,6.3-11.8,11.6-17.8,17.4c-1.6,1.5-3.4,2.8-4.9,4.3c-6.9,7.4-14.9,13.4-23.1,19.2
		c-6.4,4.6-12.6,9.3-19.1,13.7c-5,3.4-10.3,6.5-15.4,9.7c-3.7,2.3-7.3,4.8-11.1,6.9c-3.8,2.1-7.7,4-11.7,5.7
		c-17.3,7-34.4,14.3-52,20.7c-10.7,3.9-21.9,6.6-33.4,7.9c-5.1,0.6-10.2,1.6-15.4,2.2c-5.6,0.7-11.2,1.6-16.8,1.6
		c-8.5,0-16.8,1.5-25.3,2.3c-5.4,0.5-10.8-0.3-16.3-0.5c-0.9,0-1.7-0.3-2.6-0.3c-11.5-0.5-23-0.9-34.5-1.3c-3-0.1-5.8-0.6-8.8-1.7
		c-4.8-1.8-10.1-2.3-15.1-3.5c-12.4-3-24.9-5.6-37.1-9.3c-8.9-2.7-17.3-6.8-25.9-10.5c-5.4-2.3-11-4.4-15.9-7.5
		c-15.1-9.3-31.8-15.9-46.1-26.9c-8.4-6.5-17.1-12.6-24.9-19.9c-6.3-6-13.5-11.1-19.5-17.4c-7.3-7.7-13.7-16.4-20.5-24.5
		c-6.1-7.4-12.4-14.6-18.5-22c-2.2-2.7-4.6-5.3-6.4-8.3c-7.3-12.4-14.2-25-21.5-37.3c-6.7-11.3-11.5-23.4-15.7-35.7
		c-4.6-13.7-8.2-27.8-11.8-41.9c-1.9-7.5-2.6-15.3-4.1-23C55.6,435.7,54.2,420.9,53.7,405.9z M734.9,401
		c-0.5-10.6-1.1-22.1-1.7-33.6c0-0.9-0.2-1.7-0.4-2.6c-0.7-4.5-1.5-9-2.2-13.4c-1-6.2-1.3-12.6-3-18.6c-3.2-10.8-5.2-21.9-8.4-32.7
		c-3.8-12.6-8.5-25.1-13.9-37.1c-7.7-17.3-15.4-34.5-25.2-50.8c-8.6-14.3-18.4-27.7-30.5-38.9c-12.9-12-25.9-24-38.6-36.3
		c-7.4-7.1-15.2-13.7-24.3-18.6c-17.4-9.3-35-18.3-52.5-27.7c-13.2-7.1-27.2-12.4-41.3-17.5c-2-0.7-4.1-1.6-6.2-1.9
		c-15.7-2.3-31.3-4.6-47-6.6c-7.1-0.9-14.3-1.3-21.4-1.5c-7.6-0.2-15.4,0.8-22.9-0.2c-8.7-1.1-17.4-1-26.1-0.9
		c-6.1,0.1-12.2,0.8-18.2,1.7c-9,1.4-17.9,3.4-26.8,4.7c-10.3,1.5-20.4,3.6-30.3,7c-13.8,4.6-27.9,8.4-40.4,16.1
		c-5.2,3.2-10.4,6.2-15.6,9.4c-7,4.4-14,8.8-20.9,13.3c-14.5,9.6-28.5,20-42,31c-4.9,4-9.7,8.1-14.4,12.3
		c-16.3,15-29.2,32.8-42.9,50.1c-3.8,4.7-7.3,9.8-10.2,15.1c-4.4,8-8.3,16.3-12.1,24.6c-7.2,15.6-14.8,31-19.5,47.6
		c-1.1,4-2.7,7.8-3.8,11.7c-1.4,5.2-2.4,10.5-3.9,15.7c-2.9,10.4-5.8,20.8-7,31.6c-1.4,11.7-2.3,23.3-2.3,35.1c0,5-0.8,9.9-1.1,14.9
		c-0.2,2.8-0.2,5.7,0,8.5c0.3,4.8,0.8,9.5,1.2,14.3c0.2,1.7,0.4,3.4,0.7,5.1c1.5,7.6,3.1,15.3,4.6,22.9c1.1,5.7,1.8,11.6,3.2,17.2
		c3.5,13.4,7.1,26.8,11.2,40c2.5,7.8,5.5,15.6,9.3,22.9c7.4,14.1,15.4,27.8,23.3,41.6c2.7,4.7,5.5,9.4,8.8,13.7
		c8,10.3,16.3,20.4,24.6,30.5c6.3,7.7,11.9,16.1,19.6,22.7c6.1,5.2,12.3,10.4,18.2,15.8c9.8,9.1,20.4,17,31.7,23.9
		c18.4,11.1,37.6,20.8,57.2,29.7c8.1,3.6,16,7.8,24.7,9.9c7.8,1.9,15.5,3.8,23.4,5.4c11.9,2.4,23.7,5.2,35.7,6.7
		c11.2,1.4,22.6,1.3,33.9,1.6c8.9,0.2,17.8-0.3,26.7-1c14.1-1.1,28.1-2.2,42.1-4c11.2-1.5,22.3-3.7,32.9-7.3
		c16.2-5.4,31.9-12.3,47.9-18.5c7.3-2.9,14.7-5.5,21.2-9.9c24.2-16.7,49-32.4,69.9-53.5c9.2-9.3,18.3-18.7,26.8-28.6
		c10.8-12.6,20.2-26.2,29.4-40c5.4-8.1,11.3-16,15.2-25.1c2.5-5.8,5.4-11.4,8-17.1c1.6-3.6,3.5-7.1,4.6-10.8
		c3.7-12.7,7.2-25.4,10.6-38.2c1.8-6.9,4.1-13.8,4.9-20.8c0.9-7.2,2.1-14.2,4.1-21.1c0.2-0.6,0.1-1.3,0.2-2
		C733.8,426.4,734.4,414.2,734.9,401z"/>
	<path class="st1" d="M719.3,399.7c0.2,7.2,0.3,14.4,0,21.6c-0.2,5.8-1.3,11.7-1.1,17.5c0.3,7.9-1.1,15.5-2.2,23.2
		c-2,13.6-6.7,26.3-11.4,39.2c-3.8,10.4-7.8,20.6-12.3,30.7c-8,17.9-17.5,35-28.7,51.1c-6.4,9.3-13.2,18.4-20,27.4
		c-3.1,4.1-6.5,8.2-10.3,11.7c-10.5,9.8-21,19.7-32.1,28.8c-7.2,5.9-15.4,10.5-23.1,15.7c-5.8,3.9-11.5,7.8-17.3,11.7
		c-3.3,2.2-6.4,4.5-9.9,6.3c-13.8,6.9-27.6,14-41.7,20.1c-11.3,4.8-23.2,8.4-35.6,10c-7.7,1-15.3,2.6-23.1,3.6
		c-5.8,0.8-11.7,1.3-17.5,1.5c-16.1,0.6-32.3,0.6-48.3,1.5c-7.9,0.5-15.5-0.2-23.2-1.2c-9.2-1.2-18.6-1.9-27.8-2.9
		c-10.9-1.1-21.1-4.9-31.4-8.2c-3.5-1.1-7-3-10.5-3c-7.5,0-13.8-3.4-20.4-6c-11.5-4.6-22.7-10.1-33-16.9
		c-7.3-4.8-14.1-10.2-21.1-15.4c-11-8.2-22.1-16.2-32.7-24.9c-6.5-5.4-12.1-11.9-18-18.1c-3.8-3.9-7.1-8.3-11.2-11.9
		c-10.2-9.1-17.8-20.2-24.9-31.7c-5.2-8.5-9.8-17.5-15.3-25.8c-12.5-18.8-20.7-39.6-28.5-60.5c-6.8-18-7.6-35.2-11.1-53.8
		c-1.5-7.8-0.4-15.7-1.4-23.4c-1.6-12.8-1.2-25.7-0.8-38.5c0.5-12.8,1.4-25.5,4.8-38c1.9-6.9,2.4-14,4.1-21c1.7-7.1,3.7-14.2,6-21.2
		c1.7-5.4,3.9-10.6,5.9-15.9c3.2-8.8,7.5-17.1,11.9-25.3c7.7-14.1,15.1-28.3,23-42.3c2.2-3.9,5.8-7.1,8.2-10.9
		c7.8-12.5,17.9-23,28.6-33c9.6-8.9,18.8-18.2,29.1-26.2c12.3-9.6,25.6-18,38.5-26.8c5-3.4,10.4-6.4,15.5-9.6
		c12.5-8.1,26.4-12.8,40.5-17.3c16.3-5.2,33-8.8,49.5-13c5.2-1.3,10.7-2,16.1-2.2c16.5-0.7,33.1-1.2,49.7-1.4
		c5.4-0.1,10.8,1,16.2,1.5c3.4,0.3,6.9,0.9,10.3,0.9c19,0.4,37.5,3.4,55.6,9.3c4.3,1.4,8.8,2.1,13.2,3.4
		c14.3,4.5,28.2,10.1,41.5,17.1c5.9,3.1,12.1,5.8,18.2,8.7c1.2,0.6,2.4,1.1,3.5,1.8c10.5,7.3,21.6,14,31.3,22.2
		c7.8,6.6,15.5,13.3,23.3,20c4,3.4,7.5,7.3,11.1,11c1.2,1.2,2.3,2.6,3.5,3.9c7.6,7.3,13.4,16,20.3,23.8c8.9,10,15.4,21.6,23.6,32
		c0.7,0.9,1.5,1.7,1.9,2.6c6.4,13.5,14.8,26.1,19.2,40.6c2.3,7.7,5.1,15.2,8,22.7c4.6,12,6.9,24.5,8.6,37.2c1.6,12,3.7,24,4.1,36.1
		C718.5,379.6,719,389.7,719.3,399.7z M78,395.1c0.6,11.1,1,21.3,1.8,31.5c0.7,9.5,1.6,19,2.8,28.5c1.1,8.4,2.3,16.8,4.4,24.9
		c4.2,16.2,10.4,31.7,18.5,46.4c2.6,4.8,5.4,9.5,7.2,14.6c1.7,4.8,4.3,8.9,7,13.1c2.4,3.6,4.8,7.2,7.1,10.9c4,6.5,7.7,13.2,12,19.4
		c4.7,6.8,9.5,13.7,15.1,19.7c10.7,11.5,21.9,22.5,33.2,33.4c5.1,5,10.8,9.5,16.5,13.8c9.5,7.2,19.4,14,29,21.2
		c13.3,10,27.9,17.7,43.5,23.4c4.7,1.7,9.3,3.6,14.1,5c5.2,1.5,10.5,2.5,15.7,3.8c7.3,1.9,14.6,4.2,22,5.8
		c5.5,1.2,11.1,1.8,16.7,2.5c6.4,0.8,12.9,1.6,19.3,2.3c1.9,0.2,3.9,0.4,5.9,0.5c3.2,0.3,6.5,0.8,9.7,0.7c7.8-0.2,15.5-1,23.3-1.1
		c16.8-0.1,33.5-0.5,50.2-2.7c9.2-1.2,18.6-2.2,27.5-4.5c14.5-3.8,28.8-8.3,42-15.6c7-3.9,14.1-7.9,21.4-11.2
		c5.2-2.3,10-5.1,14.6-8.5c2.2-1.7,4.7-3.1,7.1-4.6c11.2-7.1,22.4-14.2,32.8-22.5c5.2-4.2,10.4-8.6,15.3-13.3
		c7.9-7.5,16.3-14.7,23.1-23.1c9.6-11.8,18.3-24.4,26.9-36.9c5.3-7.7,10.1-15.8,14.3-24.1c6.4-12.6,12.2-25.5,17.9-38.4
		c2.5-5.7,3.7-12.1,6.2-17.8c6.2-14.1,8.1-29.3,10-44.3c1.2-9.6,1.1-19.5,1.9-29.3c0.5-6.7,0.7-13.4,0.9-20.2
		c0.1-4.3,0.2-8.6,0-12.9c-0.2-4.3-0.8-8.6-1.1-13c-0.2-2,0-3.9-0.3-5.9c-1.1-9.2-2.5-18.5-3.5-27.7c-1.2-11-2.9-22-6.3-32.4
		c-6.6-20-12.7-40.1-23-58.7c-8.3-15.1-17.2-29.6-29.3-42c-1.1-1.1-2-2.3-2.9-3.6c-9.2-13-19.9-24.8-31.4-35.9
		c-5.1-5-11.6-8.7-16.4-13.9c-11.2-12-25.4-19.6-38.6-28.9c-0.5-0.4-1.1-0.6-1.7-0.9c-10.1-5-20.3-10.1-30.4-15.1
		c-14.2-7.1-29.6-11-44.6-15.9c-17.5-5.8-35.5-8-53.5-9.9c-9.9-1-20-1.2-30-1.5c-17.9-0.5-35.7,0.3-53.6,1.5
		c-1.1,0.1-2.1,0.4-3.2,0.6c-17,4.1-34.1,8.1-51.1,12.5c-13.2,3.5-26.1,8.3-38,15.2c-9,5.2-17.9,10.7-26.6,16.5
		c-7.4,4.9-14.6,10.3-21.8,15.5c-4.2,3-8.5,6-12.5,9.4c-6.8,5.8-13.4,11.8-20,17.8c-4.6,4.2-9.1,8.7-13.6,13.1c-0.6,0.6-1.4,1-2,1.6
		c-3.4,3.7-7.2,7.1-10,11.1c-7.4,10.5-14.5,21.1-21.4,31.9c-9.5,14.9-16.9,30.9-24.3,46.8c-8.1,17.3-15,35.1-18,54.1
		c-1.6,10.3-4.4,20.4-5.5,30.7C78.8,371.1,78.6,383.5,78,395.1z"/>
	<path class="st1" d="M396.5,704.2c-8.1,0-16.2,0.3-24.2-0.1c-7.1-0.4-14.2-1.9-21.3-2.3c-10.3-0.5-20.1-3.3-29.8-6.3
		c-11.6-3.5-23-7.8-34.5-11.8c-23-8.1-43.8-20-63.4-34.3c-5.8-4.2-11.7-8.4-17.7-12.3c-8.3-5.4-15.1-12.5-22-19.5
		c-8.2-8.2-16.4-16.3-24.4-24.7c-2.8-3-5.4-6.3-7.7-9.7c-6.3-9.6-12.3-19.4-18.5-29.2c-0.6-0.9-0.9-2.1-1.6-2.8
		c-9.6-9.5-14-21.7-18.1-34.1c-4.2-12.5-8.8-24.9-12.7-37.6c-2.9-9.5-5-19.2-5.6-29.3c-1.4-22.5-6-44-4.5-66.8
		c0.9-13.5,3.8-27,6.5-40.3c2.5-12.3,5.5-24.5,8.8-36.5c2.3-8.3,5.4-16.4,8.3-24.6c1.2-3.5,2.4-7,4-10.3c2-4.3,4.6-8.4,6.5-12.8
		c6.1-14.4,15.2-27,24.2-39.5c9-12.5,18.1-25.1,29.1-36c9.6-9.5,20.2-17.9,31.1-25.8c3.5-2.5,6.5-5.6,9.6-8.5
		c5.1-4.9,11.3-8.8,17.3-12.7c17.6-11.4,36.8-19.5,56.5-26.4c10.6-3.7,21.2-7.7,32.1-10.6c8.3-2.2,17-3.5,25.7-3.8
		c6.5-0.2,12.9-1.4,19.3-2.2c0.6-0.1,1.3-0.2,1.9-0.2c13.9-0.5,27.8-1.2,41.7-1.2c6.7,0,13.3,1.6,20,2.3c4.1,0.5,8.3,0.2,12.3,1.1
		c15.8,3.5,31.7,6.9,47.4,11.1c17.5,4.7,33.8,12.5,49.2,22c8.7,5.4,17.5,10.6,26.1,16c13.8,8.8,27.1,18.2,38.3,30.3
		c4,4.3,8.5,8.1,13.1,11.8c8.4,6.8,14.9,15.3,20.8,24.2c8.1,12.1,15.9,24.4,23.8,36.7c3.1,4.9,6.4,9.8,8.8,15.1
		c3.5,7.7,6.3,15.7,9.2,23.6c3,8.3,6.1,16.7,8.6,25.2c3.1,10.6,6,21.2,8.5,32c1.2,5,1.5,10.3,1.8,15.5c0.6,10.2,0.9,20.4,1.4,30.7
		c0.7,14.3-0.2,28.7-0.3,43c0,6.4-1.1,13-2.5,19.3c-2.7,12.2-5.5,24.5-9.1,36.5c-4.5,15.2-9.8,30.2-17.2,44.2
		c-6.3,11.9-12.9,23.7-20.4,34.9c-5.6,8.5-12.8,16-19.3,23.8c-5.5,6.6-10.9,13.4-16.9,19.6c-13.3,13.8-27.3,27-42.6,38.7
		c-1,0.8-2.1,1.6-3.2,2.3c-17.2,9.3-34.2,19-51.7,27.7c-11.8,5.9-24.4,10.1-37.4,13c-8.4,1.9-16.7,4.4-25.2,6.4
		c-15.3,3.5-30.7,5.9-46.4,5.5C405.7,704.1,401.1,704.2,396.5,704.2z M95.7,397.8C95.7,397.8,95.7,397.8,95.7,397.8
		c0.1,5.9-0.3,11.8,0.2,17.7c0.9,10.6,2.8,21.1,3.6,31.6c0.7,9.1,2.3,18.1,4.9,26.8c5.5,18.2,11.6,36.3,17.7,54.4
		c0.8,2.4,2.6,4.5,4,6.6c6.3,9.6,13.3,18.9,19,28.9c5.7,10.1,11.8,19.7,20,28c7.5,7.6,15.1,15.2,22.5,22.9
		c5.6,5.8,11,11.7,17.7,16.2c10.6,7.2,21.2,14.5,31.8,21.8c16.6,11.4,34.7,19.8,53.7,26.3c10.5,3.6,20.8,7.5,31.4,10.8
		c7.6,2.4,15.4,4.8,23.3,5.9c14.2,1.9,28.5,3.1,42.8,4c15.7,0.9,31.4-0.1,47-1.2c0.4,0,0.9-0.1,1.3-0.2c12.8-3.2,25.6-6.4,38.4-9.6
		c8.4-2.1,17.1-3.5,25.1-6.6c19.2-7.5,38-15.9,55.1-27.8c5.5-3.8,11.7-6.7,17.2-10.6c11.1-7.8,21.2-16.8,30.7-26.4
		c7.3-7.4,13.9-15.5,20.9-23.3c11.7-12.9,23.4-25.8,32.1-41.1c4.7-8.3,9.3-16.7,13.8-25.1c6.1-11.6,10-24,14.4-36.3
		c8-22.5,11.8-45.6,12.7-69.3c0.2-5-0.6-10.2,0.4-15c1.8-8.9,1.1-17.8,0.7-26.7c-0.6-11.5-2.5-22.9-3.5-34.3
		c-1.1-11.8-4.1-23.1-8.7-33.8c-4.1-9.6-7.1-19.5-10-29.5c-0.8-2.9-2.3-5.6-3.8-8.2c-2.8-4.9-6.3-9.5-8.6-14.6
		c-7.3-17.1-16.7-32.9-27.5-48c-4.9-6.9-10-13.7-16.2-19.6c-6.7-6.3-13.4-12.5-20.1-18.7c-0.3-0.3-0.6-0.6-1-0.9
		c-8.5-6.4-16.9-13-25.6-19.1c-5.5-3.9-11.5-7-17.3-10.4c-3.9-2.3-8-4.5-11.7-7.1c-15.6-11-32.5-19.4-50.8-24.4
		c-12-3.3-23.6-7.8-36.3-8.6c-11.4-0.8-22.6-3.7-33.9-5.6c-3.8-0.6-7.8-1.4-11.6-1.3c-11.5,0.2-23,0.8-34.6,1.3
		c-0.2,0-0.4,0-0.7,0.1c-11.4,1.7-22.7,3.4-34.1,5.1c-6,0.9-12.1,1.5-17.9,3.2c-13.1,3.9-26.1,8.2-39,12.8
		c-8.4,3-16.4,6.9-24.7,10.2c-11,4.4-21,10.4-30.2,17.9c-2.7,2.2-4.8,5.1-7.5,7.2c-6.3,5-12.7,9.9-19.4,14.5
		c-13.1,9-24.1,20.3-34.2,32.2c-12.5,14.8-23,31.1-32.6,47.9c-11.7,20.7-21.2,42.3-27.2,65.4c-2.6,9.8-5,19.7-7.1,29.6
		c-2,9.3-3.7,18.7-4.9,28.1c-0.9,6.9-1,13.8-1.4,20.8C95.6,394.3,95.7,396,95.7,397.8z"/>
	<path class="st1" d="M684.3,395c-0.6,10.1-0.6,21-1.9,31.8c-1.8,14.8-4.4,29.5-6.9,44.2c-2.9,16.8-9.5,32-17,46.9
		c-8.7,17.3-17.2,34.7-28.1,50.7c-4.9,7.2-10.1,14.3-16.1,20.5c-14.5,15-29.5,29.6-46.6,41.7C545,647.1,520.5,660,493.9,669
		c-18.4,6.3-37.4,13.3-57.2,15.9c-21.2,2.7-42.7,2.1-63.9,0.6c-27-2-54.1-7.4-79-18.3c-11.9-5.2-23.9-10.5-35.4-16.6
		c-9.2-4.8-18.1-10.5-26.6-16.4c-9.5-6.5-18.8-13.4-27.7-20.7c-5.4-4.4-10.1-9.6-14.7-14.8c-7.3-8.3-14.5-16.7-21.1-25.6
		c-25.8-34.7-44.3-74.6-53.4-116.7c-1.2-5.7-1.9-11.5-2.6-17.3c-0.7-5.8-1.3-11.7-1.5-17.5c-0.9-22.4-4.2-47.1,1.3-69.2
		c3.1-12.4,4.7-25.1,8.4-37.3c3.9-13.3,8-26.6,15.3-38.6c7.2-11.9,13.3-24.4,20.5-36.3c3.8-6.3,8.9-11.8,13.3-17.7
		c3.5-4.6,7.9-8.6,10.6-14c1.3-2.6,3.8-4.7,5.8-7c4.9-5.6,9.5-11.4,14.8-16.6c4.5-4.4,9.7-8,14.8-11.8c7.6-5.7,15.3-11.4,23.1-17
		c9.4-6.7,19-13,29.9-17.1c9.3-3.5,18.5-7.4,27.7-11.3c6.6-2.8,13.4-4.9,20.5-6c6-0.9,11.8-2.8,17.7-4c19.7-4,42.5-7.3,63.1-6.4
		c9.8,0.4,19.7-0.2,29.5,0.5c9.7,0.7,19.3,2.3,28.9,3.8c25.2,3.7,48.6,13.2,70.6,25.6c20.6,11.6,40.6,24.5,59.2,39.2
		c3.6,2.8,7.2,5.7,10.7,8.5c1,0.8,2,1.7,2.9,2.7c10.2,12.2,20.4,24.4,30.3,36.7c2.4,3,4.1,6.6,6.2,10c3.3,5.4,6.8,10.6,9.9,16.1
		c3.5,6.3,6.6,12.7,9.7,19.1c4.7,9.8,9.3,19.6,13.6,29.6c2.1,4.9,3.1,10.3,4.7,15.5c1.7,5.6,3.9,11,5.1,16.7
		c1.7,7.6,3.1,15.3,3.7,23C683.4,370.3,683.7,382.3,684.3,395z M115.2,392.7c0,13.5,0.7,27,1.5,40.5c0.3,4.9,1.2,9.9,2.2,14.7
		c1.6,8.1,3.8,16,5.3,24.1c1.8,9.7,5.2,18.8,9.5,27.5c2,4.1,4.5,8,6.4,12.1c2.6,5.7,4.2,11.9,7.1,17.5c5.2,9.8,11,19.3,16.7,28.8
		c5.3,8.8,12.4,16.2,18.9,24.1c4.9,5.8,9.6,11.8,14.7,17.4c9.1,10.1,20.2,17.8,30.9,26.1c17.6,13.5,37,23.5,57.2,32.3
		c4.2,1.8,8.3,3.8,12.6,5.3c7.9,2.8,15.9,5.8,24,7.9c7.7,2,15.9,2.3,23.5,4.4c10.1,2.8,20.6,3.1,30.8,4.5
		c19.8,2.8,39.3-0.1,59.2-1.1c5.3-0.2,10.4-0.7,15.4-2.2c10.8-3.2,21.5-6.5,32.3-9.8c23.6-7.1,46.1-16.6,66.6-30.6
		c8.8-6,17.9-11.8,25.9-18.7c11.5-10,22.5-20.7,33.1-31.7c6.6-6.9,12.8-14.3,18-22.4c8-12.5,14.8-25.6,22.1-38.5
		c6.4-11.4,11.6-23.4,16.3-35.5c6-15.5,7.4-32,10-48.2c0.8-5.1,1.2-10.3,1.8-15.5c0.8-7.3,1.8-14.6,2.1-22
		c0.9-17.2-0.6-34.4-2.8-51.4c-0.8-6.6-0.6-13.4-3.2-19.8c-1.7-4.2-2.9-8.6-4.3-12.9c-1.9-5.8-3.5-11.6-5.6-17.3
		c-2.5-7.2-6.6-13.7-9.7-20.5c-4.8-10.7-10.5-20.9-16.1-31.2c-11.5-21.1-27.4-38.7-43.5-56.1c-6.2-6.6-13.8-11.9-21.1-17.5
		c-4.6-3.5-9.8-6.3-14.7-9.5c-8.5-5.6-16.9-11.4-25.5-16.9c-20.2-12.8-42.3-21.2-65.2-27.6c-5.6-1.6-11.6-1.4-17.3-2.6
		c-11.5-2.4-23.3-3-34.9-3.3c-14.3-0.3-28.7,0.9-43,0.9c-10.9,0-21.9,0.8-32.3,3.2c-15.4,3.5-30.9,6.6-45.6,12.7
		c-16.3,6.7-32.6,13.2-47.3,23.1c-6.9,4.6-13.3,9.8-20,14.7c-3,2.2-6.4,3.9-8.9,6.5c-12.6,12.7-25,25.5-37.3,38.6
		c-9.1,9.7-17,20.5-23.7,31.9c-6.2,10.5-11.3,21.5-17.5,32c-5.9,10-9.3,21-12.8,31.9c-2.5,7.8-4,15.9-6,23.9
		C116.7,355.1,115.2,373.9,115.2,392.7z"/>
	<path class="st1" d="M387.7,666.2c-6.1,0-12.2,0.3-18.3-0.1c-9.1-0.6-18.3-0.9-27.1-2.9c-10.3-2.3-20.3-6-30.3-9.5
		c-17.7-6.2-34.3-14.8-50.8-23.4c-8.2-4.3-15.6-10.3-23.4-15.5c-9.6-6.5-18.7-13.4-26.6-22c-4.1-4.5-9-8.3-12.9-13
		c-7.2-8.7-14-17.8-21-26.7c-2.8-3.6-5.5-7.1-8.8-10.3c-2.7-2.6-4.4-6.4-6.4-9.8c-5.8-9.9-12.2-19.6-16.3-30.5
		c-4.8-12.5-9.2-25.2-11.4-38.5c-1.2-7.3-2.8-14.4-4.2-21.7c-0.7-3.6-1.6-7.2-1.9-10.9c-0.7-6.5-1.6-13-1.4-19.5
		c0.4-13.2,1.4-26.5,2.3-39.7c0.4-5.9,0.6-11.7,1.5-17.5c0.9-6.2,2.2-12.4,3.9-18.4c3.2-11.7,5.3-23.7,10.4-34.8
		c6.4-13.8,11.7-28.1,20.4-40.7c2-2.9,3.7-5.9,5.4-8.9c7.2-13.3,17.4-24.4,27.4-35.6c5.1-5.6,10-11.5,15.5-16.7
		c7.2-6.9,14.7-13.7,22.5-19.8c5.3-4.1,11.3-7.2,17.1-10.7c12.7-7.6,26-14,39.8-19.4c9.9-3.9,19.7-8,29.9-10.9
		c11.8-3.5,23.8-6.2,36.1-7.9c11.4-1.6,22.9-2.6,34.3-2.5c10,0.2,19.9,0,29.9,1c13.9,1.4,27.1,5.6,40.8,7.6
		c18.3,2.8,34.1,10.9,50.2,18.8c12.7,6.3,25.2,12.9,36.8,21c12.2,8.4,24,17.3,34.4,27.9c4,4,8.9,7.1,12.7,11.2
		c4.7,4.9,9.1,10,12.9,15.5c9.4,13.6,17.7,27.8,24.6,42.9c5.1,11.3,11.3,22.1,16.5,33.4c5.3,11.7,8.2,24.2,10.5,36.7
		c1.3,6.8,1.1,13.8,1.5,20.8c0.5,8.3,1.1,16.5,1.3,24.8c0.3,11.8-0.5,23.5-2.4,35.1c-0.8,4.7-1,9.5-1.4,14.2
		c-2.2,22.2-8.6,43.2-16.5,63.9c-6,15.7-13.5,30.6-22.5,44.8c-3.7,5.8-8.5,11-12.8,16.5c-7.3,9.3-14.6,18.4-23.2,26.6
		c-5.4,5.1-11,9.9-17.1,14.1c-4.8,3.3-9.1,7.4-13.6,11.3c-7.8,6.7-16.4,12.2-25.6,16.8c-5.8,2.9-11.4,6.3-17.3,9.2
		c-4.3,2.1-8.7,4.1-13.2,5.5c-12.9,4-25.6,8.9-38.8,12c-12.5,2.9-25.5,3.4-38.3,4.5c-6.5,0.6-13,1.2-19.4,1.7c-2,0.2-3.9,0-5.9,0
		C394.2,666.2,391,666.2,387.7,666.2z M390.4,661.8c10.2,0.1,20.5-0.4,30.6-1.6c11-1.3,22.3-0.7,33.1-3.5c11.4-3,22.7-6.9,34-10.4
		c6.2-1.9,12.5-3.7,18.5-6.2c5.8-2.4,11.3-5.5,16.9-8.4c10.7-5.5,21-11.5,30-19.6c5.2-4.6,10.8-8.8,16.2-13.2
		c4.2-3.4,8.8-6.5,12.5-10.4c9.7-10.3,19.1-20.9,28.5-31.5c2.7-3.1,5.2-6.4,7.4-9.9c10.3-16.2,18.4-33.4,24.9-51.5
		c5.4-15.1,9.7-30.5,12-46.5c2.3-15.7,4.8-31.3,5.2-47.2c0.1-4.3,0.7-8.7,0.9-13c0.1-2,0.1-3.9-0.1-5.9c-0.3-4.8-0.8-9.5-1.1-14.3
		c-0.5-7.6-0.9-15.2-1.4-22.8c-0.1-0.9-0.3-1.7-0.6-2.5c-2.7-9.1-5.3-18.3-8.3-27.3c-1.8-5.6-4.1-10.9-7.9-15.6
		c-2.7-3.3-4.6-7.4-6.2-11.4c-4.9-12.3-10.7-24.1-17.2-35.8c-8.6-15.4-19.7-28.6-31.9-41.2c-10.9-11.3-23.4-20.9-36.2-30
		c-10.4-7.4-21.5-13.9-33.1-19.5c-14.7-7.1-28.6-15.9-45.3-18.1c-3.8-0.5-7.5-2.1-11.2-3.2c-16.9-4.8-34.4-8.3-52-9.2
		c-16-0.8-31.1,2.4-46.9,3.3c-11.1,0.6-21.9,3.1-32.5,6.1c-24.9,7.1-48.9,16.5-71.1,29.9c-5.8,3.5-11.9,6.5-17.2,10.6
		c-7.1,5.4-13.6,11.6-20.3,17.5c-3.7,3.3-7.6,6.6-11,10.2c-4.2,4.4-8,9.2-11.8,14c-7.2,9-15.5,17.2-21.3,27.2
		c-6.9,11.8-14.4,23.2-20,35.8c-5.9,13.3-12,26.4-15,40.7c-2,9.5-5.5,18.7-5.8,28.6c-0.1,3.9-0.7,7.8-1.1,11.6
		c-0.8,7.3-2.2,14.6-2.3,22c-0.3,19.5-0.8,39.2,3.8,58.4c0.5,2.1,1,4.2,1.3,6.4c1.1,10.4,3.8,20.5,7.2,30.2
		c7.2,20.4,17.2,39.4,30.1,56.8c6.4,8.8,13,17.4,19.7,26c2.4,3.1,4.9,6.2,7.6,9c5.1,5.4,10.4,10.6,15.7,15.8
		c3.6,3.5,7.1,7.1,11.1,10.1c8,6,16.4,11.5,24.4,17.6c5.6,4.2,11.6,7.5,18.1,10.3c8.9,3.9,17.9,8,26.5,12.5
		c10.6,5.6,21.8,9.6,33.4,12.6c8.8,2.3,17.8,3.4,26.9,4.5C368.7,661,379.5,661.7,390.4,661.8z"/>
	<path class="st1" d="M145.9,399.8c0.6-11.1,0.5-21.4,2-31.4c1.7-11.3,4.4-22.4,7.5-33.5c3.2-11.9,7.2-23.6,11.1-35.3
		c3.3-9.9,7.6-19.3,13.6-28.1c6.5-9.5,12.5-19.4,19.1-28.9c3.3-4.8,7.5-9,11.3-13.5c2.2-2.7,4.3-5.5,6.8-7.9
		c4.2-4.1,8.5-8.1,13-11.9c9-7.5,17.2-16.2,27.7-21.7c11.3-6,22.9-11.6,34.2-17.5c9.5-4.9,19.3-8.9,29.5-12.1
		c25.3-7.9,49.4-8.9,75.7-10c7.1-0.3,14.3-0.9,21.4-1.3c9.4-0.5,18.6,1.7,27.7,3.3c14,2.4,27,7.8,39.8,13.7c3.3,1.5,7,2.4,10.3,4
		c17.1,8.1,34.1,16.4,48.9,28.5c5.7,4.7,11.3,9.6,16.8,14.5c5.2,4.6,10.7,9,15.5,14c15.2,15.4,28.3,32.5,38.1,51.9
		c5.5,10.8,10.5,21.9,16,32.8c5.2,10.4,7.8,21.6,10.1,32.8c2,9.5,2.4,19.3,4.3,28.9c1.5,7.4,0.8,14.7,1.2,22.1
		c0.6,12.1-0.2,24.3-0.1,36.4c0,3.7-0.8,7.3-1.2,11c-2.4,20.2-9.4,39.1-17.7,57.5c-8.8,19.6-21.1,37-34.1,53.9
		c-8.7,11.4-18.1,22.3-28.3,32.5c-7.3,7.3-15.7,13.1-23.8,19.4c-12,9.3-25.5,15.7-39.2,21.9c-5.1,2.3-10.3,4.6-15.4,7
		c-6.7,3.2-13.9,4.6-21.1,6c-5.5,1.1-10.9,2.9-16.3,4.1c-12.7,3-25.4,5.5-38.6,5c-5.2-0.2-10.4,0.7-15.6,0.9c-2.8,0.1-5.7,0-8.5-0.2
		c-2.6-0.2-5.2-0.5-7.8-0.8c-9.3-1-18.6-1.8-27.8-3.1c-6.6-0.9-13.3-1.9-19.8-3.5c-23.7-6.2-46.2-15.1-66.7-28.7
		c-5.4-3.6-10.8-7.4-16.5-10.6c-11.5-6.6-20.9-15.6-29.3-25.8c-5.1-6.2-10.2-12.5-15.9-18.2c-9.9-10.1-16.8-22.1-23.3-34.4
		c-3.7-7.1-7-14.5-10.8-21.5c-6.9-12.7-10.3-26.6-14.2-40.4c-2-6.9-3.9-13.7-5.7-20.6c-0.9-3.5-1.6-7.2-1.9-10.8
		C147,419.8,146.5,409.4,145.9,399.8z M399.4,643.6c10.9,0.1,21.8-0.2,32.6-1.8c11.3-1.7,22.4-4.9,33.5-7.6c6.1-1.5,12.3-2.6,18-4.9
		c25.1-10.5,49.1-23,70.2-40.8c12.6-10.6,23.7-22.4,33.7-35.3c6.2-8.1,12-16.5,18-24.8c14.4-19.7,24.1-41.6,30.8-64.9
		c2-7,3-14.4,4-21.7c1.6-12.5,3.8-24.9,1.7-37.6c-0.2-1.1,0-2.2,0.1-3.3c0.3-4.3,1.2-8.7,0.9-13c-0.6-8.9-1.8-17.7-2.7-26.5
		c-1.3-12.3-4-24.3-7.5-36.1c-3.4-11.5-9.1-22.1-13.9-33c-4.8-10.8-10.2-21.2-17-30.8c-6.5-9.2-13.4-18.2-20.5-27
		c-3.6-4.4-7.9-8.2-12.1-12c-5.1-4.7-10.7-8.9-15.7-13.7c-8.6-8.2-18.2-14.9-28.3-20.9c-13.2-7.8-26.5-15.7-41.4-20.3
		c-9.1-2.8-17.8-6.8-26.8-9.9c-10.9-3.7-22.5-4.5-33.7-6.5c-2.7-0.5-5.7-0.1-8.5,0.1c-2.8,0.2-5.5,0.9-8.3,1
		c-15.9,0.5-31.8,0.9-47.7,1.4c-0.4,0-0.9,0-1.3,0.1c-10.5,1.6-20.7,4.3-30.9,7.4c-22.8,6.9-44,17.5-64.5,29.4
		c-3.9,2.3-7.9,4.7-11.3,7.7c-10.3,9-21,17.4-30.5,27.4c-11.3,11.9-21.8,24.3-30.6,38.1c-7.1,11.2-14.4,22.3-18.6,35
		c-2.6,7.8-4.9,15.7-7.8,23.4c-7.9,21.5-12.5,43.7-12.6,66.6c-0.1,12-0.3,23.9,1.2,35.8c0.9,7.1,1.1,14.2,4.4,20.8
		c0.9,1.7,1.5,3.6,1.9,5.5c2.7,12.1,6.4,23.8,10.3,35.5c5.3,16,13.5,30.6,21.6,45.2c10.2,18.3,25.4,32.6,39,48.1
		c5.8,6.6,12.4,12.1,20.1,16.5c9,5.2,17.2,11.9,26.4,16.8c10.9,5.9,22.1,11.1,33.7,15.6c11.3,4.3,22.9,7.9,34.9,10.1
		c3,0.5,6.1,0.4,9.1,1c11.1,2.2,22.3,3.4,33.6,3.6C391.1,643.5,395.3,643.6,399.4,643.6z"/>
	<path class="st1" d="M393.2,165.6c13.3-0.2,26.8-0.4,40,1.9c12.8,2.2,25.4,6.8,37.8,10.6c19.5,5.9,37.8,14.2,54,26.7
		c10.2,7.8,20.7,15.1,30.5,23.3c7.3,6.1,14.5,12.4,20.1,20.4c4.2,6,9.7,11.2,14.2,17.1c4.1,5.3,7.9,10.9,11.2,16.7
		c9.6,16.4,15.9,34.2,20.1,52.7c1,4.6,2.8,9.1,3.9,13.7c3.1,12.2,4.6,24.6,5.4,37.2c0.6,9.4-0.2,18.6-0.5,27.9
		c-0.3,9.4-2.4,18.9-4,28.2c-1.3,7.5-2.5,15-4.6,22.2c-5.4,19.1-13.4,37.1-24.7,53.5c-3.2,4.6-5.7,9.7-8.6,14.6
		c-4.7,8.1-10.4,15.3-16.9,22.2c-9.4,9.8-19.6,18.5-30.1,27c-11.6,9.4-24.6,16.5-38.1,22.6c-12.5,5.6-25.1,10.9-37.9,15.6
		c-8.9,3.3-18.2,5.5-27.6,7.1c-27.1,4.8-54.9,5.9-82,0.8c-7.6-1.4-15.2-3.1-22.8-4.9c-2.5-0.6-5-1.5-7.4-2.5
		c-19.4-8.1-38.3-16.6-56.6-27.7c-3.3-2-6.8-3.8-10-6.1c-4.6-3.2-9.2-6.6-13.5-10.2c-9-7.6-17.9-15.4-24.9-24.9
		c-7.9-10.7-15.5-21.5-22.7-32.7c-8.7-13.6-13-28.6-19.6-43.2c-4.6-10.1-7.2-20.9-9.1-31.7c-1-5.2-1.7-10.5-2.5-15.8
		c-0.6-3.7-2.9-9.2-2.9-12.7c0.1-6.5-1.4-12.9-1-19.5c0.6-10.1,2.4-20.8,4.7-30.6c3.2-13.2,7.1-26.3,10.8-39.3
		c2-6.9,4.1-13.7,6.5-20.4c1.8-5.1,3.5-10.4,6.2-15c6.3-10.9,12.6-21.9,19.9-32.1c8-11.1,16.8-21.7,25.9-31.9
		c4.7-5.3,10.9-9.3,16.4-13.9c12.9-10.6,27.8-17.6,43-24.3c8.1-3.6,15.7-8.4,24.4-10.6c4.8-1.2,9.4-3.5,14.2-4.4
		c8.7-1.8,17.5-2.9,26.3-4.3c2.3-0.4,4.7-0.6,7-1C376.5,166.4,384.8,165.7,393.2,165.6z M397.9,170.1c-8.2,0.7-16.5,1.3-24.7,2.2
		c-4.3,0.5-8.5,1.8-12.7,2.4c-8.1,1.2-16.4,1.7-24.4,3.5c-13.4,3-26,8.1-38.4,14.2c-13.1,6.5-26.1,12.8-38,21.3
		c-7.4,5.3-14.6,11.1-20.6,17.9c-8.4,9.5-17.1,19-24.8,29c-8.6,11.2-15.7,23.5-21.9,36.2c-1,2.1-2,4.3-2.7,6.6
		c-3.2,9.4-6.4,18.8-9.4,28.3c-5.4,16.9-9.9,34-12.3,51.6c-0.6,4.3-1.6,8.7-1.2,12.9c2.2,22.3,3.4,46.5,11.8,67.6
		c3.6,9,7.8,17.8,10.8,27.2c10.7,33.1,37.4,67.7,65.9,87.5c12.1,8.4,25,15.9,38.1,22.7c13.3,6.9,28.1,13.9,42.7,17.4
		c6.5,1.6,13,3.5,19.5,4.6c9.4,1.6,18.8,3.2,28.4,3.2c12-0.1,24,0.3,35.9-1.3c5.1-0.7,10.3-1.2,15.4-2.2c29-6.1,55.5-17.8,81.9-30.8
		c10.6-5.3,19.7-12.7,28.9-20c9.7-7.7,18.3-16.8,26.5-26.1c15.5-17.5,27.7-40.7,36.8-62.1c2.4-5.7,4.1-11.8,6.1-17.8
		c0.5-1.6,0.9-3.3,1.3-5c1.7-7.4,3.2-14.8,5-22.2c2.8-11.9,3.9-24,4.2-36.1c0.8-31-6.7-61.8-16.1-91.2c-4.7-14.6-11.8-28-21.1-40.2
		c-5-6.6-11.3-12.2-16.2-18.8c-6.2-8.5-13.2-16.2-21.5-22.6c-11-8.5-21.9-17.2-33-25.5c-8.6-6.5-18.5-10.4-28.2-14.9
		c-15.2-7.2-31.4-11.3-47.7-14.7C427.5,171.8,412.8,170.4,397.9,170.1z"/>
	<path class="st1" d="M389.8,613.8c-14.7,0-29-1.6-43.8-5.5c-7.5-2-14.6-5.5-22-8c-14.5-4.9-26.5-13.1-39.8-20.2
		c-26.4-14.1-47.3-35.5-65-59.4c-19.7-26.5-32.3-61.7-34.9-94.6c-0.7-8.7-1.4-17.4-1.4-26.1c0-39.6,9.6-83,33.3-115.4
		c8.5-11.6,17-23.1,25.6-34.7c6.4-8.7,14.4-15.9,23.3-21.8c14.3-9.4,29.2-18.2,44-26.9c3.7-2.2,8-3.3,12.1-4.6
		c38.6-11.9,79.6-18.5,119.7-8.6c18.2,4.5,35.2,12.2,52.5,19.1c6.6,2.6,12.4,7.1,18.7,10.6c14.9,8.2,27.6,18.8,38.5,31.9
		c5.5,6.7,12.4,12.3,17.4,19.4c10.7,15.2,21,30.8,27.4,48.4c7.1,19.4,12,41.5,13.7,62.1c0.9,11.5,1.5,23,1.4,34.6
		c-0.1,30-9.8,61.4-24.4,87.4c-10,17.7-23,32.8-37.3,46.9c-29.2,28.8-62.7,48.6-102.2,59.7c-10.3,2.9-22.1,3.2-32.8,4.3
		C405.7,613.2,397.7,613.7,389.8,613.8z M395,609.5c8.5-0.8,20.6-1.8,32.7-2.9c3.9-0.4,7.8-0.7,11.6-1.6
		c28.2-6.1,53.8-18.4,76.8-35.7c16.6-12.5,31.5-26.7,45.3-42.3c10.4-11.7,17.8-25.2,25.5-38.6c4.8-8.4,7.7-17.4,9.8-26.8
		c2.8-12.4,7.6-24.2,8.8-37.2c1.3-14.3,0.2-28.2-1-42.2c-0.6-6.9-2.1-13.7-3.4-20.5c-1.9-10.2-3.6-20.5-6.1-30.5
		c-5.4-21.4-16.7-40-29.6-57.6c-5.5-7.5-12.8-13.6-18.6-20.9c-14.4-18.2-33.9-29.9-53.8-40.7c-10.6-5.8-22.3-9.6-33.8-13.4
		c-14.1-4.8-28.9-7.4-43.7-8.8c-15-1.5-31-3.8-45.8-0.4c-7,1.6-14,2.6-20.9,4.4c-31.7,8-61.4,22.7-86.9,43.7
		c-10.3,8.5-18.6,18.9-26.5,29.6c-5.8,7.9-11.8,15.6-17.5,23.6c-19.5,27.6-32.8,67.9-30.4,101.9c0.4,5.8,0.7,11.7,1,17.6
		c0.5,8,0.8,16.1,1.7,24.1c0.6,6,1.4,12.1,3.1,17.8c2.9,10.2,6.3,20.3,9.8,30.3c1.9,5.5,4.3,10.9,7.1,16
		c5.9,10.9,12.9,21.2,20.9,30.7c4.8,5.6,9.7,11.2,14.9,16.4c4.9,4.9,10.1,9.6,15.5,14.1c3.5,2.9,7.1,5.7,11,8.1
		c10.9,6.7,22,13.2,33,19.6c13,7.5,28.6,12,43,16.4C362.6,607.9,380,610.9,395,609.5z"/>
	<path class="st1" d="M202.2,397.1c0.2-16.5,1.7-32.4,5.9-49.5c5-20.3,13.3-38.9,24.3-56.6c22.1-35.3,57.4-62.6,96.8-75.5
		c4.9-1.6,9.8-3.5,14.6-5.4c7.9-3.1,16.3-4.1,24.6-5.5c9.1-1.6,17.4-3.5,26.8-2.8c20.7,1.5,40.9,2.1,60.8,8.4
		c21.6,6.9,40.7,18,59.1,31c2.4,1.7,4.4,4.1,6.6,6.2c11.9,11.5,24.9,23.3,35.1,36.8c10.7,14.1,17.6,30.4,24.8,46.4
		c3,6.7,4.8,13.9,5.3,21.3c1.9,25.2,6.7,51.5,3.7,77.2c-0.9,7.7-2.3,15.4-3.7,23.1c-3.3,17.5-10.5,32.8-20.5,47.4
		c-11.8,17.1-25,32.9-40.2,47.1c-18.5,17.2-40.7,32.2-65.6,38.8c-13.8,3.7-28,5.8-41.9,8.9c-15.3,3.4-33.9,0.6-49.3-1.7
		c-22.8-3.4-45.5-8-65.2-20.4c-3.3-2.1-7.2-3.3-10.3-5.6c-22.3-17.3-46.1-34.7-60.8-59.3c-15.2-25.4-29.6-54.9-30.6-85.4
		C202.2,413.3,202,405.1,202.2,397.1z M588,416.8c-1.1-21.7-1.1-43.5-5.1-64.9c-4.2-22-14-42.1-26.5-60.6
		c-4.1-6.1-8.4-12.4-13.6-17.4C526.4,258.1,509.3,243,490,231c-38.9-24.2-92.8-32.2-136.8-18.8c-9.7,3-19.4,6.2-28.9,10
		c-8,3.2-16.1,6.8-23.5,11.2c-20.9,12.4-43.3,30.7-57.5,50.4c-6.6,9.2-13,18.5-17.7,28.8c-1.6,3.6-2.7,7.4-4.3,10.9
		c-5.9,12.5-8.1,26.1-11.5,39.2c-8.1,31.1-3.3,68.4,6.3,98.7c1.3,4.1,2.3,8.4,4.1,12.3c9.9,21.7,24.2,44.9,42.4,60.7
		c7.4,6.4,15.2,12.4,22.5,18.9c12.2,10.8,29.4,21.2,45.2,25.6c15.4,4.3,31.2,6.4,47.1,8c16.1,1.7,30.7,3.6,46.7,0.2
		c8.3-1.7,16.5-3.8,24.8-5.4c26.6-5.3,48.8-18.5,69.4-35.5c17.2-14.2,32.2-31.2,44.2-50c12.4-19.5,19.3-38.3,22.9-60.9
		C586.4,428.3,587.3,421,588,416.8z"/>
	<path class="st1" d="M402.8,575.8c-23.9-0.5-45.8-3.3-66.7-10.9c-15.1-5.5-29.6-12.5-42.6-22.2c-7.3-5.4-14.9-10.6-21.8-16.5
		c-4.7-4.1-8.7-9.1-12.7-13.9c-3.4-4-6.7-8.1-9.6-12.4c-8.6-12.6-15.5-26.1-19.4-41c-1.9-7.3-4.8-14.4-7-21.6
		c-2.7-8.9-3.2-18.4-3.9-27.7c-1.6-20.4-0.3-43.2,7.3-62.4c3.7-9.3,8.1-18.3,12.5-27.2c8-15.8,18-30.1,29.7-43.6
		c8.1-9.4,17.5-16.9,26.9-24.6c12.6-10.5,29.8-16.5,45.2-21.3c16.8-5.3,34.5-9.5,52.2-10c16.6-0.5,31.9,0.1,47.6,5.7
		c18.6,6.6,37.3,13.3,54.4,23.2c29,16.8,52,42.9,64.5,74c3.9,9.6,8.6,19,10.8,29.3c8.6,39.6,6.8,87.4-13,123.6
		c-6.1,11.2-12.8,22.3-20.3,32.6c-6.4,8.7-13.7,17.1-21.9,24.1c-11.6,9.8-24.2,18.4-38.3,24.4c-8,3.4-16,6.4-24.6,8.1
		c-8.2,1.6-16.1,5-24.3,6.9C418.9,574.5,410.2,576.5,402.8,575.8z M570.1,398.3c0.3-4.3-0.7-8.8-0.9-13.1
		c-0.2-5.2-0.4-10.4-1.1-15.5c-1.6-12-5.6-22.9-9.7-34.2c-1.1-3.1-2.5-6-3.5-9.1c-14.8-42-52.6-71.4-92.5-87.8
		c-8.2-3.4-16.6-6.3-25.2-8.8c-22-6.3-43-5.1-65.4-2.1c-8.3,1.1-16.7,1.8-24.6,4.7c-7.3,2.6-14.6,5.6-21.9,8.2
		c-16.3,5.8-30,15.7-42.7,27c-6.4,5.7-11.7,12.9-17.3,19.5c-10.4,12.1-18.9,25.4-25.5,40c-0.6,1.4-1.3,2.8-2.1,4.1
		c-10.4,17.4-13.4,36.9-14.9,56.6c-0.6,8-0.5,16.1,1.1,24.1c1.5,7.4,1.9,15,3.6,22.4c1.5,6.9,4.1,13.7,6.1,20.5
		c3.3,11.3,8.1,21.9,13.6,32.3c6.1,11.5,14.1,21.5,22.6,31c10.4,11.6,23.6,19.9,37,27.7c10.8,6.4,22.3,11.9,34.3,15.8
		c17.6,5.8,35.8,8.4,54.1,9.6c11.1,0.8,22.3-0.2,32.9-3.2c14.6-4.2,29.6-7.3,43.7-13.1c31.1-12.9,56.1-38.3,73.2-66.9
		c8.2-13.7,15.7-27.5,18.9-43.3c1.2-6.1,3.5-12.1,4.2-18.3C569.2,417.4,569.4,408.3,570.1,398.3z"/>
	<path class="st1" d="M393.1,557.8c-14.5,0.5-28.7-2.1-42.4-6.1c-14.3-4.3-28.1-10.7-40.6-19.1c-12.1-8.1-22.8-18.1-32.3-29
		c-8.9-10.1-18.8-21.5-25-33.5c-4.9-9.6-10.4-18.7-12-29.5c-2.6-18.1-4.9-35.9-4.1-54.2c0.6-13.3,3.7-26.2,8.6-38.5
		c3.8-9.7,8.1-19.2,12.1-28.8c3-7.1,7.1-13.4,12.6-18.8c10-9.7,19-20.6,30.8-28.3c6.7-4.3,13.7-8,20.4-12.3c6.8-4.4,12.4-9,20.1-12
		c36.3-14.4,74-12.5,110.6,0.5c19.8,7.1,38.2,18,53.5,32.5c24.8,23.6,42.4,52.4,47.5,86.7c2.6,17.5,5.3,35.3,4.3,53.1
		c-1,17.9-7.2,35.7-16.5,51c-9.9,16.2-20.5,32-35,44.4c-6.6,5.6-14.2,10-21,15.4c-12.7,10-27.3,16-42.5,20.7
		c-7.2,2.2-14.8,3.1-22.3,4C410.9,557,402,557.2,393.1,557.8z M393,553c3.9,0,7.8-0.1,11.5-0.5c14.6-1.6,29.1-3.1,43.1-7.4
		c18.6-5.7,33.1-16.7,48.6-28c20.8-15.3,37-39.5,47.9-62.7c13-27.7,6.5-58.5,3.1-87.5c-2-16.9-8.5-32.2-15.9-47.2
		c-0.7-1.4-1.4-2.7-2.4-3.9c-6.2-7.6-12.2-15.3-18.8-22.6c-10.3-11.4-22-21.2-35.4-28.7c-28.4-15.7-59.8-24.8-92.3-21.4
		c-21.1,2.2-41.1,10.4-59.2,21.4c-9.4,5.7-18.2,12.1-27.1,18.5c-9.4,6.7-17.1,15.7-25.3,23.9c-2,2-3.7,4.4-5,6.9
		c-8.1,15.4-15.1,31.3-19.6,48.1c-3.3,12.4-6,25-5.1,37.9c0.9,12.1,2.4,24.2,4.1,36.2c0.8,5.7,1.7,11.6,4.5,16.9
		c6.3,11.9,12,23.5,20,34.4c20.5,27.9,48.3,51.4,82.6,60C365,550.3,379.4,552.9,393,553z"/>
	<path class="st1" d="M397.9,256.3c17.5,0.7,34.9,4.8,51.2,11.8c4,1.7,7.9,3.6,12,5.1c14.3,5.3,27.3,16.2,37.8,27
		c19,19.3,28.9,41.6,34.9,67.7c3,13,3,25,3.4,38.2c1.1,35.3-17.5,73-43.3,96.6c-10.4,9.5-22.4,20.9-36.2,25
		c-12.9,3.9-26,10.1-39.7,9.7c-2.7-0.1-5.4-0.6-8.2-0.7c-2.8-0.2-5.7,0-8.5,0.4c-16.5,2.2-32.3,2.2-48.3-3.3
		c-37.8-12.9-72.7-42.4-88.8-79.4c-7.1-16.2-9.6-33.9-10.3-51.5c-0.6-15.8,0.3-31.8,6.3-46.6c6.2-15.3,14.2-29.5,23-43.4
		c5.1-8,11.9-14.9,19.5-21c6.3-5,12.9-9.6,19.4-14.3c10.8-7.7,22.7-12.8,35.2-16.5C370.8,257.3,384.4,255.8,397.9,256.3z
		 M398.5,260.7c-14.9-0.1-30.2,2.8-43.9,7c-9,2.8-17.3,7-25.2,12c-13.8,8.7-27.6,17.6-37.6,30.9c-4.5,6.1-8.4,12.7-12.7,19
		c-7.9,11.8-13.3,24.9-17.5,38.4c-2.9,9.1-3.7,18.4-2.9,28.2c1,12.3,1.9,24.6,4.4,36.8c2.5,12.3,7.4,23.6,14.3,34
		c9.8,14.9,20.5,27.7,34.8,38.4c23.3,17.4,48.8,27.7,78,27.4c12.8-0.1,25.6-0.5,38.3-2.2c10.9-1.5,21.1-5.3,31-10.2
		c19.1-9.6,36.6-23.8,48.5-41.6c0.9-1.4,1.8-2.7,2.6-4.2c5.5-9.2,9.9-18.8,14.5-28.4c4.7-9.9,6.7-21,7.4-31.9
		c0.7-10.5,1.3-22.2-0.7-32.6c-2.9-14.4-5.3-28.3-11.4-41.8c-6.1-13.5-15.4-30.1-27.7-38.9c-6.5-4.7-12.4-10.3-18.9-15
		c-4.4-3.1-9.3-5.5-14.2-7.9c-4.3-2.1-8.7-3.9-13.1-5.8c-8.6-3.6-17.3-7.1-26.3-9.3C413.1,261.4,405.9,260.7,398.5,260.7z"/>
	<path class="st1" d="M269.6,400.2c0.3-28.7,9.4-60.8,30.7-81.2c8.7-8.3,15.5-18.8,25.5-25.7c9.9-6.8,21.3-10.9,32.8-14.2
		c10.2-3,20.7-5.3,31.3-5.8c9.6-0.4,19.3,1.5,28.7,3.3c12.7,2.5,25.3,6.1,36.9,11.9c20.1,10,38.2,28.2,49.3,47.5
		c4.1,7.1,8.6,14.7,11.2,22.5c2.7,8.1,3.7,17.4,4.5,25.9c1,11.6,0.9,23.2-0.6,34.7c-2.5,20.6-12.6,37.5-24.4,54.2
		c-9.4,13.3-21.4,25.1-35.6,33.2c-15.2,8.7-32.8,11.3-49.8,13.6c-20.8,2.7-42.1-0.2-61.6-8c-20.7-8.3-36.8-21.5-51.4-38
		c-10.5-11.9-18.7-26-23.3-41.2C270.9,422.9,269.5,411.6,269.6,400.2z M396.2,279.1c-14.1,0.5-27.3,4.5-40.7,8.3
		c-15.7,4.5-27.6,10.9-38.2,23.2c-5.5,6.3-11.7,12-17.6,18.1c-9,9.4-13.6,21.7-17.8,33.7c-3,8.7-4.1,17.9-4.5,27.1
		c-0.4,7.8-1.8,17.5,0,25.1c2.3,10,3.7,20.1,8.1,29.5c5.8,12.5,14.2,24.8,23.9,34.6c22.8,22.9,52.3,37.5,85,37.5
		c12.4,0,24.5-2.8,36.4-5.6c5.1-1.2,10.2-2.1,15.1-3.8c5.2-1.8,9.7-5,14.3-8c7.9-5.1,17.2-9.9,23-17.5c5.4-7.1,9.9-14.8,15.2-21.9
		c5.3-7.1,10.2-14.4,13.2-22.8c5.3-14.9,3.6-31.1,3.9-46.6c0.2-9.8,0.4-20.1-3.2-29.5c-3.8-9.8-9.7-18.9-15.3-27.8
		c-8.6-13.8-22.6-26.1-36.1-35.1c-13.6-9.2-28.1-13.8-44.1-16.9C409.8,279.4,402.9,278.9,396.2,279.1z"/>
	<path class="st1" d="M290.5,396.9c0-16.7,2.8-34,10.2-49.1c7.1-14.4,21.2-29.3,35.2-37.3c10.9-6.2,22.3-11.7,33.9-16.6
		c9.2-3.9,21.4-3.3,31.2-2.6c22.8,1.5,46.9,9.1,63.8,25.1c7.3,7,13.6,14.9,19.5,23.1c5.8,7.9,11.9,16,15,25.4c1,3.1,1.1,6.2,1.3,9.4
		c0.5,7.9,2.3,15.7,2,23.6c-0.3,8.6-1.6,17.2-3.8,25.6c-5.3,19.9-15.7,36.6-30.4,50.7c-6.4,6.1-13.3,11.9-20.8,16.7
		c-8.8,5.5-18.7,9.6-29,10.7c-10.5,1.2-21.4,4.2-32.1,3.2c-16.3-1.5-32.5-9.4-46.5-17.6c-16.8-9.9-27-25.1-37.7-41
		c-9.3-13.8-12.6-29.3-11.8-45.8C290.6,399.1,290.5,398,290.5,396.9z M498,394.8c-0.6-6.7-1.6-13.4-1.8-20.1
		c-0.2-6.2-2.4-11.9-6-16.9c-2.3-3.2-4.8-6.4-6.4-10.1c-4.6-10.7-13-18.6-20.8-27c-6.4-7-14.6-11.3-23.3-15.1
		c-11.9-5.2-24.1-8.2-37-8.9c-9.7-0.5-19-0.6-28.4,2.1c-8.4,2.5-16.6,5.9-24.4,10.1c-18,9.8-38.2,25.6-45.1,45.7
		c-1.3,3.9-2.7,7.8-4,11.7c-4.8,14.5-4.3,29.8-3.8,44.9c0.5,14.2,6.6,28.2,14.8,39.8c17.6,25.1,50,47.6,81.6,46.9
		c16.1-0.3,33.3-1.2,47.8-9.3c14.1-7.9,25.4-20,35.4-32.5c9.1-11.4,14.9-22.6,18.2-36.8C496.7,411.6,498.7,402.8,498,394.8z"/>
	<path class="st1" d="M393.2,486c-0.5,0-1,0.1-1.5,0.1c-3.4,0.1-6.8-0.3-10.1-1.1c-20.1-5.2-40.1-16.1-53.8-31.9
		c-9.8-11.3-15.3-24.3-18-38.9c-1.2-6.1-0.1-11.7,0.6-17.8c1.4-11.7-0.3-25.2,5.7-35.9c1.6-2.8,3.6-5.4,5.5-8
		c2.6-3.7,5.2-7.5,8-11.1c11.5-14.6,29.5-29.1,49-29.7c8.1-0.2,16.3-0.5,24.4-0.7c5-0.1,9.9-0.3,14.8,0.6c5.4,1,9.3,3.7,13.7,6.7
		c4.8,3.3,9.9,5.9,14.9,8.9c17.5,10.6,30,29.8,35.3,49.3c2.4,8.8,3.2,17.8,2.8,26.9c-0.2,3.9-1,7.5-1.6,11.3
		c-0.6,4-1.1,8.1-2.6,11.8c-1.1,2.7-2.8,5.2-4.5,7.6c-1.7,2.3-2.8,4.4-4,7c-3.4,7.3-8.2,14-13.8,19.7c-2.4,2.5-5,4.6-7.7,6.8
		c-4.7,3.9-9.4,8.1-15,10.7c-1.6,0.7-3.2,1.3-4.9,1.8c-4.9,1.3-9.9,1.7-14.9,2.5c-3.8,0-8.1,1.3-11.9,1.9
		C400.2,485.1,396.7,485.7,393.2,486z M479.7,399.2c-0.2-3.9-0.9-7.8-1.4-11.7c-1-7.5-1.4-15.3-4.7-22.2c-3.3-7-8.2-13.8-13.6-19.4
		c-3.4-3.5-6.7-7.1-10.5-10.2c-3.4-2.8-7.2-5-10.9-7.4c-5.5-3.6-11.1-7.1-17.2-9.6c-6.5-2.6-13.1-2.7-20-2.5
		c-4.7,0.1-9.4,0.3-14.1,0.4c-4.6,0.2-9.1,0.4-13.7,0.6c-4.1,0.2-7.1,2.6-10.8,4.4c-3.8,1.9-7.4,4.1-10.9,6.5
		c-6.9,4.9-13.1,10.8-18.3,17.4c-2.8,3.6-5.2,7.5-8.1,11.1c-4.3,5.2-6.7,11-7.2,17.7c-0.7,8.4-1.9,16.8-2.4,25.3
		c-0.3,6-0.8,12,0.4,18.2c2.5,12.7,9.9,22.5,17.5,32.4c1.6,2.1,3.2,4.2,5.2,5.8c10.9,8.6,22,16.8,35.8,20.9c9.9,3,19.5,3.7,29.5,1.7
		c5.7-1.2,11.5-2.2,17.3-2.9c8-0.9,15.2-3.6,21.6-8.3c8.7-6.4,15.8-14.3,21.2-23.6c2.4-4.1,4.4-8.5,7.3-12.2c3.4-4.5,4.8-9,6-14.4
		C479,411.3,479.9,405.3,479.7,399.2z"/>
	<path class="st1" d="M465.7,401.5c-0.3,17.3-4.6,34.5-18.9,45.8c-0.9,0.7-1.9,1.4-2.8,2.1c-3.9,2.6-7.8,5.9-12,8.1
		c-2.8,1.5-5.9,2.3-8.9,3.3c-2.9,1-5.5,2.6-8.3,3.8c-2.6,1.1-5.5,1.2-8.3,1.4c-5.9,0.3-12,1.3-17.9,0.7c-5.8-0.5-11.4-2.4-16.7-4.8
		c-9.6-4.5-18.7-10-25-18.6c-2.6-3.6-6.1-6.5-8.9-9.9c-2.8-3.5-4.9-7.7-6.5-11.9c-2-5-3.1-10.3-3.5-15.7c-0.2-2.7-0.1-5.5,0.1-8.2
		c0.2-2.5,0-4.9,0-7.4c0.4-10,4.9-19.2,10.3-27.4c6.8-10.3,15.4-18.8,25.7-25.7c13.6-9.1,28.2-11.3,44.2-8.5
		c6.3,1.1,12.1,3.6,17.9,6.3c6.1,2.9,13,5.9,18.1,10.5c5.2,4.7,8.8,10.9,12.4,16.9c3.4,5.6,4.9,12.1,6.7,18.3c0.6,2,1.5,3.9,1.8,5.9
		c0.3,2.5,0.4,5.1,0.5,7.7C465.7,396.7,465.7,399.1,465.7,401.5z M459.2,395.8c-0.1-1.4-0.2-2.8-0.2-4.2c0-3.9,0-7.5-1.5-11.3
		c-2.1-5.3-3.6-10.8-6-16c-3.8-8.5-8.8-16-17.6-20.8c-13.5-7.3-27.1-11.9-42.7-10.4c-7.1,0.7-13.7,2.7-19.8,5.8
		c-12.9,6.6-22.5,17.2-30.3,29.1c-3.6,5.4-6.9,11.6-7.5,18.6c-0.5,5.8-1.2,11.7-0.8,17.5c0.6,7.8,1.7,15.6,6.5,22.2
		c3.1,4.2,7.1,7.7,9.9,12.1c6,9.2,14.6,14.7,24.2,19.1c4.1,1.9,8.4,3.2,12.9,4.1c5.4,1.1,10.3-0.7,15.5-0.5
		c3.6,0.1,7.3-0.9,10.8-1.8c11.1-2.8,22.3-8.4,31-15.8c11.6-10,18-24.3,16.4-39.6C459.8,401.2,459.5,398.5,459.2,395.8z"/>
	<path class="st1" d="M394.8,347.1c11.4-0.2,24.6,3.4,32.6,12.1c1.9,2.1,3.5,4.5,5.1,6.8c1.7,2.6,3.8,4.7,5.9,6.9
		c11.1,11.7,10.5,31.1,4.1,45c-3,6.6-6.9,12.9-12.3,17.8c-3.1,2.8-6.6,5.3-10.3,7.5c-3.4,2-7,4.3-10.7,5.6
		c-4.6,1.6-9.2,0.4-13.8-0.6c-7.5-1.6-15-4.2-22.4-6.4c-19.8-6-28.4-30.3-27.4-49.2c0.2-3.9,0.8-7.8,1.7-11.6
		c3.1-14.1,12.4-22.5,24.8-28.3c1-0.5,2.1-0.7,3-1.3c5.4-3.3,12.4-4.1,18.5-4.3C394,347.1,394.4,347.1,394.8,347.1z M396,351.4
		c-3.2,0.3-6.8-0.2-9.6,1.1c-6.5,2.9-13.2,6-18.9,10.1c-5.7,4.1-11.4,9-13.3,16.5c-2.5,10.1-4.7,20.1-1.7,30.6
		c3.9,13.6,10.1,25,25.5,28.1c0.8,0.2,1.6,0.7,2.4,0.9c7.6,2.2,15.7,5.6,23.9,5.2c9.3-0.4,15.6-6.6,22.4-12.2
		c9.8-8.1,14.4-19.4,15.5-32c0.7-8-2.2-15.3-5.8-22.4c-0.4-0.7-1.1-1.3-1.6-2c-2.6-3.1-5.9-5.9-7.8-9.4c-2.6-4.8-6.4-7.6-10.9-9.8
		C409.8,353.1,403.1,351.1,396,351.4z"/>
</g>
</svg>
