<svg xmlns="http://www.w3.org/2000/svg" viewBox="0 0 63.87 78.61"><defs><style>.cls-1{fill:#171d18;}</style></defs><g id="Layer_2" data-name="Layer 2"><g id="Layer_1-2" data-name="Layer 1"><polygon class="cls-1" points="34.39 44.22 54.04 44.22 54.04 49.13 44.22 49.13 44.22 68.78 39.3 68.78 39.3 78.61 54.04 78.61 54.04 58.96 63.87 58.96 63.87 34.4 44.22 34.4 44.22 29.48 54.04 29.48 54.04 9.84 58.95 9.84 58.95 0 44.22 0 44.22 19.66 34.39 19.66 34.39 44.22"/><polygon class="cls-1" points="29.48 44.22 9.82 44.22 9.82 49.13 19.65 49.13 19.65 68.78 24.56 68.78 24.56 78.61 9.82 78.61 9.82 58.96 0 58.96 0 34.4 19.65 34.4 19.65 29.48 9.82 29.48 9.82 9.84 4.91 9.84 4.91 0 19.65 0 19.65 19.66 29.48 19.66 29.48 44.22"/></g></g></svg>