<?xml version="1.0" encoding="utf-8"?>
<!-- Generator: Adobe Illustrator 25.4.1, SVG Export Plug-In . SVG Version: 6.00 Build 0)  -->
<svg version="1.1" id="Capa_1" xmlns="http://www.w3.org/2000/svg" xmlns:xlink="http://www.w3.org/1999/xlink" x="0px" y="0px"
	 viewBox="0 0 39.6 28.9" style="enable-background:new 0 0 39.6 28.9;" xml:space="preserve">
<style type="text/css">
	.st0{opacity:0.25;}
	.st1{fill:#D6D6D6;}
</style>
<g>
	<path d="M18.7,12.6c-0.1-0.5-0.3-1-0.4-1.6c-0.3-0.9-0.6-1.9-0.9-2.8c-0.3-0.8-0.6-1.6-1-2.4C16.3,5.6,16,5.4,16.2,5
		c0.1-0.3,0.5-0.3,0.7-0.3c0.3-0.1,0.7,0,1,0c0.4,0,0.9,0,1.3,0c0.5,0,1.1,0,1.6,0c0.5,0,1-0.1,1.6-0.1c0.4,0,0.8,0.1,0.7,0.5
		c0,0.2-0.1,0.3-0.1,0.5c-0.2,0.5-0.5,0.8-0.7,1.3c-0.2,0.5-0.4,1-0.5,1.5c-0.3,1-0.5,2.1-0.7,3.1c-0.3,1.5-0.3,3.1-0.3,4.6
		c0,0.9,0,1.7,0,2.6c0,0.9,0,1.7-0.1,2.6c0,0.4,0,0.9,0,1.3c0,0.4,0,0.8,0,1.2c0,0.1,0,0.1,0,0.2c0,0.1-0.1,0.1-0.1,0.1
		c-0.1,0-0.2,0-0.3,0c-0.2,0-0.3,0-0.5,0c-0.1,0-0.3,0-0.3-0.1c-0.1-0.1-0.1-0.3-0.1-0.4c0-0.3,0-0.7,0-1c0-0.4,0-0.7,0-1.1
		c0-1.5,0.1-2.9,0-4.4C19.3,15.8,19,14.2,18.7,12.6z"/>
	<g>
		<path d="M3.7,11.7C3.6,11,3.4,10.2,3.2,9.5C2.8,8.1,2.3,6.7,1.8,5.4C1.3,4.2,0.9,3,0.4,1.8C0.2,1.4-0.2,1.1,0.1,0.6
			c0.2-0.4,0.7-0.4,1.1-0.5c0.5-0.1,1,0,1.5,0c0.6,0,1.3,0,1.9,0c0.8,0,1.6,0.1,2.4,0C7.8,0.1,8.5,0,9.3,0c0.5,0,1.1,0.1,1.1,0.7
			c0,0.3-0.1,0.5-0.2,0.7c-0.3,0.7-0.8,1.2-1,2C8.9,4.2,8.6,4.9,8.4,5.7c-0.4,1.5-0.8,3-1.1,4.6c-0.4,2.2-0.4,4.5-0.4,6.8
			c0,1.3,0,2.6,0,3.8c0,1.3-0.1,2.6-0.1,3.8c0,0.6,0,1.3-0.1,1.9c0,0.6,0,1.2,0,1.8c0,0.1,0,0.2,0,0.3c0,0.1-0.1,0.2-0.2,0.2
			c-0.1,0-0.3,0-0.4,0c-0.3,0-0.5,0-0.8,0c-0.1,0-0.4,0-0.5-0.1c-0.1-0.1-0.1-0.4-0.1-0.5c0-0.5,0-1,0-1.5c0-0.5,0-1,0-1.6
			c0-2.2,0.1-4.3,0-6.5C4.7,16.4,4.3,14,3.7,11.7z"/>
		<path d="M32.9,11.7c-0.2-0.8-0.4-1.5-0.6-2.3C32,8.1,31.5,6.7,31,5.4c-0.5-1.2-0.9-2.4-1.4-3.5c-0.2-0.4-0.5-0.7-0.3-1.2
			c0.2-0.4,0.7-0.4,1.1-0.5c0.5-0.1,1,0,1.5,0c0.6,0,1.3,0,1.9,0c0.8,0,1.6,0.1,2.4,0C37,0.1,37.7,0,38.5,0c0.5,0,1.1,0.1,1.1,0.7
			c0,0.3-0.1,0.5-0.2,0.7c-0.3,0.7-0.8,1.2-1,2c-0.3,0.7-0.5,1.5-0.8,2.3c-0.4,1.5-0.8,3-1.1,4.6c-0.4,2.2-0.4,4.5-0.4,6.8
			c0,1.3,0,2.6,0,3.8c0,1.3-0.1,2.6-0.1,3.8c0,0.6,0,1.3-0.1,1.9c0,0.6,0,1.2,0,1.8c0,0.1,0,0.2,0,0.3c0,0.1-0.1,0.2-0.2,0.2
			c-0.1,0-0.3,0-0.4,0c-0.3,0-0.5,0-0.8,0c-0.1,0-0.4,0-0.5-0.1C34,28.6,34,28.4,34,28.2c0-0.5,0-1,0-1.5c0-0.5,0-1,0-1.6
			c0-2.2,0.1-4.3,0-6.5C33.9,16.4,33.5,14,32.9,11.7z"/>
	</g>
</g>
</svg>
