<svg xmlns="http://www.w3.org/2000/svg" viewBox="0 0 532.9 543.53"><g id="Layer_2" data-name="Layer 2"><g id="Layer_1-2" data-name="Layer 1"><path d="M319.74,397.73c-.43,10.87,2.35,21.42,3.35,32.15,1.25,13.39,1.84,26.85,3.49,40.19,1.82,14.68,1.36,29.56,4.05,44.14.36,2,1.2,3.83,1.61,5.79a3,3,0,0,1-1.58,3.4,3.56,3.56,0,0,1-4.58-.75,12,12,0,0,1-2.07-3.42c-6.13-14.57-12.91-28.82-17.85-43.93-4.07-12.47-6.44-25.43-11.37-37.62-2.64-6.54-5.05-13.17-7.59-19.75-3.26-8.48-6.56-16.94-9.82-25.43-1.65-4.32-.34-6.51,3.95-6.65,1.69-.06,3.37,0,5.06,0,8.38,0,15.76-2.35,22.07-8.25,4.05-3.78,8.45-2.17,9.72,3.21A66,66,0,0,1,319.74,397.73Z"/><path d="M385.1,298.54c.62.43,1.44.94,2.19,1.53,6.56,5.18,13.25,10.22,19.63,15.61,8.77,7.41,48.85,34.57,59.24,42,4.91,3.53,10.16,6.58,15.31,9.76s10.4,6.22,15.56,9.41A25.53,25.53,0,0,1,501,380c1.84,1.71,2,3.69.8,5.34-1.39,1.87-2.89.87-4.47.4-17.14-5.1-33.36-12.45-49.66-19.7-13.22-5.88-26.72-11.11-40.07-16.71-7.13-3-14.17-6.23-21.3-9.25-4.65-2-9.18-4.26-14.28-5-2.4-.34-3.3-2.1-3.08-4.39s.33-4.63,2.06-6.61c4.73-5.42,8.33-11.36,8.41-18.95,0-2.42,1.81-4.3,3.54-5.94C383.33,298.78,384.15,298.8,385.1,298.54Z"/><path d="M355.6,344.67c3.32.14,5.93.61,7.71,3.91,3.82,7.09,7.29,14.34,11.67,21.16,6.53,10.16,12.62,20.66,18.15,31.4,4,7.79,8.27,15.36,13,22.74,1.42,2.24,2.2,4.88,3.35,7.3,1.6,3.33,2.82,7,5,9.86,4.16,5.46,5.61,12.21,9.23,17.89a2.94,2.94,0,0,1-.69,3.68c-1.46,1.46-3.08,1.17-4.52.07-1.86-1.43-3.6-3-5.35-4.58a415.68,415.68,0,0,1-31.48-31.35c-3.62-4-6.5-8.78-10.58-12.18-11.94-9.93-21.73-21.95-32.74-32.76-3.11-3.06-6.5-5.84-9.6-8.91a4.2,4.2,0,0,1,.64-6.82,58.73,58.73,0,0,1,6.29-3.17c7.13-3.39,13.43-7.65,16.47-15.42C352.76,345.87,353.78,344.55,355.6,344.67Z"/><path d="M293.71,264.09c.05-12.48-2.71-24.81-1.9-37.33a14.14,14.14,0,0,0-.52-4c-1.17-5-1.21-10.05-1.44-15.11-.18-4-.51-8.09-.92-12.13-.94-9-2.15-18.07-2.94-27.13-1.05-12.09-1.8-24.21-2.71-36.32-.1-1.34-.42-2.67-.54-4-1-11.42-2.63-22.84-2.89-34.28-.42-18.92-3-37.73-2.31-53,0-11.81-.1-19.92,0-28,.07-3.8-.33-7.4-2.21-10.76C274.67.72,273.6-.29,272.2.08a6.27,6.27,0,0,0-3.26,2.09c-2.07,2.74-12.39,45.11-17.06,62.12-5.79,21.08-11.23,42.25-16.85,63.38a7.62,7.62,0,0,1-1.25,2.71c-.55.72-1.39,1.61-2.44.59a51.37,51.37,0,0,1-5-5c-3.13-4-5.73-8.38-9.13-12.07a400.87,400.87,0,0,1-29.88-36.94c-3.54-4.91-6.2-10.49-10-15.17-9.53-11.8-19.32-23.39-27.65-36.11-1.1-1.67-2.25-3.48-4.82-2.57s-3.36,2.55-2.71,5.65a47.87,47.87,0,0,0,1.38,4.85c1.89,5.75,3.55,11.59,5.78,17.21,7.44,18.78,12.61,38.35,20.1,57.13,5.35,13.42,8.66,27.6,14.31,40.95a1.31,1.31,0,0,1,0,1c-.28.5-.87,1.37-1.08,1.3-2.57-.83-5.43-1.32-7.56-2.82-9.38-6.62-19.73-11.52-29.64-17.2-15.2-8.72-31.31-15.81-45.94-25.59a9,9,0,0,0-1.82-.87c-6.67-2.59-12.53-6.59-18.44-10.51-2.53-1.68-5.15-3.21-7.79-4.72a16.63,16.63,0,0,0-2.84-1.07c-1.89-.65-3.3.34-4.5,1.53a3.14,3.14,0,0,0-.49,3.77,60.27,60.27,0,0,0,4.76,7.77c4.68,6.16,9.21,12.51,14.46,18.16,10.34,11.14,18.9,23.68,28.65,35.27,8,9.56,15.41,19.66,24.42,28.39,2.64,2.56,5.19,5.36,6.58,8.91.2.52.27,1.42,0,1.7a2.41,2.41,0,0,1-1.86.51,38,38,0,0,1-5.88-1.35c-12.73-4.34-25.25-9.35-38.55-11.87a29.22,29.22,0,0,1-3.93-1q-17.25-5.8-34.49-11.67c-6.71-2.28-13.36-4.74-20.12-6.89a64.43,64.43,0,0,0-8.88-1.83,3.47,3.47,0,0,0-3.54,1.5,3.55,3.55,0,0,0,.29,3.83,44.58,44.58,0,0,0,10.24,11.18C48.3,186.08,61,195.55,73.6,205.13c4.55,3.46,8.81,7.41,13.68,10.32,11.34,6.77,21,15.87,32,23a2.46,2.46,0,0,1,.7,1.77c0,.21-.89.64-1.39.67-7.42.35-14.92.06-22.24,1.09-14,2-28.14,2.83-42.24,3.8-3.36.23-6.9-.64-10.11.1-7.31,1.7-14.69,1.5-22.07,1.87a58.15,58.15,0,0,0-18.74,4c-1.6.64-3.21,1.55-3.2,3.49,0,2.3,1.63,3.57,3.65,4.31a46.49,46.49,0,0,0,4.8,1.59c8.76,2.12,17.39,4.76,26.24,6.55,33.22,6.72,66.66,12.55,100,18.6a2.1,2.1,0,0,1,1.47.7c.6.89-.37,2-1.25,2.61a195.69,195.69,0,0,1-30,17.23c-10.38,4.87-20.36,10.66-31,14.94-14.37,5.79-28.54,12-42.69,18.27-3.08,1.37-6.18,2.71-9.2,4.2a10.2,10.2,0,0,0-3.22,2.36,4.57,4.57,0,0,0-.6,4.78,3.22,3.22,0,0,0,3.22,2c3.35-.2,6.69-.63,10-1.08,18.36-2.5,36.71-5.07,55.07-7.55,7.35-1,14.75-1.63,22.07-2.76,8-1.24,15.92-2.93,23.9-4.26a50.23,50.23,0,0,1,7.06-.28,2.72,2.72,0,0,1,.95.21,4.08,4.08,0,0,1-.43,1.91,47.28,47.28,0,0,1-3.47,3.61c-7.91,7.78-16.65,14.69-23.94,23.11-2.2,2.55-4,5.48-6.53,7.69-8.38,7.41-15.37,16.06-22.53,24.57-4.56,5.42-9.15,10.82-14,16s-10,10.05-14.93,15.08A15.34,15.34,0,0,0,52.85,432c-1.33,2-1.43,4.63-.24,5.61a5.13,5.13,0,0,0,5.71.5,19.2,19.2,0,0,0,4.15-2.81c6.71-5.55,16-8.45,23.49-12.84,9.66-5.64,19.91-10.19,29.82-15.35,19.1-10,38.55-19.27,57.85-28.84a5.09,5.09,0,0,1,1.85-.71,3.74,3.74,0,0,1,1.75.64.88.88,0,0,1,.2.8,29.5,29.5,0,0,1-1.87,4.7,409.93,409.93,0,0,0-19,38c-.13.31-.24.63-.39.93-9.43,18.66-18.36,37.55-26.54,56.78-1.84,4.33.13,8.71,4.67,10.62a2.61,2.61,0,0,0,2.83-.28,28.24,28.24,0,0,0,3.23-2.45c11.61-12.17,23.77-23.85,34.44-36.89,3-3.67,6.22-7.09,9.38-10.6,9.91-11,20.53-21.39,29.41-33.3a34,34,0,0,1,4.18-4.39c1.87-1.74,3.42-1.14,4.29,1.56a12.6,12.6,0,0,1,.66,1.9c1.44,9.33,3.1,18.62,4.22,28,1.92,16.07,4.71,32,7.65,47.89,1.83,9.94,3.41,19.93,5.26,29.87q2.49,13.41,5.35,26.75c1.29,6,2.38,6.47,8.16,4.48,3.71-1.28,4.45-2,4.37-5.42a113.43,113.43,0,0,1,.11-14.16c3.88-39.08,2.32-78.43,5.26-117.57.76-10.11,0-20.25,1.24-30.36a449,449,0,0,0,3.33-50.41c.16-13.47,1-26.94,1.55-40.4.13-3.2.95-4,4.24-4.35,5.7-.52,11.33-1.73,17.13-1.51,3.23.12,5.16-2.26,4.27-5.21A30.33,30.33,0,0,1,293.71,264.09Z"/><path d="M531,270.91a19.81,19.81,0,0,0-8.49-3c-5-.73-10-1.33-15-2.09-8.65-1.31-17.31-2.59-25.93-4.09-4.62-.81-9.13-2.37-13.77-3.08-17.34-2.64-34.73-5-52.08-7.63-6.32-1-12.78-1.55-18.51-4.77-2.08-1.17-3.79-.81-5.6.44-3,2.07-4.69,4.65-4.24,8.52a67.22,67.22,0,0,1-1.16,23.1c-.88,3.75-.26,4.88,3.25,6a17.69,17.69,0,0,0,9.89.64,104.18,104.18,0,0,1,20.05-2.64c9.05-.31,18.09-.75,27.14-1.08s18.21-.67,27.33-.81c1.68,0,3.36-.27,5-.39l33.32-2.25V278c4.06,0,8.11.07,12.16,0a28.44,28.44,0,0,0,6-.76,3.36,3.36,0,0,0,2.49-2.87A3.56,3.56,0,0,0,531,270.91Z"/><path d="M387.71,227.12a12,12,0,0,0,5.43-2.41,81,81,0,0,1,9.27-6.1c7.71-4.17,15.55-8.12,23.37-12.09,1.8-.91,3.74-1.53,5.61-2.3,10.57-4.35,21.27-8.4,31.67-13.13,11.34-5.16,22.36-11,33.6-16.39,2.53-1.22,4.32-3.21,6.36-4.94a3.23,3.23,0,0,0,1-2.64,3.5,3.5,0,0,0-2.76-2.65c-3.51-.74-6.74.54-9.79,1.82a101.16,101.16,0,0,1-23.33,6.16,35.68,35.68,0,0,0-4.88,1.16,247.16,247.16,0,0,1-34.31,8.23c-5.67.89-11.27,1.95-16.88,3.15-8.55,1.83-38.3,9.57-38.88,9.71-3.23.8-2.27,3-1.25,4.58a40.44,40.44,0,0,1,5,9.81c1.3,4.16,3,8.1,3.14,12.65C380.27,226.61,382.73,227.89,387.71,227.12Z"/><path d="M391.71,142.08c5.71-6.19,11.59-12.24,17.2-18.52s11.33-12.53,16.37-19.27c3-4,5.92-8.08,9.27-11.86a42.9,42.9,0,0,0,5.53-8.37c1.12-2.11-1-4.82-3.52-4.92-2.31-.41-3.71,1-5.23,2.42-8.58,8.06-55.72,45.28-67.47,54.16-7.48,5.66-14.78,11.61-22.5,17a6.1,6.1,0,0,0-.22,9.59,6.4,6.4,0,0,0,1.68,1.12c5.95,2.43,9.46,7.38,12.88,12.41.76,1.12,1.33,2.36,2.16,3.41a4.21,4.21,0,0,0,6.26.28,20.55,20.55,0,0,0,1.94-2.32Q377,162,387.89,146.8A52.5,52.5,0,0,1,391.71,142.08Z"/><path d="M304.29,142.45a16.5,16.5,0,0,1,11.29,3.64c2.1,1.6,4.61,2.67,6.78,4.2,1.7,1.2,3.06.88,4.54-.24,2.43-1.83,4.79-3.59,5.47-6.94,3.13-15.18,8.67-29.65,13.35-44.35,4.39-13.76,9.42-27.31,14.22-40.93,2.79-7.91,5.72-15.78,8.51-23.7.71-2-.4-3.53-2.86-4.5a3.14,3.14,0,0,0-4.28,1.4c-1.56,2.6-3,5.27-4.51,7.92-6.26,11.21-13,22.08-21.2,32-1.28,1.55-2.28,3.32-3.45,5-7.21,10.15-13.33,21-21.51,30.55a114.58,114.58,0,0,0-10.83,15.88c-2.4,4-4.07,8.49-6,12.77a14.49,14.49,0,0,0-.58,2.06,11.42,11.42,0,0,0,1.7,2.29A12.85,12.85,0,0,0,304.29,142.45Z"/></g></g></svg>