<svg xmlns="http://www.w3.org/2000/svg" viewBox="0 0 776.84 140.82">
	<style>
		path {
		fill: #fff;
		}
	</style>
	<g id="Layer_2" data-name="Layer 2">
		<g id="Layer_1-2" data-name="Layer 1">
			<path
				d="M200,41.24c-1.81,0-3.62.12-5.42.19s-3.72-.06-5.58,0c-1.52,0-3.05,0-4.57,0a19.41,19.41,0,0,0-3.58.11c-.93.17-2,.24-2.55,1.2s.24,1.88.68,2.81c1.28,2.67,2.21,5.55,3.29,8.31a95.81,95.81,0,0,1,3.26,9.64q.74,2.68,1.37,5.4a88.21,88.21,0,0,1,2.39,16.37c.21,5.08,0,41.7,0,46.78,0,1.21,0,2.43,0,3.65s0,2.36.06,3.55a2.43,2.43,0,0,0,.21,1.28c.2.32.77.28,1.1.28.59,0,1.18,0,1.78,0a6.32,6.32,0,0,0,.87,0,.6.6,0,0,0,.4-.43,1.68,1.68,0,0,0,.07-.59c0-1.38,0-2.76.08-4.15s.07-3,.12-4.5c.09-3,.16-37.58.21-40.6s.09-6,.11-9a96.78,96.78,0,0,1,1-16,93.32,93.32,0,0,1,2.49-10.83q.79-2.7,1.81-5.33c.64-1.67,1.69-3,2.47-4.6a4.12,4.12,0,0,0,.5-1.69C202.58,41.42,201.21,41.24,200,41.24Z" />
			<path
				d="M240.17,41.24c-1.81,0-3.62.12-5.43.19s-3.71-.06-5.57,0c-1.53,0-3,0-4.57,0a19.41,19.41,0,0,0-3.58.11c-.94.17-2.06.24-2.55,1.2s.23,1.88.68,2.81c1.27,2.67,2.21,5.55,3.29,8.31a95.81,95.81,0,0,1,3.26,9.64c.48,1.79,1,3.59,1.36,5.4a88.23,88.23,0,0,1,2.4,16.37c.21,5.08-.05,41.7,0,46.78,0,1.21,0,2.43,0,3.65s0,2.36.05,3.55a2.54,2.54,0,0,0,.22,1.28c.2.32.77.28,1.09.28.6,0,1.19,0,1.78,0a6.47,6.47,0,0,0,.88,0,.6.6,0,0,0,.4-.43,1.94,1.94,0,0,0,.06-.59c0-1.38,0-2.76.08-4.15s.09-3,.13-4.5c.09-3,.16-37.58.21-40.6s.09-6,.11-9a96.78,96.78,0,0,1,1-16A95.39,95.39,0,0,1,238,54.59c.54-1.8,1.14-3.58,1.82-5.33s1.69-3,2.47-4.6a4.12,4.12,0,0,0,.5-1.69C242.78,41.42,241.4,41.24,240.17,41.24Z" />
			<path
				d="M280.37,41.24c-1.81,0-3.63.12-5.43.19s-3.71-.06-5.58,0c-1.52,0-3.05,0-4.56,0a19.54,19.54,0,0,0-3.59.11c-.93.17-2,.24-2.54,1.2s.23,1.88.67,2.81c1.28,2.67,2.21,5.55,3.29,8.31a95.87,95.87,0,0,1,3.27,9.64c.48,1.79.94,3.59,1.36,5.4a88.23,88.23,0,0,1,2.4,16.37c.21,5.08-.05,41.7,0,46.78,0,1.21,0,2.43,0,3.65s.05,2.36.06,3.55a2.54,2.54,0,0,0,.22,1.28c.2.32.76.28,1.09.28.59,0,1.19,0,1.78,0a6.32,6.32,0,0,0,.87,0,.61.61,0,0,0,.41-.43,1.94,1.94,0,0,0,.06-.59c0-1.38.05-2.76.08-4.15s.08-3,.12-4.5c.09-3,.17-37.58.22-40.6s.08-6,.1-9a97.87,97.87,0,0,1,1-16,95.43,95.43,0,0,1,2.49-10.83q.81-2.7,1.81-5.33c.65-1.67,1.7-3,2.47-4.6A4,4,0,0,0,283,43C283,41.42,281.6,41.24,280.37,41.24Z" />
			<path
				d="M270.23,13.26c1.22,0,2.44,0,3.66,0s2.35,0,3.55-.06a2.45,2.45,0,0,0,1.28-.21c.32-.2.27-.77.28-1.1,0-.59,0-1.18,0-1.78a8.42,8.42,0,0,0,0-.87.6.6,0,0,0-.43-.4,1.71,1.71,0,0,0-.6-.07c-1.38,0-2.76,0-4.14-.08l-4.51-.12c-3-.09-37.58-.16-40.59-.21s-6-.09-9.06-.11a96.73,96.73,0,0,1-16-1,93.32,93.32,0,0,1-10.83-2.49Q190.08,4,187.45,3c-1.66-.64-3-1.69-4.59-2.47a4.12,4.12,0,0,0-1.7-.5c-1.55,0-1.72,1.36-1.73,2.59,0,1.81.13,3.62.2,5.42s-.06,3.72,0,5.58c0,1.52,0,3.05,0,4.57a18.57,18.57,0,0,0,.11,3.58c.16.93.24,2.05,1.19,2.55s1.89-.24,2.82-.68c2.67-1.28,5.54-2.21,8.3-3.29a96,96,0,0,1,9.65-3.26c1.78-.49,3.59-.95,5.39-1.37a89.29,89.29,0,0,1,16.38-2.39C228.54,13.09,265.16,13.34,270.23,13.26Z" />
			<path
				d="M515.78,41.24c-1.81,0-3.62.12-5.42.19s-3.72-.06-5.58,0c-1.52,0-3,0-4.57,0a19.41,19.41,0,0,0-3.58.11c-.93.17-2.05.24-2.55,1.2s.24,1.88.68,2.81c1.28,2.67,2.21,5.55,3.29,8.31a95.81,95.81,0,0,1,3.26,9.64q.74,2.68,1.37,5.4a89.06,89.06,0,0,1,2.39,16.37c.21,5.08,0,41.7,0,46.78,0,1.21,0,2.43,0,3.65s0,2.36.06,3.55a2.43,2.43,0,0,0,.21,1.28c.2.32.77.28,1.1.28.59,0,1.18,0,1.78,0a6.32,6.32,0,0,0,.87,0,.6.6,0,0,0,.4-.43,1.68,1.68,0,0,0,.07-.59c0-1.38,0-2.76.08-4.15s.07-3,.12-4.5c.09-3,.16-37.58.21-40.6s.09-6,.11-9a96.78,96.78,0,0,1,1-16,93.32,93.32,0,0,1,2.49-10.83q.79-2.7,1.81-5.33c.64-1.67,1.69-3,2.47-4.6a4.12,4.12,0,0,0,.5-1.69C518.39,41.42,517,41.24,515.78,41.24Z" />
			<path
				d="M556,41.24c-1.81,0-3.62.12-5.43.19s-3.71-.06-5.57,0c-1.53,0-3.05,0-4.57,0a19.41,19.41,0,0,0-3.58.11c-.94.17-2.06.24-2.55,1.2s.23,1.88.68,2.81c1.27,2.67,2.21,5.55,3.29,8.31a95.81,95.81,0,0,1,3.26,9.64c.48,1.79,1,3.59,1.36,5.4a88.23,88.23,0,0,1,2.4,16.37c.21,5.08,0,41.7,0,46.78,0,1.21,0,2.43,0,3.65s0,2.36,0,3.55a2.54,2.54,0,0,0,.22,1.28c.2.32.77.28,1.09.28.6,0,1.19,0,1.78,0a6.5,6.5,0,0,0,.88,0,.6.6,0,0,0,.4-.43,1.94,1.94,0,0,0,.06-.59c0-1.38.05-2.76.08-4.15s.09-3,.13-4.5c.09-3,.16-37.58.21-40.6s.09-6,.11-9a96.78,96.78,0,0,1,1-16,95.39,95.39,0,0,1,2.48-10.83c.54-1.8,1.14-3.58,1.82-5.33s1.69-3,2.47-4.6a4.12,4.12,0,0,0,.5-1.69C558.59,41.42,557.21,41.24,556,41.24Z" />
			<path
				d="M596.18,41.24c-1.81,0-3.63.12-5.43.19s-3.71-.06-5.58,0c-1.52,0-3,0-4.56,0a19.54,19.54,0,0,0-3.59.11c-.93.17-2,.24-2.54,1.2s.23,1.88.67,2.81c1.28,2.67,2.21,5.55,3.29,8.31a95.87,95.87,0,0,1,3.27,9.64c.48,1.79.94,3.59,1.36,5.4a88.23,88.23,0,0,1,2.4,16.37c.21,5.08-.05,41.7,0,46.78,0,1.21,0,2.43,0,3.65s0,2.36.06,3.55a2.54,2.54,0,0,0,.22,1.28c.2.32.76.28,1.09.28.59,0,1.19,0,1.78,0a6.32,6.32,0,0,0,.87,0,.61.61,0,0,0,.41-.43,1.94,1.94,0,0,0,.06-.59c0-1.38,0-2.76.08-4.15l.12-4.5c.09-3,.17-37.58.22-40.6s.08-6,.1-9a96.78,96.78,0,0,1,1-16A95.43,95.43,0,0,1,594,54.59q.81-2.7,1.81-5.33c.65-1.67,1.7-3,2.47-4.6a4,4,0,0,0,.5-1.69C598.78,41.42,597.41,41.24,596.18,41.24Z" />
			<path
				d="M504,11.22c-1.22,0-2.43,0-3.65,0s-2.36,0-3.55.06a2.58,2.58,0,0,0-1.29.22c-.32.2-.27.76-.28,1.09,0,.59,0,1.19,0,1.78a5.06,5.06,0,0,0,0,.87.6.6,0,0,0,.43.41,1.91,1.91,0,0,0,.59.06c1.38,0,2.76,0,4.14.08l4.51.12c3,.09,37.58.17,40.6.22s6,.08,9.05.1a96.85,96.85,0,0,1,16,1,95.92,95.92,0,0,1,10.83,2.49c1.8.54,3.58,1.13,5.33,1.81s3,1.7,4.59,2.47a4,4,0,0,0,1.7.5c1.55,0,1.72-1.35,1.73-2.58,0-1.81-.12-3.63-.19-5.43s0-3.71,0-5.58c0-1.52,0-3.05,0-4.56a19.54,19.54,0,0,0-.1-3.59c-.17-.93-.24-2.05-1.2-2.54s-1.88.23-2.81.67c-2.68,1.28-5.55,2.21-8.31,3.29a99.36,99.36,0,0,1-9.64,3.27c-1.79.48-3.59.94-5.4,1.36a88.33,88.33,0,0,1-16.38,2.4C545.72,11.4,509.1,11.14,504,11.22Z" />
			<path
				d="M124.94,3.61c-2.44,0-4.86.16-7.29.26s-5-.07-7.48-.07c-2,0-4.08.06-6.13.06A26.63,26.63,0,0,0,99.23,4c-1.24.23-2.74.33-3.41,1.61-.75,1.46.31,2.52.91,3.78,1.72,3.58,3,7.44,4.41,11.14a125.39,125.39,0,0,1,4.38,12.94c.65,2.4,1.27,4.81,1.83,7.24a118.63,118.63,0,0,1,3.22,22c.28,6.81-.06,55.94,0,62.76,0,1.63,0,3.26,0,4.9s.06,3.17.08,4.77a3.5,3.5,0,0,0,.28,1.72c.28.42,1,.37,1.47.37.8,0,1.6,0,2.39,0a9.14,9.14,0,0,0,1.17,0,.78.78,0,0,0,.54-.57,2.4,2.4,0,0,0,.09-.8c0-1.85.06-3.7.1-5.56.06-2,.11-4,.17-6,.12-4,.22-50.42.29-54.47s.12-8.1.14-12.14c0-7.18.07-14.43,1.3-21.54A128.32,128.32,0,0,1,122,21.53c.72-2.42,1.52-4.81,2.43-7.16s2.28-4,3.32-6.17a5.52,5.52,0,0,0,.67-2.27C128.43,3.85,126.58,3.62,124.94,3.61Z" />
			<path
				d="M85.52,45.12a1.66,1.66,0,0,0-.55-.06c-1.26,0-2.53,0-3.8-.07s-2.76-.07-4.14-.12c-2.78-.07-5.56-.14-8.33-.18s-5.54-.09-8.32-.1a88.88,88.88,0,0,1-14.76-.9,86.89,86.89,0,0,1-9.95-2.29q-2.49-.74-4.91-1.66c-1.52-.59-2.75-1.56-4.22-2.27A3.76,3.76,0,0,0,25,37c-1.42,0-1.58,1.24-1.59,2.38,0,1.67.12,3.33.18,5s-.05,3.41-.05,5.13c0,1.4,0,2.79,0,4.19a18.16,18.16,0,0,0,.1,3.3c.16.85.22,1.88,1.1,2.34s1.74-.22,2.6-.63c2.45-1.17,5.09-2,7.62-3a88.92,88.92,0,0,1,8.87-3c1.64-.45,3.3-.87,5-1.26a81.8,81.8,0,0,1,15.06-2.2c4.66-.19,9.33.05,14,0,1.12,0,2.24,0,3.36,0s2.17,0,3.26-.06a2.27,2.27,0,0,0,1.18-.19c.29-.19.26-.71.26-1q0-.82,0-1.65a4.17,4.17,0,0,0,0-.79A.55.55,0,0,0,85.52,45.12Z" />
			<path
				d="M85.52,110.84a2,2,0,0,0-.55,0c-1.26,0-2.53,0-3.8-.08L77,110.6c-2.78-.08-5.56-.15-8.33-.19s-5.54-.09-8.32-.1a90,90,0,0,1-14.76-.89,89.1,89.1,0,0,1-9.95-2.3q-2.49-.74-4.91-1.66c-1.52-.59-2.75-1.55-4.22-2.27a3.76,3.76,0,0,0-1.56-.46c-1.42,0-1.58,1.25-1.59,2.38,0,1.67.12,3.33.18,5s-.05,3.42-.05,5.13c0,1.4,0,2.79,0,4.19a18.16,18.16,0,0,0,.1,3.3c.16.85.22,1.88,1.1,2.34s1.74-.22,2.6-.63c2.45-1.17,5.09-2,7.62-3a88.92,88.92,0,0,1,8.87-3c1.64-.45,3.3-.87,5-1.25A81,81,0,0,1,63.87,115c4.66-.19,9.33,0,14,0,1.12,0,2.24,0,3.36,0s2.17,0,3.26-.06a2.38,2.38,0,0,0,1.18-.2c.29-.19.26-.71.26-1,0-.55,0-1.1,0-1.64a4.28,4.28,0,0,0,0-.8A.55.55,0,0,0,85.52,110.84Z" />
			<path
				d="M40.47,80.42c4.67-.19,9.34,0,14,0,1.12,0,2.24,0,3.36,0s2.17,0,3.27-.06a2.27,2.27,0,0,0,1.18-.19c.29-.19.25-.71.26-1V77.49a5.31,5.31,0,0,0,0-.8.55.55,0,0,0-.39-.38,1.69,1.69,0,0,0-.55-.06c-1.26,0-2.53,0-3.8-.07l-4.15-.11c-2.77-.09-5.55-.15-8.32-.2s-5.55-.08-8.32-.09a91.08,91.08,0,0,1-14.76-.9,89,89,0,0,1-10-2.28c-1.66-.5-3.3-1-4.91-1.67s-2.75-1.56-4.22-2.27a3.76,3.76,0,0,0-1.56-.46C.17,68.18,0,69.45,0,70.58c0,1.67.11,3.33.18,5s0,3.41,0,5.13c0,1.4,0,2.8,0,4.19a19.11,19.11,0,0,0,.1,3.3c.15.85.22,1.88,1.1,2.34S3.1,90.31,4,89.9c2.45-1.17,5.1-2,7.63-3a84.86,84.86,0,0,1,8.87-3q2.46-.67,5-1.26A81.69,81.69,0,0,1,40.47,80.42Z" />
			<path
				d="M677.61,4a26.63,26.63,0,0,0-4.81-.14c-2,0-4.09,0-6.13-.06-2.5,0-5,.17-7.48.07s-4.85-.27-7.29-.26c-1.64,0-3.49.24-3.47,2.32a5.52,5.52,0,0,0,.67,2.27c1,2.15,2.45,3.94,3.32,6.17s1.71,4.74,2.43,7.16a128.32,128.32,0,0,1,3.34,14.52c1.23,7.11,1.26,14.36,1.3,21.54q0,6.06.14,12.14c.07,4,.17,50.42.29,54.47q.09,3,.17,6c0,1.86.1,3.71.1,5.56a2.4,2.4,0,0,0,.09.8.78.78,0,0,0,.54.57,9.14,9.14,0,0,0,1.17,0c.79,0,1.6,0,2.39,0,.43,0,1.19.05,1.47-.37a3.5,3.5,0,0,0,.28-1.72c0-1.6.09-3.18.08-4.77s0-3.27,0-4.9c.1-6.82-.24-55.95,0-62.76a118.63,118.63,0,0,1,3.22-22c.56-2.43,1.18-4.84,1.83-7.24a125.39,125.39,0,0,1,4.38-12.94c1.44-3.7,2.69-7.56,4.41-11.14.6-1.26,1.67-2.32.91-3.78C680.36,4.33,678.85,4.23,677.61,4Z" />
			<path
				d="M691.17,48.94a2.27,2.27,0,0,0,1.18.19c1.09,0,2.17.07,3.26.06s2.24,0,3.36,0c4.67.08,9.34-.16,14,0a81.82,81.82,0,0,1,15,2.2c1.66.39,3.32.81,5,1.26a88.92,88.92,0,0,1,8.87,3c2.53,1,5.18,1.85,7.63,3,.86.41,1.59,1.14,2.59.63s.94-1.49,1.1-2.34a18.16,18.16,0,0,0,.1-3.3c0-1.4,0-2.79,0-4.19,0-1.72-.12-3.42-.05-5.13s.19-3.32.18-5c0-1.14-.17-2.4-1.59-2.38a3.76,3.76,0,0,0-1.56.46c-1.47.71-2.7,1.68-4.22,2.27s-3.25,1.17-4.91,1.66a86.89,86.89,0,0,1-9.95,2.29,88.88,88.88,0,0,1-14.76.9c-2.77,0-5.55,0-8.32.1s-5.55.11-8.33.18q-2.07.08-4.14.12c-1.27,0-2.54.07-3.8.07a1.69,1.69,0,0,0-.55.06.55.55,0,0,0-.39.38,4.17,4.17,0,0,0,0,.79c0,.55,0,1.1,0,1.65C690.92,48.23,690.88,48.75,691.17,48.94Z" />
			<path
				d="M751.86,102.73a3.76,3.76,0,0,0-1.56.46c-1.47.72-2.7,1.68-4.22,2.27s-3.25,1.17-4.91,1.66a89.1,89.1,0,0,1-9.95,2.3,90,90,0,0,1-14.76.89c-2.77,0-5.55,0-8.32.1s-5.55.11-8.33.19l-4.14.11c-1.27,0-2.54.08-3.8.08a2,2,0,0,0-.55,0,.55.55,0,0,0-.39.38,4.28,4.28,0,0,0,0,.8c0,.54,0,1.09,0,1.64,0,.29,0,.81.25,1a2.38,2.38,0,0,0,1.18.2c1.09,0,2.17.06,3.26.06s2.24,0,3.36,0c4.67.08,9.34-.16,14,0a81,81,0,0,1,15,2.21c1.66.38,3.32.8,5,1.25a88.92,88.92,0,0,1,8.87,3c2.53,1,5.18,1.85,7.63,3,.86.41,1.59,1.14,2.59.63s.94-1.49,1.1-2.34a18.16,18.16,0,0,0,.1-3.3c0-1.4,0-2.79,0-4.19,0-1.71-.12-3.42-.05-5.13s.19-3.32.18-5C753.44,104,753.28,102.71,751.86,102.73Z" />
			<path
				d="M776.66,75.57c.07-1.66.19-3.32.18-5,0-1.13-.17-2.4-1.59-2.38a3.76,3.76,0,0,0-1.56.46c-1.47.71-2.69,1.68-4.22,2.27s-3.25,1.17-4.9,1.67a89.7,89.7,0,0,1-10,2.28,91.08,91.08,0,0,1-14.76.9c-2.77,0-5.55,0-8.32.09s-5.55.11-8.32.2l-4.15.11c-1.27,0-2.54.07-3.8.07a1.69,1.69,0,0,0-.55.06.55.55,0,0,0-.39.38,5.31,5.31,0,0,0,0,.8v1.63c0,.3,0,.82.26,1a2.28,2.28,0,0,0,1.18.19c1.1,0,2.18.07,3.27.06s2.24,0,3.36,0c4.66.07,9.33-.17,14,0a81.69,81.69,0,0,1,15,2.2q2.51.59,5,1.26a84.86,84.86,0,0,1,8.87,3c2.53,1,5.18,1.85,7.63,3,.86.41,1.59,1.15,2.59.63s.95-1.49,1.1-2.34a19.11,19.11,0,0,0,.1-3.3c0-1.39,0-2.79,0-4.19C776.71,79,776.59,77.28,776.66,75.57Z" />
			<path
				d="M372.6,65.57c2.46-3.25,5-6.86,6.33-10.74.5-1.49,1.26-4.55.31-6a1.27,1.27,0,0,0-1.61-.57c-1.21.44-2.53,2.18-3.13,3.08-1.41,2.09-3.14,3.75-4.59,5.79-1.74,2.48-3.58,4.89-5.48,7.25a153.18,153.18,0,0,1-15.65,16.76c-1.88,1.74-4,3.81-3.77,6.36a8.34,8.34,0,0,0,1.93,4.08c9.15,12.6,18.83,24.48,29.05,36.25.44.51,1,1.07,1.65,1,4.4-.28-3.3-13.25-4.16-14.64a153.92,153.92,0,0,0-11-16.24c-3.36-4.14-7.65-9-3.9-14.3C363,77.45,368,71.65,372.6,65.57Z" />
			<path
				d="M421.92,65.57c2.46-3.25,5-6.86,6.33-10.74.5-1.49,1.25-4.55.31-6a1.28,1.28,0,0,0-1.62-.57c-1.21.44-2.52,2.18-3.12,3.08-1.41,2.09-3.14,3.75-4.59,5.79q-2.62,3.72-5.48,7.25A153.18,153.18,0,0,1,398.1,81.16c-1.88,1.74-4,3.81-3.78,6.36a8.36,8.36,0,0,0,1.94,4.08c9.14,12.6,18.83,24.48,29.05,36.25.43.51,1,1.07,1.65,1,4.39-.28-3.3-13.25-4.17-14.64a152.33,152.33,0,0,0-11-16.24c-3.36-4.14-7.65-9-3.9-14.3C412.32,77.45,417.32,71.65,421.92,65.57Z" />
			<path
				d="M443.71,11.84a2.15,2.15,0,0,0-.67-.07c-1.54,0-3.09,0-4.64-.09l-5-.14c-3.38-.1-42.11-.18-45.49-.24s-6.77-.09-10.15-.12a109.16,109.16,0,0,1-18-1.08,104.68,104.68,0,0,1-12.14-2.8c-2-.6-4-1.27-6-2s-3.35-1.9-5.15-2.77a4.59,4.59,0,0,0-1.9-.56c-1.74,0-1.93,1.52-1.94,2.9,0,2,.14,4.06.22,6.08s-.06,4.17,0,6.25c0,1.71,0,3.41,0,5.12a22.49,22.49,0,0,0,.12,4c.19,1,.27,2.29,1.35,2.85s2.1-.26,3.15-.76c3-1.43,6.22-2.48,9.3-3.68a106.58,106.58,0,0,1,10.81-3.67c2-.54,4-1,6.05-1.53A99.2,99.2,0,0,1,382,16.85c5.69-.24,46.73,0,52.42,0,1.36,0,2.73,0,4.09,0s2.65-.05,4-.07a3,3,0,0,0,1.44-.23c.35-.24.31-.87.31-1.23,0-.67,0-1.33,0-2a8.06,8.06,0,0,0,0-1A.66.66,0,0,0,443.71,11.84Z" />
		</g>
	</g>
</svg>