<svg xmlns="http://www.w3.org/2000/svg" viewBox="0 0 954.96 143.29"><g id="Layer_2" data-name="Layer 2"><g id="Layer_1-2" data-name="Layer 1"><path d="M525.86,79.2c-4.11-1.79-10.64-4.59-18.34-7.89C483.73,61.12,447.77,45.73,438.88,41c-9.06-4.81-12-12-8-19.61C436.3,11,448.37,10.48,458.27,11.25c16,1.22,32.21,2.84,47.91,4.41l1.07.1c4.19.42,9,.88,14.12,1.37,9.1.86,18.51,1.76,26.2,2.59a.83.83,0,0,0,.79-1.21,19.64,19.64,0,0,1,0-17.28.8.8,0,0,0,0-.78.78.78,0,0,0-.68-.38L514.88,0,454.63,0c-6.36,0-23.24,0-33.25,16.45-5.26,8.64-11.2,25.94-.13,35.94,4.82,4.35,9.58,6.6,14.18,8.78,1.74.82,3.53,1.66,5.27,2.6,4.68,2.53,9.76,4.94,15.52,7.38l15,6.31c6.3,2.65,12.6,5.29,18.88,8,8,3.4,28.63,13.09,36.53,17,5,2.46,8.78,6.49,10.22,10.8a12.11,12.11,0,0,1-.72,9.57c-3,6-10.66,7.57-15,8-8.37.78-17.18-.24-25.7-1.24-2.85-.33-5.69-.66-8.49-.93q-15.48-1.44-31-2.95l-6.87-.67q-10.23-1-20.44-2c-1.29-.12-2.59-.28-3.89-.43a77.58,77.58,0,0,0-9-.71.83.83,0,0,0-.63.4,1,1,0,0,0-.11.79,31,31,0,0,1-.07,17.67.82.82,0,0,0,.13.71.79.79,0,0,0,.65.33h98.17c19.6,0,28.51-4.93,34.06-18.84C552,112.89,552.54,90.82,525.86,79.2Z"/><path d="M140.64,125.13l.18-.49a.82.82,0,0,0-.91-1.07c-7.06,1.26-20.55,2.36-33.59,3.42-10.71.87-20.82,1.69-26.3,2.52-8.68,1.33-21.36,2.55-32.54,3.62-5,.48-9.68.93-13.39,1.33l-.37,0c-6.43.7-15.25,1.66-17.55-1.55-1.86-2.59-1.53-5.55-1.17-8.68l.09-.81c2-18.51,3.81-86.12,4.48-111.57.15-5.5.25-9.13.27-9.51a.82.82,0,0,0-.35-.67,1,1,0,0,0-.79-.13A30.87,30.87,0,0,1,1,1.55a.81.81,0,0,0-.72.13A.84.84,0,0,0,0,2.34C0,4.05,5.23,130.71,5.3,131.41c.27,2.44,1.14,7,4,9.73,2,2,4.76,2.15,7.27,2.15h1.5l13.16,0q13.08-.08,26.14-.22c6.94-.07,26.41-.1,79.74.19l2.93,0a.8.8,0,0,0,.66-.35.79.79,0,0,0,.09-.74A25,25,0,0,1,140.64,125.13Z"/><path d="M954.9,142.14a25,25,0,0,1-.16-17l.17-.49a.79.79,0,0,0-.15-.79.81.81,0,0,0-.76-.28c-7.06,1.26-20.55,2.36-33.59,3.42-10.71.87-20.82,1.69-26.29,2.52-8.68,1.33-21.34,2.54-32.52,3.62-5,.48-9.7.93-13.42,1.33l-.37,0c-6.43.7-15.24,1.66-17.55-1.56-1.86-2.59-1.53-5.55-1.17-8.68l.09-.81c2-18.51,3.81-86.12,4.49-111.57.14-5.5.24-9.13.27-9.51a.86.86,0,0,0-.36-.67,1,1,0,0,0-.79-.13,30.87,30.87,0,0,1-17.66,0,.81.81,0,0,0-.72.13.84.84,0,0,0-.32.66c0,1.72,5.23,128.38,5.31,129.07.26,2.44,1.13,7,4,9.73,2.06,2,4.77,2.15,7.28,2.15h1.49l13.17,0q13.06-.08,26.13-.22c6.94-.07,26.41-.1,79.73.19l2.94,0a.8.8,0,0,0,.66-.35A.79.79,0,0,0,954.9,142.14Z"/><path d="M691.31,8.29C689.59,4.73,686.53,0,679.77,0s-7.65,2-10.09,6.8L669,8.17c-9.18,17.8-34.81,70-51.77,104.59-8,16.27-13.75,28-14.42,29.28a.82.82,0,0,0,.09.89.8.8,0,0,0,.63.3.91.91,0,0,0,.23,0l3.38-1a27.42,27.42,0,0,1,18.37,1,.86.86,0,0,0,.63,0,.83.83,0,0,0,.44-.46c.36-.91,3-7.52,7.11-17.51C647.3,91.69,675.66,22,679.17,11.72c.28-.81.69-2,1-2s.94,1.31,1.12,1.81l.13.38c.49,1.28,51.83,129.62,54.11,131.2a.81.81,0,0,0,.71.1,33,33,0,0,1,17.86-.55l2.28.57a.82.82,0,0,0,.92-1.16C757.09,141.59,693.76,13.37,691.31,8.29Z"/><path d="M287.89,8.29C286.17,4.73,283.11,0,276.36,0s-7.66,2-10.09,6.8l-.7,1.37c-9.18,17.8-34.81,70-51.76,104.59-8,16.27-13.75,28-14.42,29.28a.8.8,0,0,0,.09.89.78.78,0,0,0,.62.3,1,1,0,0,0,.24,0l3.38-1a27.43,27.43,0,0,1,18.37,1,.86.86,0,0,0,.63,0,.83.83,0,0,0,.44-.46c.35-.91,3-7.52,7.1-17.52,13.63-33.5,42-103.23,45.49-113.47.28-.81.7-2,1-2,.5,0,1,1.31,1.12,1.81l.14.38c.49,1.28,51.82,129.62,54.11,131.2a.79.79,0,0,0,.7.1,33,33,0,0,1,17.86-.55l2.29.57a.81.81,0,0,0,.91-1.16C353.68,141.59,290.34,13.37,287.89,8.29Z"/></g></g></svg>