<?xml version="1.0" encoding="utf-8"?>
<!-- Generator: Adobe Illustrator 25.4.1, SVG Export Plug-In . SVG Version: 6.00 Build 0)  -->
<svg version="1.1" id="Capa_1" xmlns="http://www.w3.org/2000/svg" xmlns:xlink="http://www.w3.org/1999/xlink" x="0px" y="0px"
	 viewBox="0 0 149.3 26.9" style="enable-background:new 0 0 149.3 26.9;" xml:space="preserve">
<style type="text/css">
	.st0{opacity:0.25;}
	.st1{fill:#D6D6D6;}
</style>
<g>
	<path d="M45.7,25.7C45.7,25.7,45.7,25.6,45.7,25.7c-0.3-0.4-0.5-0.7-0.7-1l-0.4-0.8c-0.6-1.1-1.2-2.4-1.6-3.8
		c-0.2-0.5-0.3-0.9-0.5-1.4c-0.2-0.5-4.2-11.8-4.3-12.2c-0.1-0.2-0.2-0.4-0.2-0.7c0,0,0-0.1,0-0.2c0-0.1-0.1-0.3-0.1-0.4
		c0,0,0,0,0,0c0,0,0,0,0,0l0,0c-0.1-0.1-0.1-0.1-0.2-0.1c-0.1,0-0.2,0-0.2,0.1l0,0c0,0,0,0,0,0c0,0,0,0,0,0
		c-0.1,0.1-0.1,0.3-0.1,0.4c0,0.1,0,0.1,0,0.2c-0.1,0.2-0.1,0.4-0.2,0.6l0,0.1c-0.1,0.4-4.2,11.7-4.3,12.2c-0.2,0.5-0.3,0.9-0.5,1.4
		c-0.5,1.4-1,2.6-1.6,3.8l-0.4,0.8c-0.2,0.3-0.4,0.7-0.6,0.9c0,0-0.1,0.1-0.1,0.1c-0.1,0.1-0.2,0.2-0.2,0.3
		c-0.1,0.2-0.1,0.4-0.1,0.5c0.1,0.3,0.4,0.3,0.6,0.3c0.1,0,0.3,0,0.4,0c0.1,0,0.2,0,0.3,0c0.5,0,1.1,0,1.6,0c0,0,0.1,0,0.1,0
		c0.3,0,0.5,0,0.6-0.1c0.1-0.1,0.1-0.2,0.1-0.4c0,0,0-0.1,0-0.1c0-0.3-0.1-0.6-0.1-1c0-0.1,0-0.3,0-0.4c0-0.8-0.1-1.5,0.1-2.1
		c0.1-0.5,0.3-0.9,0.4-1.4c0.1-0.2,0.2-0.4,0.2-0.6l0-0.1c0.3-0.9,0.6-1.8,1-2.7c0.2-0.5,0.3-0.9,0.5-1.4c0.2-0.5,0.3-1,0.5-1.5
		c0.2-0.7,0.4-1.4,0.7-2c0.1-0.4,0.3-0.7,0.4-1.1c0.1-0.2,0.1-0.3,0.2-0.5c0-0.1,0.1-0.2,0.1-0.3c0.1-0.3,0.2-0.7,0.5-0.9
		c0.2-0.1,0.4-0.2,0.7-0.1c0.7,0.3,1.1,1.8,1.4,2.7c0.1,0.2,0.1,0.4,0.2,0.6c0.2,0.6,0.4,1.3,0.7,1.9c0.1,0.3,0.2,0.6,0.3,0.9
		c0.1,0.4,0.3,0.8,0.5,1.2c0.9,2.3,1.8,4.7,1.7,7.3c0,0.1,0,0.3,0,0.4c0,0.3,0,0.7-0.1,1c0,0,0,0.1,0,0.1c0,0.2,0,0.3,0.1,0.4
		c0.1,0.1,0.3,0.1,0.5,0.1c0,0,0.1,0,0.1,0c0,0,0.1,0,0.1,0c0.5,0,1.1,0,1.6,0c0.1,0,0.2,0,0.3,0c0.1,0,0.3,0,0.4,0
		c0.1,0,0.4-0.1,0.6-0.3c0.1-0.2,0-0.4-0.1-0.5C45.9,25.9,45.8,25.8,45.7,25.7z"/>
	<path d="M119.6,25.7C119.6,25.7,119.6,25.6,119.6,25.7c-0.3-0.4-0.5-0.7-0.7-1l-0.4-0.8c-0.6-1.1-1.2-2.4-1.6-3.8
		c-0.2-0.5-0.3-0.9-0.5-1.4c-0.2-0.5-4.2-11.8-4.3-12.2c-0.1-0.2-0.2-0.4-0.2-0.7c0,0,0-0.1,0-0.2c0-0.1-0.1-0.3-0.1-0.4
		c0,0,0,0,0,0c0,0,0,0,0,0l0,0c-0.1-0.1-0.1-0.1-0.2-0.1c-0.1,0-0.2,0-0.2,0.1l0,0c0,0,0,0,0,0c0,0,0,0,0,0
		c-0.1,0.1-0.1,0.3-0.1,0.4c0,0.1,0,0.1,0,0.2c-0.1,0.2-0.1,0.4-0.2,0.6l0,0.1c-0.1,0.4-4.2,11.7-4.3,12.2c-0.2,0.5-0.3,0.9-0.5,1.4
		c-0.5,1.4-1,2.6-1.6,3.8l-0.4,0.8c-0.2,0.3-0.4,0.7-0.6,0.9c0,0-0.1,0.1-0.1,0.1c-0.1,0.1-0.2,0.2-0.2,0.3
		c-0.1,0.2-0.1,0.4-0.1,0.5c0.1,0.3,0.4,0.3,0.6,0.3c0.1,0,0.3,0,0.4,0c0.1,0,0.2,0,0.3,0c0.5,0,1.1,0,1.6,0c0,0,0.1,0,0.1,0
		c0.3,0,0.5,0,0.6-0.1c0.1-0.1,0.1-0.2,0.1-0.4c0,0,0-0.1,0-0.1c0-0.3-0.1-0.6-0.1-1c0-0.1,0-0.3,0-0.4c0-0.8-0.1-1.5,0.1-2.1
		c0.1-0.5,0.3-0.9,0.4-1.4c0.1-0.2,0.2-0.4,0.2-0.6l0-0.1c0.3-0.9,0.6-1.8,1-2.7c0.2-0.5,0.3-0.9,0.5-1.4c0.2-0.5,0.3-1,0.5-1.5
		c0.2-0.7,0.4-1.4,0.7-2c0.1-0.4,0.3-0.7,0.4-1.1c0.1-0.2,0.1-0.3,0.2-0.5c0-0.1,0.1-0.2,0.1-0.3c0.1-0.3,0.2-0.7,0.5-0.9
		c0.2-0.1,0.4-0.2,0.7-0.1c0.7,0.3,1.1,1.8,1.4,2.7c0.1,0.2,0.1,0.4,0.2,0.6c0.2,0.6,0.4,1.3,0.7,1.9c0.1,0.3,0.2,0.6,0.3,0.9
		c0.1,0.4,0.3,0.8,0.5,1.2c0.9,2.3,1.8,4.7,1.7,7.3c0,0.1,0,0.3,0,0.4c0,0.3,0,0.7-0.1,1c0,0,0,0.1,0,0.1c0,0.2,0,0.3,0.1,0.4
		c0.1,0.1,0.3,0.1,0.5,0.1c0,0,0.1,0,0.1,0c0,0,0.1,0,0.1,0c0.5,0,1.1,0,1.6,0c0.1,0,0.2,0,0.3,0c0.1,0,0.3,0,0.4,0
		c0.1,0,0.4-0.1,0.6-0.3c0.1-0.2,0-0.4-0.1-0.5C119.8,25.9,119.7,25.8,119.6,25.7z"/>
	<g>
		<path d="M67.8,25.2c-0.1-0.1-0.1-0.3-0.2-0.4c-1.1-2.8-1-5.9-1-8.9l0-0.5c0-1.8,0.1-3.7,0.2-5.8C67,8.7,67,7.7,67.2,6.9
			c0.1-0.4,0.2-0.7,0.4-1c0-0.1,0.1-0.2,0.1-0.2c0-0.1,0.1-0.2,0.1-0.3c0-0.1,0-0.2-0.1-0.2c-0.2-0.2-0.5-0.2-0.8-0.2
			c-0.1,0-0.1,0-0.1,0c-0.3,0-0.6,0-0.8,0c-0.3,0-0.5,0-0.8,0c-0.1,0-0.2,0-0.4,0c-0.1,0-0.1,0-0.1,0c-0.1,0-0.3,0-0.4,0l-0.1,0
			c-0.1,0-0.4,0.1-0.5,0.3c-0.1,0.2,0,0.4,0.1,0.5c0,0,0,0.1,0,0.1c0.4,0.9,0.8,1.9,1,3c0.2,1.2,0.4,2.2,0.5,3.3
			c0.1,0.8,0,1.7,0,2.5c0,0.4,0,0.9,0,1.3c0,1.3,0,2.6,0,3.9c0,1-0.1,2.2-0.2,3.4c-0.1,0.6-0.2,1.2-0.3,1.7
			c-0.1,0.4-0.3,0.8-0.5,1.2c0,0.1-0.1,0.2-0.1,0.3c0,0.1-0.1,0.2-0.1,0.3c0,0.1,0,0.2,0.1,0.3c0.1,0.1,0.3,0.1,0.4,0.1c0,0,0,0,0,0
			c0.2,0,0.4,0,0.6,0c0.1,0,0.2,0,0.3,0c0.2,0,0.3,0,0.5,0c0.1,0,0.2,0,0.4,0c0.2,0,0.3,0,0.5,0c0.3,0,0.6,0,0.9,0
			c0.2,0,0.3-0.1,0.4-0.2c0.1-0.2,0.1-0.4-0.1-0.7C68,25.8,67.9,25.5,67.8,25.2z"/>
		<path d="M84.3,26.1c-0.1-0.3-0.3-0.6-0.4-0.9c-0.1-0.1-0.1-0.3-0.2-0.4c-1.1-2.8-1-5.9-1-8.9l0-0.5c0-1.8,0.1-3.7,0.2-5.8
			c0.1-0.9,0.1-1.8,0.3-2.6c0.1-0.4,0.2-0.7,0.4-1c0-0.1,0.1-0.2,0.1-0.2C84,5.5,84,5.4,84,5.3c0-0.1,0-0.2-0.1-0.2
			c-0.2-0.2-0.5-0.2-0.8-0.2c-0.1,0-0.1,0-0.1,0c-0.3,0-0.6,0-0.8,0c-0.3,0-0.5,0-0.8,0c-0.1,0-0.2,0-0.4,0c-0.1,0-0.1,0-0.1,0
			c-0.1,0-0.3,0-0.4,0l-0.1,0C80.2,5,80,5,79.9,5.2c-0.1,0.2,0,0.4,0.1,0.5c0,0,0,0.1,0,0.1c0.4,0.9,0.8,1.9,1,3
			c0.2,1.2,0.4,2.2,0.5,3.3c0.1,0.8,0,1.7,0,2.5c0,0.4,0,0.9,0,1.3c0,1.3,0,2.6,0,3.9c0,1-0.1,2.2-0.2,3.4c-0.1,0.6-0.2,1.2-0.3,1.7
			c-0.1,0.4-0.3,0.8-0.5,1.2c0,0.1-0.1,0.2-0.1,0.3c0,0.1-0.1,0.2-0.1,0.3c0,0.1,0,0.2,0.1,0.3c0.1,0.1,0.3,0.1,0.4,0.1c0,0,0,0,0,0
			c0.2,0,0.4,0,0.6,0c0.1,0,0.2,0,0.3,0c0.2,0,0.3,0,0.5,0c0.1,0,0.2,0,0.4,0c0.2,0,0.3,0,0.5,0c0.3,0,0.6,0,0.9,0
			c0.2,0,0.3-0.1,0.4-0.2C84.5,26.6,84.5,26.3,84.3,26.1z"/>
		<path d="M76.2,26.1c-0.1-0.3-0.3-0.6-0.4-0.9c-0.1-0.1-0.1-0.3-0.2-0.4c-1.1-2.8-1-5.9-1-8.9l0-0.5c0-1.8,0.1-3.7,0.2-5.8
			c0.1-0.9,0.1-1.8,0.3-2.6c0.1-0.4,0.2-0.7,0.4-1c0-0.1,0.1-0.2,0.1-0.2c0-0.1,0.1-0.2,0.1-0.3c0-0.1,0-0.2-0.1-0.2
			c-0.2-0.2-0.5-0.2-0.8-0.2c-0.1,0-0.1,0-0.1,0c-0.3,0-0.6,0-0.8,0c-0.3,0-0.5,0-0.8,0c-0.1,0-0.2,0-0.4,0c-0.1,0-0.1,0-0.1,0
			c-0.1,0-0.3,0-0.4,0l-0.1,0c-0.1,0-0.4,0.1-0.5,0.3c-0.1,0.2,0,0.4,0.1,0.5c0,0,0,0.1,0,0.1c0.4,0.9,0.8,1.9,1,3
			c0.2,1.2,0.4,2.2,0.5,3.3c0.1,0.8,0,1.7,0,2.5c0,0.4,0,0.9,0,1.3c0,1.3,0,2.6,0,3.9c0,1-0.1,2.2-0.2,3.4c-0.1,0.6-0.2,1.2-0.3,1.7
			c-0.1,0.4-0.3,0.8-0.5,1.2c0,0.1-0.1,0.2-0.1,0.3c0,0.1-0.1,0.2-0.1,0.3c0,0.1,0,0.2,0.1,0.3c0.1,0.1,0.3,0.1,0.4,0.1c0,0,0,0,0,0
			c0.2,0,0.4,0,0.6,0c0.1,0,0.2,0,0.3,0c0.2,0,0.3,0,0.5,0c0.1,0,0.2,0,0.4,0c0.2,0,0.3,0,0.5,0c0.3,0,0.6,0,0.9,0
			c0.2,0,0.3-0.1,0.4-0.2C76.4,26.6,76.4,26.3,76.2,26.1z"/>
	</g>
	<g>
		<path d="M11.7,5.1c-0.1,0-0.2,0-0.4,0c-0.4,0-0.9,0-1.3,0c-1,0-2,0-3,0c-0.8,0-1.6,0.1-2.4,0C4,5,3.3,5.1,2.6,5.3
			C1.9,5.5,1.3,5.8,0.9,6.4C0.5,6.9,0.2,7.3,0.1,7.9c-0.1,0.5-0.1,1,0,1.5c0.2,1,0.7,2.1,1.6,2.7c1.1,0.8,2.2,1.7,3.2,2.5
			c0.6,0.5,1.2,1,1.8,1.5c0.6,0.5,1.2,1.1,1.8,1.6c0.6,0.6,1.2,1.1,1.5,1.9c0.8,2-0.2,4.6-2.2,5.6c-0.8,0.4-1.8,0.2-2.6,0
			c-0.9-0.2-1.6-0.6-2.4-1.1c-0.3-0.2-0.5-0.4-0.6-0.7c-0.1-0.3-0.2-0.9-0.6-0.9c-0.2,0-0.2,0.1-0.3,0.2c-0.1,0.1-0.2,0.3-0.3,0.4
			c-0.2,0.3-0.3,0.6-0.5,1C0.4,24.7,0,25.3,0,25.9c0,0.1,0,0.2,0.1,0.3c0.1,0.2,0.3,0.1,0.5,0.1c0.3,0,0.6,0,0.8,0
			c1,0.1,2,0.4,3,0.5c1.1,0.1,2.1,0,3.1,0c0.9-0.1,1.8-0.3,2.5-0.8c0.9-0.6,1.4-1.5,2-2.3c1.4-1.9,0.8-4.5-0.8-6.2
			c-1.2-1.2-2.5-2.3-3.8-3.3c-1-0.8-2.1-1.5-3.1-2.3C3.6,11.2,3,10.7,2.6,9.7C2,8.1,3.6,6.7,5.2,6.5c2.6-0.2,5.5,0.7,7.9-0.5
			c0.4-0.2,0.8-0.8,0.1-1C13,5,12.8,5,12.7,5C12.4,5,12,5.1,11.7,5.1z"/>
		<path d="M8.8,2.5C9,2.4,9.1,2.3,9.2,2.2C9.5,2,9.7,1.8,10,1.5l0.2-0.2c0,0,0.1-0.1,0.1-0.1c0.2-0.1,0.4-0.3,0.3-0.5
			c-0.1-0.2-0.3-0.3-0.4-0.4C10.1,0.2,10,0,9.8,0C9.7,0,9.5,0.2,9.4,0.3C9.1,0.6,8.8,0.8,8.5,1.1C8.3,1.3,8.1,1.4,7.9,1.6
			C7.8,1.7,7.6,1.8,7.4,1.8c-0.2,0-0.4-0.1-0.5-0.2C6.5,1.4,6.1,1,5.8,0.7C5.6,0.6,5.5,0.5,5.4,0.4C5.1,0.2,4.9-0.1,4.5,0.2
			C4.3,0.4,4,0.8,4.3,1c0,0,1.2,1.1,1.2,1.1c0.1,0.1,0.2,0.2,0.3,0.3c0,0,0.1,0.1,0.1,0.1C6,2.7,6.2,2.7,6.3,2.8
			C6.4,2.9,6.4,3,6.5,3c0.2,0.2,0.4,0.4,0.7,0.6c0.1,0,0.1,0,0.2,0c0.1,0,0.1,0,0.2-0.1c0.1-0.1,0.2-0.1,0.2-0.2
			C8.2,3.1,8.5,2.8,8.8,2.5z"/>
	</g>
	<g>
		<path d="M137.6,5.1c0.1,0,0.2,0,0.4,0c0.4,0,0.9,0,1.3,0c1,0,2,0,3,0c0.8,0,1.6,0.1,2.4,0c0.7-0.1,1.4,0,2.1,0.2
			c0.7,0.2,1.4,0.6,1.8,1.2c0.3,0.4,0.7,0.9,0.7,1.5c0.1,0.5,0.1,1,0,1.5c-0.2,1-0.7,2.1-1.6,2.7c-1.1,0.8-2.2,1.7-3.2,2.5
			c-0.6,0.5-1.2,1-1.8,1.5c-0.6,0.5-1.2,1.1-1.8,1.6c-0.6,0.6-1.2,1.1-1.5,1.9c-0.8,2,0.2,4.6,2.2,5.6c0.8,0.4,1.8,0.2,2.6,0
			c0.9-0.2,1.6-0.6,2.4-1.1c0.3-0.2,0.5-0.4,0.6-0.7c0.1-0.3,0.2-0.9,0.6-0.9c0.2,0,0.2,0.1,0.3,0.2c0.1,0.1,0.2,0.3,0.3,0.4
			c0.2,0.3,0.3,0.6,0.5,1c0.2,0.5,0.6,1.1,0.6,1.6c0,0.1,0,0.2-0.1,0.3c-0.1,0.2-0.3,0.1-0.5,0.1c-0.3,0-0.6,0-0.8,0
			c-1,0.1-2,0.4-3,0.5c-1.1,0.1-2.1,0-3.1,0c-0.9-0.1-1.8-0.3-2.5-0.8c-0.9-0.6-1.4-1.5-2-2.3c-1.4-1.9-0.8-4.5,0.8-6.2
			c1.2-1.2,2.5-2.3,3.8-3.3c1-0.8,2.1-1.5,3.1-2.3c0.9-0.7,1.4-1.2,1.8-2.2c0.7-1.6-0.9-3-2.6-3.2c-2.6-0.2-5.5,0.7-7.9-0.5
			c-0.4-0.2-0.8-0.8-0.1-1c0.2-0.1,0.4,0,0.6,0C137,5,137.3,5.1,137.6,5.1z"/>
		<path d="M140.5,2.5c-0.1-0.1-0.3-0.2-0.4-0.3c-0.3-0.2-0.5-0.5-0.8-0.7l-0.2-0.2c0,0-0.1-0.1-0.1-0.1c-0.2-0.1-0.4-0.3-0.3-0.5
			c0.1-0.2,0.3-0.3,0.4-0.4c0.1-0.1,0.2-0.3,0.4-0.3c0.1,0,0.3,0.2,0.4,0.3c0.3,0.3,0.6,0.6,0.9,0.8c0.2,0.2,0.4,0.3,0.6,0.5
			c0.1,0.1,0.3,0.2,0.5,0.2c0.2,0,0.4-0.1,0.5-0.2c0.4-0.2,0.8-0.6,1.1-0.9c0.1-0.1,0.2-0.2,0.3-0.3c0.3-0.3,0.5-0.6,0.9-0.2
			c0.2,0.2,0.5,0.6,0.2,0.8c0,0-1.2,1.1-1.2,1.1c-0.1,0.1-0.2,0.2-0.3,0.3c0,0-0.1,0.1-0.1,0.1c-0.1,0.1-0.2,0.2-0.3,0.3
			c-0.1,0.1-0.2,0.1-0.3,0.2c-0.2,0.2-0.4,0.4-0.7,0.6c-0.1,0-0.1,0-0.2,0c-0.1,0-0.1,0-0.2-0.1c-0.1-0.1-0.2-0.1-0.2-0.2
			C141.1,3.1,140.8,2.8,140.5,2.5z"/>
	</g>
</g>
</svg>
