<svg xmlns="http://www.w3.org/2000/svg" viewBox="0 0 221.75 233.55"><g id="Layer_2" data-name="Layer 2"><g id="Layer_1-2" data-name="Layer 1"><path d="M0,184.78c0,4,.28,8.07.44,12.09s-.13,8.27-.12,12.42c0,3.39.09,6.79.1,10.17a42.48,42.48,0,0,0,.24,8c.37,2.07.53,4.57,2.66,5.67,2.43,1.26,4.2-.52,6.27-1.51,5.95-2.84,12.35-4.92,18.5-7.33A213.32,213.32,0,0,1,49.56,217c4-1.08,8-2.11,12-3a196.28,196.28,0,0,1,36.48-5.33c11.3-.47,92.85.1,104.15-.08,2.71,0,5.42-.06,8.14,0s5.25-.1,7.9-.13a5.58,5.58,0,0,0,2.86-.48c.71-.45.61-1.71.63-2.43,0-1.32,0-2.64,0-4a14.11,14.11,0,0,0,0-1.95,1.34,1.34,0,0,0-1-.9,4.15,4.15,0,0,0-1.32-.14c-3.08,0-6.15-.1-9.23-.18l-10-.27c-6.71-.21-83.68-.37-90.4-.48s-13.43-.19-20.16-.23c-11.9-.08-24-.12-35.73-2.16a211.69,211.69,0,0,1-24.12-5.55c-4-1.19-8-2.52-11.88-4-3.7-1.44-6.67-3.77-10.23-5.5A9.14,9.14,0,0,0,3.86,179C.41,179,0,182,0,184.78Z"/><path d="M0,95.27c0,4,.28,8.07.44,12.09s-.13,8.27-.12,12.42c0,3.39.09,6.79.1,10.17a42.48,42.48,0,0,0,.24,8c.37,2.07.53,4.57,2.66,5.67,2.43,1.26,4.2-.52,6.27-1.51,5.95-2.84,12.35-4.92,18.5-7.33a215.92,215.92,0,0,1,21.47-7.27c4-1.07,8-2.1,12-3a197.13,197.13,0,0,1,36.48-5.34c11.3-.46,92.85.1,104.15-.07,2.71,0,5.42-.06,8.14,0s5.25-.1,7.9-.13a5.58,5.58,0,0,0,2.86-.48c.71-.45.61-1.71.63-2.44,0-1.32,0-2.64,0-4a14,14,0,0,0,0-1.94,1.34,1.34,0,0,0-1-.9,4.15,4.15,0,0,0-1.32-.14c-3.08,0-6.15-.11-9.23-.18-3.33-.09-6.69-.19-10-.27-6.71-.21-83.68-.37-90.4-.48s-13.43-.19-20.16-.24c-11.9-.07-24-.11-35.73-2.16a209.54,209.54,0,0,1-24.12-5.54c-4-1.19-8-2.52-11.88-4-3.7-1.44-6.67-3.77-10.23-5.5a9.14,9.14,0,0,0-3.77-1.12C.41,89.47,0,92.53,0,95.27Z"/><path d="M0,5.76c0,4,.28,8.07.44,12.08S.31,26.11.32,30.26c0,3.4.09,6.79.1,10.17a42.43,42.43,0,0,0,.24,8C1,50.49,1.19,53,3.32,54.09c2.43,1.26,4.2-.53,6.27-1.51,5.95-2.85,12.35-4.92,18.5-7.33A215.92,215.92,0,0,1,49.56,38c4-1.07,8-2.1,12-3a197.13,197.13,0,0,1,36.48-5.34c11.3-.46,92.85.1,104.15-.07q4.06-.08,8.14,0c2.64,0,5.25-.1,7.9-.13a5.68,5.68,0,0,0,2.86-.48c.71-.45.61-1.71.63-2.44,0-1.32,0-2.64,0-4a14,14,0,0,0,0-1.94,1.34,1.34,0,0,0-1-.9,3.89,3.89,0,0,0-1.32-.15c-3.08,0-6.15-.1-9.23-.17l-10-.28c-6.71-.2-83.68-.36-90.4-.47s-13.43-.19-20.16-.24c-11.9-.07-24-.11-35.73-2.16a211.65,211.65,0,0,1-24.12-5.54c-4-1.19-8-2.53-11.88-4-3.7-1.44-6.67-3.78-10.23-5.5A9,9,0,0,0,3.86,0C.41,0,0,3,0,5.76Z"/></g></g></svg>