<svg width="461" height="52" viewBox="0 0 461 52" fill="none" xmlns="http://www.w3.org/2000/svg">
<g clip-path="url(#clip0_346_105)">
<path d="M429.459 41.3625C425.904 33.6242 416.607 9.19575 416.607 9.19575L412.137 9.00513L414.016 14.0889C414.016 14.0889 406.503 31.8413 403.391 38.9613C399.438 29.7422 392.074 10.3696 392.074 10.3696L387.751 10.186L389.569 15.1024C389.569 15.1024 382.438 31.9575 379.378 38.9752C375.427 29.7631 368.051 10.3696 368.051 10.3696L363.728 10.186L365.546 15.1024C365.546 15.1024 358.969 30.6534 355.741 38.1082C351.601 28.3452 344.313 9.1911 344.313 9.1911L339.843 9.00049L341.725 14.0842C341.725 14.0842 333.693 33.0616 330.799 39.654C330.204 41.0069 329.275 43.9474 325.239 44.4123L325.099 44.4681V45.6001L330.159 44.6564L335.98 45.6001V44.4564L335.821 44.41C334.648 44.0752 332.437 43.5592 331.882 42.641C331.645 42.2319 331.678 41.6856 331.915 41.0278C332.849 38.4243 335.724 31.2648 335.724 31.2648C340.518 31.3764 346.626 31.811 348.219 31.9133L352.096 41.4113C352.449 42.2853 352.665 42.8874 352.456 43.2709C352.219 43.7103 351.487 44.0427 349.612 44.4541L349.418 44.4983L349.333 45.5862L355.732 44.8702L361.368 45.5862V44.5401C358.664 43.5894 358.133 43.4755 357.154 41.3486C356.955 40.9162 356.737 40.4327 356.507 39.905C357.656 36.8831 365.85 17.299 365.85 17.299L370.488 29.1541L371.805 32.3736L375.562 41.5531C375.906 42.3992 376.114 42.9804 375.913 43.357C375.676 43.78 374.965 44.1031 373.171 44.5006L372.981 44.5425L372.898 45.5955L373.474 45.5304V45.6048L374.462 45.4211L379.115 44.9004L381.76 45.2352L384.007 45.6001V45.5211L384.566 45.5908V44.5797C381.959 43.6498 381.437 43.5499 380.489 41.4927C380.395 41.2881 380.297 41.0696 380.195 40.8441C381.2 38.1082 389.884 17.3037 389.884 17.3037L394.522 29.1588L395.84 32.3782L399.597 41.5578C399.94 42.4039 400.149 42.985 399.947 43.3616C399.71 43.7847 398.999 44.1078 397.205 44.5053L397.016 44.5471L396.933 45.6001L403.13 44.9028L408.582 45.6001V44.5889C405.975 43.6591 405.453 43.5592 404.505 41.502L404.237 40.8976C405.214 38.2035 408.001 31.2648 408.001 31.2648C412.796 31.3764 418.891 31.811 420.496 31.9133L424.383 41.4113C424.736 42.2853 424.954 42.8874 424.745 43.2709C424.508 43.7103 423.774 44.0427 421.901 44.4541L421.705 44.4983L421.619 45.5862L428.018 44.8702L433.654 45.5862V44.5401C430.969 43.594 430.438 43.4801 429.459 41.3625ZM336.646 29.2145L342.047 16.346L346.844 28.5939C344.242 28.7915 340.35 29.0751 336.646 29.2145ZM408.932 29.2145L414.334 16.346L419.131 28.5939C416.533 28.7915 412.641 29.0751 408.937 29.2145H408.932Z" fill="white"/>
<path d="M321.075 9.81168e-06C320.385 9.81168e-06 314.398 4.06793 313.035 4.06793C311.613 4.06793 305.688 9.81168e-06 304.996 9.81168e-06C304.852 -0.000831479 304.714 0.0524573 304.609 0.148896C304.504 0.245335 304.44 0.37758 304.432 0.518381C304.432 1.76665 311.658 6.92709 313.026 6.92709H313.045C314.415 6.92709 321.639 1.76665 321.639 0.518381C321.63 0.37758 321.567 0.245335 321.462 0.148896C321.357 0.0524573 321.218 -0.000831479 321.075 9.81168e-06Z" fill="white"/>
<path d="M315.474 26.0205C310.663 23.861 305.444 22.6011 304.792 18.0102C304.197 13.826 307.61 10.1696 312.568 10.1696C318.425 10.1696 323.423 14.198 323.165 20.6857L324.731 20.774C324.02 15.9669 323.731 14.1701 323.627 9.63026H321.996C321.996 9.63026 322.314 11.2179 321.326 11.4666C320.079 11.7828 317.034 8.90967 312.305 8.90967C305.653 8.90967 300.287 13.4611 301.341 19.6722C301.97 23.3659 304.086 25.7485 309.964 28.5054C314.661 30.7044 319.328 31.3878 321.565 35.6789C323.627 39.6306 321.269 44.6911 315.531 44.6911C309.793 44.6911 302.989 40.9718 301.733 30.544L300.002 30.3627C300.431 35.9973 300.713 38.0987 300.42 45.228L301.993 45.1467C301.993 45.1467 301.778 43.487 302.704 42.7199C304.747 41.0369 308.724 46.0184 315.457 46.0184C323.897 46.0184 327.504 39.2447 325.547 34.1331C323.537 28.8518 318.643 27.4338 315.474 26.0205Z" fill="white"/>
<path d="M439.926 9.81168e-06C440.615 9.81168e-06 446.602 4.06793 447.965 4.06793C449.387 4.06793 455.312 9.81168e-06 456.004 9.81168e-06C456.148 -0.000831479 456.286 0.0524573 456.391 0.148896C456.496 0.245335 456.56 0.37758 456.568 0.518381C456.568 1.76665 449.344 6.92709 447.974 6.92709H447.955C446.588 6.92709 439.361 1.76665 439.361 0.518381C439.37 0.37758 439.433 0.245335 439.538 0.148896C439.643 0.0524573 439.782 -0.000831479 439.926 9.81168e-06Z" fill="white"/>
<path d="M445.526 26.0205C450.337 23.861 455.556 22.6011 456.208 18.0102C456.805 13.826 453.39 10.1696 448.432 10.1696C442.575 10.1696 437.577 14.198 437.835 20.6857L436.271 20.774C436.97 15.9669 437.269 14.1701 437.373 9.63026H439.006C439.006 9.63026 438.691 11.2179 439.677 11.4666C440.923 11.7828 443.969 8.90967 448.697 8.90967C455.35 8.90967 460.716 13.4611 459.661 19.6722C459.033 23.3659 456.916 25.7485 451.039 28.5054C446.341 30.7044 441.675 31.3878 439.425 35.6789C437.364 39.6306 439.722 44.6911 445.46 44.6911C451.198 44.6911 458.002 40.9718 459.258 30.544L460.988 30.3627C460.559 35.9973 460.277 38.0987 460.573 45.228L458.997 45.1467C458.997 45.1467 459.213 43.487 458.286 42.7199C456.243 41.0369 452.266 46.0184 445.533 46.0184C437.093 46.0184 433.486 39.2447 435.444 34.1331C437.463 28.8518 442.36 27.4338 445.526 26.0205Z" fill="white"/>
</g>
<path d="M253.082 21.3203L255.215 25.9375L257.383 21.3203H259.785L256.352 27.5781L259.879 34H257.5L255.262 29.2422L253.012 34H250.621L254.148 27.5781L250.715 21.3203H253.082Z" fill="white"/>
<g clip-path="url(#clip1_346_105)">
<path d="M117.294 29.3819L113.181 27.7092C107.874 25.5456 99.8193 22.2546 97.9105 21.2637C96.0017 20.2728 95.2382 18.7274 96.1258 17.1001C97.3379 14.8819 100.029 14.7819 102.234 14.9456C105.803 15.2092 109.42 15.5456 112.923 15.8546H113.162L116.311 16.1456C118.334 16.3365 120.434 16.5183 122.152 16.7001C122.184 16.7025 122.217 16.696 122.245 16.6816C122.274 16.6671 122.298 16.6451 122.314 16.6183C122.33 16.592 122.338 16.5622 122.338 16.5319C122.338 16.5016 122.33 16.4718 122.314 16.4456C122.026 15.8787 121.876 15.2571 121.876 14.6274C121.876 13.9976 122.026 13.376 122.314 12.8092C122.33 12.7846 122.339 12.7563 122.339 12.7274C122.339 12.6984 122.33 12.6701 122.314 12.6456C122.3 12.6194 122.277 12.5978 122.25 12.5833C122.223 12.5688 122.192 12.562 122.161 12.5637H101.404C99.9815 12.5637 96.2212 12.5637 93.988 16.0637C92.8141 17.8819 91.4875 21.5728 93.988 23.691C94.9331 24.467 95.9987 25.0987 97.147 25.5637C97.5383 25.7365 97.9391 25.9092 98.3209 26.1092C99.3707 26.6456 100.506 27.1637 101.785 27.6819L105.135 29.0183L109.363 30.7274C111.148 31.4456 115.748 33.4546 117.514 34.3637C118.552 34.82 119.366 35.6407 119.785 36.6546C119.908 36.9862 119.957 37.3385 119.929 37.6891C119.901 38.0396 119.797 38.3808 119.623 38.691C118.955 39.9637 117.246 40.3001 116.292 40.3819C114.379 40.4886 112.459 40.4003 110.566 40.1183L108.657 39.9274L101.728 39.2546L100.191 39.1092L95.6295 38.691L94.761 38.6001C94.0935 38.5118 93.4211 38.4602 92.7473 38.4456C92.7193 38.4503 92.6928 38.4609 92.6697 38.4766C92.6466 38.4924 92.6274 38.5128 92.6137 38.5365C92.6021 38.5623 92.5962 38.5902 92.5962 38.6183C92.5962 38.6464 92.6021 38.6742 92.6137 38.7001C92.9953 39.9252 92.9953 41.2295 92.6137 42.4546C92.5994 42.4781 92.5919 42.5048 92.5919 42.5319C92.5919 42.559 92.5994 42.5857 92.6137 42.6092C92.6299 42.6305 92.6515 42.6476 92.6766 42.6587C92.7016 42.6699 92.7293 42.6747 92.7568 42.6728H114.65C119.022 42.6728 121.007 41.6274 122.286 38.6728C123.125 36.5365 123.24 31.8456 117.294 29.3819Z" fill="white"/>
<path d="M31.3707 39.1364V39.0364C31.3842 39.0094 31.3913 38.9799 31.3913 38.95C31.3913 38.9201 31.3842 38.8906 31.3707 38.8636C31.349 38.8417 31.322 38.8252 31.292 38.8157C31.262 38.8062 31.23 38.8039 31.1989 38.8091C29.6242 39.0727 26.6179 39.3091 23.707 39.5364C21.321 39.7182 19.0591 39.8909 17.8375 40.0727C15.9287 40.3545 13.0656 40.6091 10.5842 40.8364C9.45798 40.9455 8.42724 41.0364 7.59692 41.1273H7.51103C6.07945 41.2818 4.11341 41.4818 3.59804 40.8C3.27055 40.2478 3.1783 39.5969 3.34036 38.9818V38.8091C3.78892 34.8818 4.18976 20.5182 4.34246 15.1091C4.34246 13.9364 4.34246 13.1727 4.39973 13.0909C4.39398 13.0351 4.36679 12.9833 4.32338 12.9455C4.29528 12.9319 4.26422 12.9248 4.23271 12.9248C4.20121 12.9248 4.17014 12.9319 4.14204 12.9455C2.85983 13.3135 1.49219 13.3135 0.209971 12.9455C0.15755 12.9274 0.100145 12.9274 0.0477236 12.9455C0.0245392 12.9629 0.00567443 12.9849 -0.00752401 13.0101C-0.0207225 13.0352 -0.0279269 13.0628 -0.0286255 13.0909C-0.0286255 13.4545 1.13572 40.3636 1.15481 40.5091C1.22128 41.2661 1.54648 41.9814 2.08057 42.5455C2.30445 42.7226 2.5635 42.8549 2.84225 42.9346C3.12101 43.0142 3.41376 43.0396 3.70303 43.0091H6.97657H12.7983C14.354 43.0091 18.6964 43.0091 30.5881 43.0091H31.2371C31.2668 43.0098 31.2963 43.0036 31.323 42.9909C31.3496 42.9782 31.3726 42.9595 31.3898 42.9364C31.4017 42.9122 31.4079 42.8858 31.4079 42.8591C31.4079 42.8324 31.4017 42.806 31.3898 42.7818C30.9327 41.6068 30.926 40.3157 31.3707 39.1364Z" fill="white"/>
<path d="M212.99 42.7544C212.537 41.5808 212.537 40.2917 212.99 39.1181V39.0181C213.005 38.9915 213.013 38.9619 213.013 38.9317C213.013 38.9016 213.005 38.8719 212.99 38.8453C212.971 38.8235 212.945 38.8069 212.917 38.7973C212.889 38.7877 212.858 38.7855 212.828 38.7908C211.244 39.0544 208.238 39.2908 205.327 39.5181C202.941 39.6999 200.688 39.8726 199.467 40.0544C197.558 40.3363 194.695 40.5908 192.213 40.8181C191.087 40.9272 190.047 41.0181 189.217 41.109H189.14C187.699 41.2544 185.743 41.4544 185.227 40.7726C184.897 40.2217 184.801 39.5707 184.96 38.9544V38.7817C185.409 34.8544 185.81 20.4908 185.962 15.0817C185.962 13.909 186.019 13.1453 186.029 13.0635C186.027 13.0348 186.018 13.007 186.003 12.9819C185.988 12.9567 185.968 12.935 185.943 12.9181C185.917 12.9045 185.887 12.8975 185.857 12.8975C185.827 12.8975 185.798 12.9045 185.771 12.9181C184.486 13.2863 183.115 13.2863 181.83 12.9181C181.777 12.9 181.72 12.9 181.667 12.9181C181.646 12.9359 181.628 12.9583 181.617 12.9835C181.605 13.0087 181.6 13.036 181.601 13.0635C181.601 13.4272 182.765 40.3363 182.784 40.4817C182.832 41.2459 183.148 41.9726 183.681 42.5453C183.905 42.7225 184.164 42.8548 184.443 42.9345C184.722 43.0141 185.014 43.0395 185.304 43.009H188.577H194.409C195.955 43.009 200.297 43.009 212.189 43.009H212.847C212.875 43.0072 212.903 42.9995 212.927 42.9865C212.952 42.9735 212.973 42.9555 212.989 42.9338C213.006 42.9121 213.017 42.8872 213.022 42.8609C213.027 42.8346 213.026 42.8076 213.019 42.7817L212.99 42.7544Z" fill="white"/>
<path d="M154.219 14.3636C154.036 13.8425 153.689 13.3881 153.224 13.0626C152.759 12.737 152.2 12.5564 151.623 12.5454C150.135 12.5454 149.915 12.9727 149.371 13.9909L149.218 14.2818C147.166 18.0636 141.45 29.1636 137.67 36.5C135.886 39.9545 134.607 42.4545 134.454 42.7272C134.434 42.7536 134.423 42.7855 134.423 42.8181C134.423 42.8508 134.434 42.8826 134.454 42.909C134.471 42.9298 134.492 42.9464 134.517 42.9575C134.542 42.9685 134.57 42.9738 134.597 42.9727L135.351 42.7545C136.7 42.372 138.147 42.4459 139.445 42.9636C139.491 42.9813 139.543 42.9813 139.589 42.9636C139.612 42.9555 139.633 42.9422 139.649 42.9248C139.666 42.9074 139.678 42.8864 139.684 42.8636C139.77 42.6727 140.362 41.2727 141.268 39.1454C144.313 32.0272 150.64 17.209 151.423 15.0363C151.48 14.8636 151.576 14.609 151.652 14.609C151.728 14.609 151.862 14.8818 151.9 14.9909V15.0727C152.005 15.3454 163.458 42.609 163.964 42.9454C164.016 42.9635 164.073 42.9635 164.126 42.9454C165.415 42.5522 166.794 42.5112 168.106 42.8272L168.621 42.9454C168.654 42.9534 168.69 42.9515 168.722 42.9402C168.754 42.9288 168.782 42.9085 168.802 42.8818C168.822 42.8554 168.833 42.8235 168.833 42.7909C168.833 42.7582 168.822 42.7264 168.802 42.7L154.219 14.3636Z" fill="white"/>
<path d="M64.2111 14.3636C64.031 13.8461 63.688 13.3939 63.2287 13.0686C62.7693 12.7433 62.216 12.5607 61.6438 12.5454C60.155 12.5454 59.9355 12.9727 59.3915 13.9909L59.2388 14.2818C57.1869 18.0636 51.4701 29.1636 47.6907 36.5C45.906 39.9545 44.6271 42.4545 44.4744 42.7272C44.4543 42.7536 44.4434 42.7855 44.4434 42.8181C44.4434 42.8508 44.4543 42.8826 44.4744 42.909C44.4912 42.9298 44.513 42.9464 44.5379 42.9575C44.5628 42.9685 44.5901 42.9738 44.6176 42.9727L45.3715 42.7545C46.7208 42.372 48.1673 42.4459 49.4659 42.9636C49.5118 42.9813 49.5631 42.9813 49.609 42.9636C49.6322 42.9555 49.6531 42.9422 49.6697 42.9248C49.6863 42.9074 49.6982 42.8864 49.7045 42.8636C49.7904 42.6727 50.3916 41.2727 51.2983 39.1454C54.3332 32.0272 60.6608 17.209 61.4434 15.0363C61.5007 14.8636 61.5961 14.609 61.6725 14.609C61.7488 14.609 61.8824 14.8818 61.9206 14.9909V15.0727C62.0256 15.3454 73.4782 42.609 73.9936 42.9454C74.0425 42.9646 74.0974 42.9646 74.1463 42.9454C75.4352 42.5522 76.814 42.5112 78.1261 42.8272L78.6415 42.9454C78.6749 42.9534 78.7101 42.9515 78.7424 42.9402C78.7748 42.9288 78.8028 42.9085 78.8228 42.8818C78.843 42.8554 78.8538 42.8235 78.8538 42.7909C78.8538 42.7582 78.843 42.7264 78.8228 42.7L64.2111 14.3636Z" fill="white"/>
</g>
<defs>
<clipPath id="clip0_346_105">
<rect width="161" height="46" fill="white" transform="translate(300)"/>
</clipPath>
<clipPath id="clip1_346_105">
<rect width="213" height="40" fill="white" transform="translate(0 3)"/>
</clipPath>
</defs>
</svg>
