<svg xmlns="http://www.w3.org/2000/svg" viewBox="0 0 395.88 371.51"><g id="Layer_2" data-name="Layer 2"><g id="Layer_1-2" data-name="Layer 1"><path d="M275.35,8.3c37.88,11.74,69.9,35.91,94.59,71.14,12.5,17.83,21.17,37.52,24.18,59.25,3.5,25.26,1.94,50.12-6.25,74.52a316.05,316.05,0,0,0-10.38,37.25c-4.76,23.37-13.46,44.15-30,62.17-18.1,19.75-38.23,35.75-63.95,43.59-16.35,5-32.95,9.56-49.75,12.61-23.2,4.21-46.61,3.8-69.26-3.77-9-3-17.58-7.49-26.32-11.35-25-11-50.78-20.51-72.82-37.52C53.5,307,40.75,299,30.88,287.26c-20-23.74-27.17-52.37-30-82.12-1.69-18-.54-36.22-.38-54.35a76.17,76.17,0,0,1,1.63-16.94c5.91-25,18.63-46.22,37.51-63.65C47,63.47,55.06,57.55,62,50.49c18.9-19.24,42.42-30.15,67.39-38.62C160.5,1.33,192.72-.71,225.2.19A186.21,186.21,0,0,1,275.35,8.3M163.86,250.41c18.79,5.07,36.67,7.2,54.79,1.51,6.68-2.1,13.5-3.71,20.15-5.88,15.19-4.94,28.13-13.16,38.61-25.52,18.4-21.72,24.49-47.09,22-74.56C296.34,111.85,287.27,92.15,261,70c-9.9-8.34-21.58-15.53-34.53-16-27.06-1-54.25-1.87-81,5.33-15.84,4.27-28.44,12.44-38.15,25.48a121.74,121.74,0,0,1-9.06,11.07c-12.67,13.38-18.22,29.51-18.73,47.61-.73,25.92,10.09,48,24.28,68.47,14.72,21.22,37.62,30.45,60,38.39"/><path d="M176.79,204c-13.52-3.69-22.77-11.77-27-25.24-3.55-11.28-9.1-22-6.93-34.64,2-11.84,7.28-21.77,14.54-30.94,1-1.29,2.17-2.49,3.25-3.74,15.63-18.2,38-21.85,59.28-10.58,14.63,7.76,21.51,20.33,23.72,35.67,1.78,12.36,1.69,25-2.61,37-8.53,23.78-27.67,39.89-53.95,34.18-3.39-.74-6.87-1.14-10.3-1.7"/></g></g></svg>