<?xml version="1.0" standalone="no"?>
<!DOCTYPE svg PUBLIC "-//W3C//DTD SVG 20010904//EN"
 "http://www.w3.org/TR/2001/REC-SVG-20010904/DTD/svg10.dtd">
<svg version="1.0" xmlns="http://www.w3.org/2000/svg"
 width="672.000000pt" height="672.000000pt" viewBox="0 0 672.000000 672.000000"
 preserveAspectRatio="xMidYMid meet">
<metadata>
Created by potrace 1.14, written by Peter Selinger 2001-2017
</metadata>
<g transform="translate(0.000000,672.000000) scale(0.100000,-0.100000)"
fill="#000000" stroke="none">
<path d="M3388 6504 c-2 -1 -53 -6 -113 -9 -61 -4 -130 -8 -155 -10 -76 -5
-255 -25 -350 -40 -14 -2 -45 -7 -70 -10 -42 -6 -103 -17 -160 -30 -14 -3 -36
-7 -50 -10 -14 -3 -36 -7 -50 -11 -14 -3 -36 -8 -50 -11 -14 -2 -32 -7 -40
-10 -8 -3 -19 -7 -25 -8 -78 -18 -132 -36 -190 -61 -16 -7 -64 -26 -105 -42
-144 -57 -458 -209 -491 -238 -8 -8 -19 -14 -23 -14 -11 0 -169 -103 -236
-154 -69 -52 -100 -78 -170 -142 -30 -28 -95 -82 -145 -119 -49 -38 -92 -72
-95 -75 -3 -3 -32 -27 -65 -55 -100 -82 -327 -315 -390 -400 -76 -101 -135
-190 -135 -204 0 -6 -3 -11 -8 -11 -4 0 -13 -15 -21 -32 -8 -18 -17 -35 -21
-38 -10 -8 -90 -180 -90 -194 0 -6 -4 -16 -9 -22 -11 -11 -79 -213 -86 -257
-3 -16 -8 -33 -10 -37 -4 -6 -7 -19 -24 -100 -11 -52 -9 -1201 2 -1240 4 -14
10 -45 13 -70 10 -67 11 -73 17 -100 4 -14 9 -37 12 -52 3 -16 7 -38 10 -50 3
-13 7 -32 9 -43 41 -196 146 -481 248 -667 124 -229 244 -382 403 -513 33 -28
62 -52 65 -55 3 -3 39 -30 80 -60 41 -29 79 -57 85 -62 5 -5 28 -22 50 -39 22
-16 48 -36 58 -44 9 -8 17 -11 17 -7 0 4 5 -1 10 -10 27 -46 357 -245 595
-358 148 -71 161 -77 295 -135 47 -21 105 -47 130 -58 25 -12 47 -22 50 -22 3
-1 25 -11 50 -22 84 -38 575 -250 605 -261 57 -20 146 -43 230 -59 159 -28
201 -31 440 -32 143 -1 294 3 335 9 41 6 94 12 118 15 23 2 46 6 51 9 4 3 21
7 37 10 38 7 395 95 414 103 8 3 22 7 30 8 8 1 35 8 60 15 25 8 47 14 50 15
335 93 552 181 722 291 38 24 73 44 78 44 6 0 10 4 10 8 0 5 21 23 48 40 26
17 56 39 67 49 11 10 47 41 79 68 95 79 267 255 409 414 15 17 27 35 27 40 0
5 4 11 8 13 14 5 90 128 143 230 49 97 137 311 145 357 3 14 7 28 10 32 5 9
60 203 68 240 3 13 23 87 46 164 23 77 43 151 46 164 3 14 8 29 12 35 3 6 7
17 9 25 1 8 9 37 18 65 10 28 18 56 20 61 1 6 5 17 8 25 8 21 36 112 42 136 3
10 17 62 31 114 25 96 42 170 50 225 2 17 9 57 14 90 25 155 35 576 17 700 -4
28 -10 68 -13 90 -6 47 -47 260 -58 300 -25 93 -66 220 -88 272 -6 16 -12 33
-13 38 -15 65 -200 389 -257 450 -15 17 -28 34 -28 38 0 7 -115 163 -131 177
-3 3 -12 16 -21 28 -28 41 -120 142 -224 246 -140 139 -165 162 -279 251 -236
184 -437 298 -730 415 -23 9 -52 19 -63 21 -4 0 -15 5 -25 11 -25 13 -136 41
-292 73 -169 35 -163 34 -215 41 -25 3 -54 8 -65 11 -11 2 -36 6 -55 9 -19 3
-51 8 -70 11 -35 6 -687 13 -692 7z m372 -878 c63 -3 126 -8 140 -11 124 -23
246 -72 358 -142 73 -45 219 -152 269 -197 70 -63 201 -198 239 -247 50 -65
144 -219 144 -236 0 -6 4 -13 8 -15 15 -6 94 -236 108 -312 3 -16 7 -33 10
-37 3 -5 7 -23 9 -41 3 -18 7 -44 10 -58 3 -14 7 -38 10 -55 3 -16 7 -43 11
-60 19 -106 26 -461 11 -565 -5 -30 -8 -62 -9 -70 -1 -63 -85 -351 -115 -395
-7 -11 -13 -25 -13 -32 0 -7 -19 -45 -42 -85 -24 -40 -49 -85 -57 -100 -8 -15
-22 -37 -33 -47 -10 -11 -18 -23 -18 -26 0 -11 -119 -154 -169 -202 -38 -38
-113 -101 -166 -141 -137 -102 -372 -211 -530 -246 -5 -1 -35 -10 -65 -19 -30
-8 -91 -25 -135 -37 -44 -12 -104 -28 -132 -35 -75 -21 -161 -29 -293 -29
-109 0 -234 9 -249 18 -4 3 -27 7 -51 10 -117 14 -388 102 -590 191 -267 118
-473 275 -624 475 -31 41 -66 88 -79 104 -12 16 -24 34 -26 40 -2 6 -7 13 -11
16 -14 10 -100 149 -143 232 -43 82 -113 252 -121 293 -2 11 -9 32 -15 48 -6
15 -8 27 -6 27 2 0 0 12 -6 28 -6 15 -12 38 -14 52 -1 14 -6 41 -10 60 -24
106 -33 300 -21 429 10 106 20 154 52 248 47 141 109 251 199 359 55 66 171
177 235 225 29 21 62 52 74 67 139 178 313 309 509 382 47 17 218 64 271 74
11 2 59 11 106 20 47 9 108 19 135 22 28 2 64 6 80 9 17 2 89 7 160 11 72 3
131 7 132 8 5 4 361 -2 463 -8z"/>
<path d="M3338 4965 c-3 -3 -33 -7 -67 -10 -70 -5 -120 -13 -133 -21 -4 -3
-18 -7 -29 -9 -39 -8 -147 -63 -201 -103 -98 -72 -238 -222 -314 -334 -73
-110 -142 -262 -160 -353 -30 -158 -23 -258 32 -420 88 -264 146 -402 185
-444 11 -11 19 -23 19 -25 0 -6 52 -56 100 -97 36 -30 96 -64 160 -90 45 -18
79 -22 185 -24 72 -2 150 -6 175 -10 56 -9 164 -10 210 -1 84 15 137 29 157
42 12 8 29 14 36 14 8 0 20 7 27 15 6 8 15 14 18 12 28 -7 191 140 260 234 32
45 122 201 121 212 0 1 5 16 12 32 7 17 14 39 16 50 8 38 11 50 13 50 1 0 3 9
5 20 1 11 5 34 8 50 30 154 23 406 -15 540 -6 22 -13 48 -15 57 -12 65 -125
298 -145 298 -4 0 -8 5 -8 11 0 19 -98 108 -168 153 -117 75 -277 130 -411
142 -30 2 -57 7 -61 9 -4 2 -9 2 -12 0z"/>
</g>
</svg>
